<?xml version="1.0" encoding="utf-8"?>
<!-- Generator: Adobe Illustrator 24.0.0, SVG Export Plug-In . SVG Version: 6.00 Build 0)  -->
<svg version="1.1" id="Layer_1" xmlns="http://www.w3.org/2000/svg" xmlns:xlink="http://www.w3.org/1999/xlink" x="0px" y="0px"
	 viewBox="0 0 529.4 119" style="enable-background:new 0 0 529.4 119;" xml:space="preserve">
<style type="text/css">
	.st0{fill:#FFFFFF;}
</style>
<g>
	<path class="st0" d="M126.4,43.2c2.5,3.4,3.7,7.5,3.7,12.3c0,4.9-1.2,8.9-3.7,11.9c-1.4,1.7-3.4,3.2-6.1,4.6
		c4.1,1.5,7.2,3.9,9.3,7.1c2.1,3.2,3.1,7.2,3.1,11.8c0,4.8-1.2,9-3.6,12.8c-1.5,2.5-3.4,4.6-5.7,6.3c-2.6,2-5.6,3.3-9.1,4
		c-3.5,0.7-7.3,1.1-11.4,1.1H66.6V34.6h38.9C115.3,34.7,122.3,37.6,126.4,43.2z M82.7,48.6v17.8h19.6c3.5,0,6.3-0.7,8.5-2
		c2.2-1.3,3.3-3.7,3.3-7.1c0-3.8-1.4-6.2-4.3-7.4c-2.5-0.8-5.7-1.3-9.5-1.3C100.2,48.6,82.7,48.6,82.7,48.6z M82.7,79.7v21.5h19.6
		c3.5,0,6.2-0.5,8.2-1.4c3.5-1.7,5.3-5.1,5.3-10c0-4.2-1.7-7.1-5.1-8.6c-1.9-0.9-4.6-1.3-8.1-1.4C102.5,79.7,82.7,79.7,82.7,79.7z"
		/>
	<path class="st0" d="M138,60.5V49.9c4.9-0.2,8.3-0.6,10.3-1c3.1-0.7,5.7-2.1,7.6-4.2c1.3-1.4,2.4-3.3,3.1-5.7
		c0.4-1.4,0.6-2.5,0.6-3.2h13v79.2h-16V60.5H138z"/>
	<path class="st0" d="M185.2,99.6c2.2-5.3,7.5-10.9,15.7-16.8c7.2-5.1,11.8-8.8,13.9-11c3.2-3.5,4.9-7.2,4.9-11.4
		c0-3.4-0.9-6.1-2.8-8.4c-1.9-2.2-4.5-3.3-8-3.3c-4.7,0-8,1.8-9.7,5.3c-1,2-1.6,5.3-1.7,9.7h-15.1c0.3-6.7,1.5-12.2,3.7-16.3
		c4.2-7.9,11.5-11.9,22.2-11.9c8.4,0,15.1,2.3,20,7c5,4.6,7.4,10.8,7.4,18.4c0,5.9-1.8,11.1-5.3,15.6c-2.3,3-6.1,6.4-11.3,10.1
		l-6.2,4.4c-3.9,2.8-6.6,4.8-8,6c-1.4,1.2-2.6,2.7-3.6,4.3h34.6v13.7h-54.3C181.6,109.5,182.8,104.3,185.2,99.6z"/>
	<g>
		<path class="st0" d="M52.1,27.7c-0.9-0.2,0.9-3.4,4.5-4.2c3.7-0.8,10.2,7.6,15.2,12.7c5,5.1,0.7,4.7-1,5.3
			c-1.7,0.6-4.4-7.3-8.7-10.8C57.8,27.2,52.5,27.8,52.1,27.7z"/>
		<path class="st0" d="M2.8,5.5C2.6,5.4,2.3,5.3,2.1,5.2c1,0.6,2,1.2,2.9,1.9c30.1,3.6,41,3,51.8,19c0.1-0.4,0.3-0.9,0.4-1.4
			C65-12.3,16.8,11.4,2.8,5.5z M25.9,6.1c0,0,14.2-3.3,23,0.3c3.5,1.4,7.3,5.6,8.1,10.9C52.4,1.5,25.9,6.1,25.9,6.1z"/>
		<path class="st0" d="M5,7c9.8,7.4,11.7,21.5,24,25.9c8.9,3.2,24.2,4.3,27.7-6.8C46,10.1,35.1,10.7,5,7z M27.9,18.1
			c-0.4,1.1-2.6,1.3-4.9,0.4c-2.4-0.8-4-2.3-3.6-3.4c0.4-1.1,2.6-1.3,4.9-0.4C26.7,15.5,28.3,17.1,27.9,18.1z M33.3,23.2
			c-0.2,0.6-1.4,0.7-2.8,0.3c-1.3-0.4-2.3-1.3-2.1-1.9c0.2-0.6,1.4-0.7,2.8-0.3C32.6,21.8,33.5,22.6,33.3,23.2z"/>
		<path class="st0" d="M24.3,14.7c-2.4-0.8-4.6-0.6-4.9,0.4c-0.4,1.1,1.2,2.6,3.6,3.4c2.4,0.8,4.6,0.6,4.9-0.4
			C28.3,17.1,26.7,15.5,24.3,14.7z M26.8,17.6c-0.3,0.9-2.2,1.1-4.2,0.4c-2-0.7-3.3-2-3-2.9c0.3-0.9,2.2-1.1,4.2-0.4
			C25.8,15.4,27.2,16.7,26.8,17.6z"/>
		<path class="st0" d="M31.2,21.3c-1.3-0.4-2.6-0.3-2.8,0.3c-0.2,0.6,0.7,1.4,2.1,1.9c1.3,0.4,2.6,0.3,2.8-0.3
			C33.5,22.6,32.6,21.8,31.2,21.3z M32.7,22.9c-0.2,0.5-1.2,0.6-2.4,0.3c-1.1-0.4-1.9-1.1-1.7-1.6c0.2-0.5,1.2-0.6,2.4-0.3
			C32.1,21.7,32.8,22.4,32.7,22.9z"/>
	</g>
	<g>
		<path class="st0" d="M81,29.4c0.4-0.1-0.4-1.6-2.2-2C77,27,73.9,31,71.5,33.5c-2.4,2.5-0.3,2.3,0.5,2.6c0.8,0.3,2.1-3.5,4.2-5.2
			C78.2,29.1,80.8,29.4,81,29.4z"/>
		<path class="st0" d="M104.7,18.7c-6.7,2.8-29.9-8.6-26.2,9.2c0.1,0.2,0.1,0.5,0.2,0.7c5.2-7.7,10.4-7.4,24.9-9.2
			c0.4-0.3,0.9-0.6,1.4-0.9C105,18.6,104.8,18.6,104.7,18.7z M78.6,24.4c0.4-2.6,2.2-4.6,3.9-5.3c4.3-1.7,11.1-0.1,11.1-0.1
			S80.8,16.8,78.6,24.4z"/>
		<path class="st0" d="M78.8,28.6c1.7,5.4,9.1,4.8,13.4,3.3C98,29.8,99,23,103.7,19.4C89.2,21.2,83.9,20.9,78.8,28.6z M94.4,23.1
			c1.1-0.4,2.2-0.3,2.4,0.2c0.2,0.5-0.6,1.3-1.7,1.6c-1.1,0.4-2.2,0.3-2.4-0.2C92.5,24.2,93.2,23.5,94.4,23.1z M91.1,26.3
			c0.6-0.2,1.2-0.2,1.3,0.1c0.1,0.3-0.3,0.7-1,0.9c-0.6,0.2-1.2,0.2-1.3-0.1C90,26.9,90.4,26.5,91.1,26.3z"/>
		<path class="st0" d="M95,24.9c1.1-0.4,1.9-1.1,1.7-1.6c-0.2-0.5-1.2-0.6-2.4-0.2s-1.9,1.1-1.7,1.6C92.8,25.3,93.9,25.3,95,24.9z
			 M94.6,23.1c1-0.3,1.9-0.2,2,0.2c0.2,0.4-0.5,1.1-1.5,1.4c-1,0.3-1.9,0.2-2-0.2C93,24,93.7,23.4,94.6,23.1z"/>
		<path class="st0" d="M91.4,27.3c0.6-0.2,1.1-0.6,1-0.9c-0.1-0.3-0.7-0.4-1.3-0.1c-0.6,0.2-1.1,0.6-1,0.9
			C90.2,27.5,90.7,27.5,91.4,27.3z M91.2,26.3c0.6-0.2,1.1-0.1,1.1,0.1c0.1,0.3-0.3,0.6-0.8,0.8c-0.6,0.2-1.1,0.1-1.1-0.1
			C90.3,26.8,90.6,26.5,91.2,26.3z"/>
	</g>
</g>
<g>
	<path class="st0" d="M278.6,65.5c-0.3-2.4-2.6-4.2-5.2-4.2c-4.7,0-6.5,4-6.5,8.2c0,4,1.8,8,6.5,8c3.2,0,5-2.2,5.4-5.3h5.1
		c-0.5,5.9-4.6,9.7-10.5,9.7c-7.4,0-11.7-5.5-11.7-12.4c0-7.1,4.3-12.6,11.7-12.6c5.2,0,9.6,3.1,10.3,8.6L278.6,65.5L278.6,65.5z"/>
	<path class="st0" d="M295.3,63.6c5.4,0,8.9,3.6,8.9,9.1c0,5.5-3.5,9.1-8.9,9.1c-5.4,0-8.9-3.6-8.9-9.1
		C286.4,67.2,289.9,63.6,295.3,63.6z M295.3,78.2c3.2,0,4.2-2.8,4.2-5.5c0-2.8-1-5.5-4.2-5.5c-3.2,0-4.2,2.8-4.2,5.5
		C291.1,75.5,292.1,78.2,295.3,78.2z"/>
	<path class="st0" d="M307.4,64.1h4.5v2.3h0.1c1.2-1.8,3-2.8,5.3-2.8c2.2,0,4.1,0.8,5,2.9c1-1.5,2.8-2.9,5.2-2.9
		c3.7,0,6.3,1.7,6.3,6.2v11.5H329v-9.8c0-2.3-0.2-4.2-2.9-4.2c-2.7,0-3.2,2.2-3.2,4.4v9.6h-4.7v-9.7c0-2,0.1-4.3-2.9-4.3
		c-0.9,0-3.2,0.6-3.2,4v10h-4.7L307.4,64.1L307.4,64.1z"/>
	<path class="st0" d="M353.6,81.3h-4.5v-2.4H349c-1.2,1.9-3.3,2.9-5.3,2.9c-5,0-6.3-2.8-6.3-7.1V64.1h4.7v9.7c0,2.8,0.8,4.2,3,4.2
		c2.6,0,3.7-1.4,3.7-4.9v-9h4.7V81.3z"/>
	<path class="st0" d="M357.2,64.1h4.5v2.4h0.1c1.2-1.9,3.3-2.9,5.3-2.9c5,0,6.3,2.8,6.3,7.1v10.6h-4.7v-9.7c0-2.8-0.8-4.2-3-4.2
		c-2.6,0-3.7,1.4-3.7,4.9v9h-4.7V64.1z"/>
	<path class="st0" d="M381.9,61.4h-4.7v-3.9h4.7V61.4z M377.1,64.1h4.7v17.2h-4.7V64.1z"/>
	<path class="st0" d="M397.3,70.2c-0.3-1.9-1.5-3-3.5-3c-3,0-4,3.1-4,5.6c0,2.5,1,5.4,3.9,5.4c2.2,0,3.5-1.4,3.8-3.5h4.6
		c-0.6,4.6-3.8,7.1-8.3,7.1c-5.2,0-8.7-3.7-8.7-8.8c0-5.4,3.2-9.3,8.8-9.3c4.1,0,7.8,2.1,8.1,6.5C402,70.2,397.3,70.2,397.3,70.2z"
		/>
	<path class="st0" d="M404.5,69.4c0.3-4.4,4.2-5.8,8.1-5.8c3.4,0,7.6,0.8,7.6,4.9v9c0,1.6,0.2,3.1,0.6,3.8H416
		c-0.2-0.5-0.3-1.1-0.3-1.7c-1.5,1.6-3.7,2.1-5.8,2.1c-3.3,0-5.9-1.6-5.9-5.2c0-3.9,2.9-4.8,5.9-5.2c2.9-0.4,5.6-0.3,5.6-2.3
		c0-2-1.4-2.3-3.1-2.3c-1.8,0-3,0.7-3.1,2.6H404.5z M415.4,72.9c-0.8,0.7-2.5,0.7-3.9,1c-1.5,0.3-2.8,0.8-2.8,2.5
		c0,1.8,1.4,2.2,2.9,2.2c3.7,0,3.8-2.9,3.8-4V72.9z"/>
	<path class="st0" d="M435.6,70.2c-0.3-1.9-1.5-3-3.5-3c-3,0-4,3.1-4,5.6c0,2.5,1,5.4,3.9,5.4c2.2,0,3.5-1.4,3.8-3.5h4.6
		c-0.6,4.6-3.8,7.1-8.3,7.1c-5.2,0-8.7-3.7-8.7-8.8c0-5.4,3.2-9.3,8.8-9.3c4.1,0,7.8,2.1,8.1,6.5C440.2,70.2,435.6,70.2,435.6,70.2z
		"/>
	<path class="st0" d="M447.8,61.4h-4.7v-3.9h4.7V61.4z M443.1,64.1h4.7v17.2h-4.7V64.1z"/>
	<path class="st0" d="M459.9,63.6c5.4,0,8.9,3.6,8.9,9.1c0,5.5-3.5,9.1-8.9,9.1c-5.4,0-8.9-3.6-8.9-9.1
		C451,67.2,454.5,63.6,459.9,63.6z M459.9,78.2c3.2,0,4.2-2.8,4.2-5.5c0-2.8-1-5.5-4.2-5.5c-3.2,0-4.2,2.8-4.2,5.5
		C455.8,75.5,456.7,78.2,459.9,78.2z"/>
	<path class="st0" d="M471.9,64.1h4.5v2.4h0.1c1.2-1.9,3.3-2.9,5.3-2.9c5,0,6.3,2.8,6.3,7.1v10.6h-4.7v-9.7c0-2.8-0.8-4.2-3-4.2
		c-2.6,0-3.7,1.4-3.7,4.9v9h-4.7L471.9,64.1L471.9,64.1z"/>
	<path class="st0" d="M495.6,73.9c0.1,3,1.6,4.4,4.2,4.4c1.9,0,3.4-1.2,3.7-2.2h4.2c-1.3,4.1-4.2,5.8-8.1,5.8
		c-5.4,0-8.8-3.7-8.8-9.1c0-5.2,3.6-9.1,8.8-9.1c5.9,0,8.7,4.9,8.4,10.2L495.6,73.9L495.6,73.9z M503.3,70.9
		c-0.4-2.4-1.5-3.7-3.8-3.7c-3,0-3.9,2.3-3.9,3.7H503.3z"/>
	<path class="st0" d="M514.5,75.7c0,2.1,1.8,2.9,3.6,2.9c1.4,0,3.1-0.5,3.1-2.2c0-1.4-2-1.9-5.4-2.7c-2.7-0.6-5.5-1.6-5.5-4.6
		c0-4.4,3.8-5.5,7.5-5.5c3.8,0,7.2,1.3,7.6,5.5H521c-0.1-1.8-1.5-2.3-3.2-2.3c-1.1,0-2.6,0.2-2.6,1.6c0,1.7,2.7,1.9,5.4,2.6
		c2.8,0.6,5.5,1.6,5.5,4.8c0,4.5-3.9,6-7.9,6c-4,0-7.9-1.5-8.1-6.1C510,75.7,514.5,75.7,514.5,75.7z"/>
	<path class="st0" d="M275.9,112.7c-1.9,1.9-4,2.8-6.7,2.8c-4.3,0-7.7-2.6-7.7-7.1c0-3.3,2.5-5.6,5.3-6.9c-1.3-1.6-2.3-3-2.3-5.1
		c0-3.3,3-5.4,6.2-5.4c3.6,0,6.5,1.9,6.5,5.7c0,2.8-1.8,4.7-4.2,5.9l3.1,3.8c0.5-0.9,0.7-1.9,0.9-2.8h4.1c-0.2,2.1-1,4.2-2.3,5.9
		l4.8,5.6h-5.8L275.9,112.7z M269.3,104.6c-1.7,0.7-3.3,2-3.3,3.9c0,1.7,1.6,3.1,3.4,3.1c1.7,0,2.9-0.9,4-2.1L269.3,104.6z
		 M271,94.2c-1.1,0-2.1,0.9-2.1,2.1c0,1.5,1,2.5,1.9,3.6c1.3-0.9,2.4-1.7,2.4-3.4C273.2,95.2,272.2,94.2,271,94.2z"/>
	<path class="st0" d="M294.8,91.3h10.3c6.2,0,10.8,3.9,10.8,11.8c0,6.9-3.5,12-10.8,12h-10.3V91.3z M300,110.7h4.7
		c3,0,5.9-1.9,5.9-7.1c0-4.8-1.7-7.9-6.9-7.9H300V110.7z"/>
	<path class="st0" d="M323.9,95.2h-4.7v-3.9h4.7V95.2z M319.1,97.8h4.7V115h-4.7V97.8z"/>
	<path class="st0" d="M331.3,109.5c0,2.1,1.8,2.9,3.6,2.9c1.4,0,3.1-0.5,3.1-2.2c0-1.4-2-1.9-5.4-2.7c-2.7-0.6-5.5-1.6-5.5-4.6
		c0-4.4,3.8-5.5,7.5-5.5c3.8,0,7.2,1.3,7.6,5.5h-4.5c-0.1-1.8-1.5-2.3-3.2-2.3c-1.1,0-2.6,0.2-2.6,1.6c0,1.7,2.7,1.9,5.4,2.6
		c2.8,0.6,5.5,1.6,5.5,4.8c0,4.5-3.9,6-7.9,6c-4,0-7.9-1.5-8.1-6.1H331.3z"/>
	<path class="st0" d="M349.4,107.6c0.1,3,1.6,4.4,4.2,4.4c1.9,0,3.4-1.2,3.7-2.2h4.2c-1.3,4.1-4.2,5.8-8.1,5.8
		c-5.4,0-8.8-3.7-8.8-9.1c0-5.2,3.6-9.1,8.8-9.1c5.9,0,8.7,4.9,8.4,10.2L349.4,107.6L349.4,107.6z M357.1,104.6
		c-0.4-2.4-1.5-3.7-3.8-3.7c-3,0-3.9,2.3-3.9,3.7H357.1z"/>
	<path class="st0" d="M364.6,97.8h4.5v2.4h0.1c1.2-1.9,3.3-2.9,5.3-2.9c5,0,6.3,2.8,6.3,7.1v10.6h-4.7v-9.7c0-2.8-0.8-4.2-3-4.2
		c-2.6,0-3.7,1.4-3.7,4.9v9h-4.7V97.8z M378.8,91.3c-0.2,0.8-0.5,1.7-1,2.5s-1.3,1.3-2.7,1.3c-1,0-1.9-0.3-2.7-0.6
		c-0.8-0.3-1.6-0.6-2.3-0.6c-0.9,0-1.2,0.6-1.4,1.4h-2c0.4-1.9,1.3-4.1,4.2-4.1c0.8,0,1.4,0.3,2.1,0.6c0.7,0.3,1.4,0.6,2.2,0.6
		c1,0,1.4-0.5,1.4-1.2H378.8z"/>
	<path class="st0" d="M392.8,97.4c5.4,0,8.9,3.6,8.9,9.1c0,5.5-3.5,9.1-8.9,9.1c-5.4,0-8.9-3.6-8.9-9.1
		C383.9,101,387.4,97.4,392.8,97.4z M392.8,112c3.2,0,4.2-2.8,4.2-5.5c0-2.8-1-5.5-4.2-5.5c-3.2,0-4.2,2.8-4.2,5.5
		C388.6,109.2,389.6,112,392.8,112z"/>
</g>
</svg>
