<?xml version="1.0" encoding="utf-8"?>
<!-- Generator: Adobe Illustrator 24.0.0, SVG Export Plug-In . SVG Version: 6.00 Build 0)  -->
<svg version="1.1" id="Layer_1" xmlns="http://www.w3.org/2000/svg" xmlns:xlink="http://www.w3.org/1999/xlink" x="0px" y="0px"
	 viewBox="0 0 257.54 130" style="enable-background:new 0 0 257.54 130;" xml:space="preserve">
<style type="text/css">
	.st0{fill:#3A414D;}
</style>
<g>
	<path class="st0" d="M6.34,40.58C4,47.98,2.71,56.1,2.71,64.66v0.24c-0.09,34.84,20.64,62.28,45.33,62.31
		c24.67,0.03,45.47-27.32,45.52-62.16v-0.24c0.03-8.62-1.27-16.79-3.63-24.24c-6.97-22.45-23.19-37.8-41.72-37.8
		C29.69,2.71,13.39,18.04,6.34,40.58 M1.13,64.66c0-8.72,1.36-17.01,3.73-24.55C12.03,17.23,28.77,1.17,48.23,1.2
		c19.42,0.03,36.08,16.07,43.22,38.93c2.37,7.6,3.66,15.95,3.66,24.7v0.24c-0.03,35.23-21.13,63.76-47.07,63.72
		c-25.96-0.05-46.97-28.66-46.91-63.89V64.66z"/>
	<path class="st0" d="M45.03,9.72c-0.58-2.32-2.32-3.32-4.94-2.68c-2.08,0.53-2.67,0.84-2.87,1.02c-0.1,0.12-0.1,0.26,0,0.36
		l0.96-0.12l1.51,6.09l-0.62,0.33c-0.24,0.14-0.31,0.33-0.19,0.55c0.24-0.03,1.05-0.29,1.6-0.41c0.6-0.17,1.39-0.29,1.74-0.4
		C44.72,13.83,45.56,11.93,45.03,9.72 M42.18,13.81c-0.67,0.19-1.03,0.24-1.46,0.24L39.2,7.86c2.74-0.67,4.25,0.17,4.82,2.51
		C44.46,12.18,43.53,13.48,42.18,13.81"/>
	<path class="st0" d="M58.98,11.59c0.69-2.18-0.03-3.7-2.01-4.32c-2.29-0.76-4.27,0.5-5.08,2.94c-0.64,2.06-0.07,3.7,1.89,4.37
		C56.08,15.31,58.11,14.22,58.98,11.59 M57.75,11.73c-0.65,1.98-1.93,2.67-3.32,2.22c-1.36-0.45-2.01-1.75-1.24-3.94
		c0.53-1.74,1.72-2.63,3.18-2.13C58.07,8.41,58.31,9.99,57.75,11.73"/>
	<path class="st0" d="M64.45,19.66c-0.31-0.48-0.48-0.96-0.55-1.72L63.59,15c1.03,0.19,1.98-0.29,2.46-1.1
		c0.67-1.05,0.26-2.27-1.12-3.13c-1.7-1.07-2.41-1.41-2.63-1.07c-0.03,0.03-0.03,0.09-0.07,0.12l0.74,0.6l-3.34,5.33l-0.71-0.19
		c-0.22-0.07-0.43,0.02-0.5,0.26c0.43,0.24,0.74,0.43,1.14,0.69c0.45,0.26,0.79,0.5,1.2,0.76c0.22,0.15,0.5,0.1,0.65-0.09
		l-0.91-0.83l1.32-2.1l0.71,0.45l0.17,3.06c0.1,1.17,0.36,1.51,0.95,1.86C63.96,19.8,64.23,19.81,64.45,19.66 M64.99,13.52
		c-0.57,0.93-1.46,1.19-2.43,0.55c-0.14-0.1-0.29-0.19-0.41-0.28l1.82-2.92c0.15,0.09,0.34,0.17,0.46,0.28
		C65.47,11.78,65.47,12.76,64.99,13.52"/>
	<path class="st0" d="M25.08,23.34c-0.96-0.83-1.77-0.6-2.99,0.14c-0.96,0.53-1.69,0.74-2.2,0.28c-0.52-0.43-0.46-1.26,0-1.79
		c0.33-0.41,0.65-0.71,0.98-0.91l0.84,0.72c0.31-0.22,0.4-0.55,0.05-0.88l-0.89-0.88c-0.34,0.26-0.93,0.81-1.38,1.31
		c-0.86,1.03-1.05,2.58,0.05,3.49c0.64,0.52,1.46,0.52,2.55-0.1c1.51-0.84,2.13-0.79,2.63-0.34c0.41,0.34,0.58,1.26,0.03,1.94
		c-0.72,0.88-1.41,1.02-2.25,0.29c-0.33,0.41-0.36,0.93,0.03,1.26c0.76,0.62,1.69,0.19,2.53-0.83
		C26.06,25.9,26.07,24.17,25.08,23.34"/>
	<path class="st0" d="M28.41,15.62l-1.58-1.43c-0.43,0.62-1.43,1.53-2.13,2.2c-0.69,0.67-1.46,1.32-2.36,2.18l1.29,1.69
		c0.29-0.19,0.38-0.36,0.09-1.08l-0.33-0.65c0.38-0.36,0.84-0.79,1.26-1.19L29,21.86l-0.45,0.71c-0.15,0.19-0.09,0.41,0.15,0.53
		c0.21-0.24,0.65-0.67,1.12-1.12c0.38-0.4,0.72-0.69,0.96-0.91c0.26-0.19,0.26-0.43,0.05-0.67l-1.02,0.71l-4.35-4.52
		c0.55-0.52,0.96-0.86,1.27-1.26l0.91,0.5C27.97,16.03,28.19,15.99,28.41,15.62"/>
	<path class="st0" d="M34.71,8.98l-1.91,1.12c-0.34,0.21-0.4,0.48-0.24,0.69l0.88-0.33l1.27,5.66l-4.42-3.82l0.53-0.38
		c0.34-0.26,0.31-0.58,0.21-0.79l-2.17,1.24c-0.33,0.19-0.46,0.55-0.26,0.81l0.69-0.29l5.73,4.97c0.48-0.34,0.65-0.79,0.53-1.51
		l-1.34-6.23C34.9,9.82,35.04,9.47,34.71,8.98"/>
	<path class="st0" d="M49.75,13.12l-1.12-0.22l0.14-6.37l0.55-0.03c0.38-0.02,0.52-0.14,0.48-0.53c-2.24-0.05-2.39-0.05-2.39-0.05
		c-0.45,0-0.67,0.15-0.62,0.52l0.89,0.1l-0.12,6.37l-0.71,0.12c-0.34,0.09-0.43,0.26-0.36,0.48c0.33-0.02,0.88,0,1.41,0.02
		c0.5,0,0.96,0,1.27,0.03C49.5,13.59,49.71,13.4,49.75,13.12"/>
	<path class="st0" d="M74.17,18.44l-1.6-1.53c-0.29-0.28-0.58-0.24-0.71,0l0.55,0.71l-5.06,2.79l2.43-5.32l0.52,0.41
		c0.33,0.28,0.65,0.17,0.83-0.02l-1.79-1.75c-0.29-0.24-0.65-0.29-0.83-0.03L69,14.27l-3.27,6.9c0.52,0.34,0.96,0.36,1.58,0.07
		l5.66-2.96C73.42,18.85,73.8,18.9,74.17,18.44"/>
	<path class="st0" d="M74.35,31.12l-0.33-0.84l4.85-4.04c0.6,0.65,0.89,0.76,1.14,0.48l-1.19-1.79l-6.18,1.55l3.7-5.25L75.52,20
		c-0.26-0.4-0.57-0.4-0.76-0.15l0.33,0.95l-5.49,2.87l-0.53-0.46c-0.21-0.15-0.45-0.12-0.55,0.05c0.21,0.26,0.46,0.64,0.71,1.02
		c0.24,0.34,0.46,0.71,0.65,0.98c0.14,0.28,0.36,0.36,0.64,0.19l-0.43-1.05l4.42-2.49l-3.58,5.11c0.29,0.26,0.69,0.4,1.15,0.31
		l5.45-1.39l-4.11,3.48l-0.55-0.52c-0.19-0.17-0.45-0.1-0.55,0.03c0.22,0.29,0.46,0.67,0.71,1.03c0.26,0.38,0.46,0.72,0.64,0.96
		C73.81,31.12,74.02,31.29,74.35,31.12"/>
	<path class="st0" d="M12.77,98.01l1.15,1.88c0.21,0.36,0.48,0.4,0.65,0.21l-0.31-0.86l5.61-1.36l-3.73,4.49l-0.4-0.52
		c-0.26-0.36-0.58-0.36-0.79-0.21l1.26,2.15c0.21,0.31,0.57,0.45,0.79,0.24l-0.28-0.69l4.89-5.85c-0.36-0.45-0.84-0.64-1.51-0.46
		l-6.21,1.41C13.6,97.8,13.22,97.68,12.77,98.01"/>
	<path class="st0" d="M9.49,88.94l0.72,1.96c0.14,0.4,0.43,0.57,0.74,0.38l-0.26-0.93l5.01-1.79l-4.08,6.28L12,95.87
		c0.17,0.46,0.53,0.5,0.69,0.31l-0.14-0.93l5.87-2.13l0.4,0.58c0.17,0.21,0.38,0.21,0.53,0.09c-0.14-0.29-0.29-0.71-0.43-1.12
		c-0.15-0.46-0.29-0.89-0.41-1.2c-0.09-0.28-0.34-0.34-0.58-0.28l0.21,1.12L13.45,94l3.56-5.4c0.31-0.48,0.36-0.74,0.28-0.98
		c-0.09-0.15-0.15-0.34-0.26-0.45l-6.59,2.39l-0.24-0.43C10.04,88.82,9.83,88.77,9.49,88.94"/>
	<path class="st0" d="M14.74,82.5l0.12,1.08L8.7,85.24l-0.21-0.52c-0.14-0.34-0.29-0.43-0.64-0.31c0.57,2.17,0.62,2.32,0.62,2.32
		c0.1,0.43,0.34,0.6,0.65,0.43l-0.15-0.88l6.16-1.63l0.33,0.64c0.21,0.31,0.41,0.34,0.58,0.21c-0.09-0.33-0.24-0.84-0.38-1.34
		c-0.14-0.5-0.26-0.96-0.29-1.26C15.23,82.59,15.05,82.4,14.74,82.5"/>
	<path class="st0" d="M6.49,76.17l0.41,2.2c0.03,0.41,0.33,0.52,0.57,0.43l-0.02-0.93l5.76,0.72l-5.11,2.87l-0.19-0.62
		c-0.12-0.43-0.43-0.53-0.69-0.48l0.46,2.46c0.03,0.4,0.33,0.64,0.64,0.5L8.3,82.63l6.66-3.68c-0.19-0.57-0.55-0.89-1.22-1
		l-6.35-0.89C7.37,76.31,7.08,76.05,6.49,76.17"/>
	<path class="st0" d="M11.54,68.79c-0.09,0.31,0.02,0.6,0.52,0.72l0.86,0.24l0.15,2.8l-2.77,0.29l-0.21-2.1l0.79-0.03
		c0.05-0.31-0.14-0.67-0.58-0.64c-0.52,0.05-0.96,0.09-1.65,0.14c-0.07,0.12-0.03,0.38,0.12,0.48c0.15,0.15,0.28,0.15,0.64,0.1
		l0.24,2.12L6.87,73.2L6.7,70.62l1.1-0.28c0.07-0.33-0.1-0.62-0.48-0.55l-1.41,0.22l0.43,4.01c0.1,1.15,0.33,1.2,0.64,1.1
		l-0.02-0.86l6.31-0.64l0.22,0.6c0.09,0.24,0.34,0.31,0.53,0.22l-0.57-5.44L11.54,68.79z"/>
	<path class="st0" d="M13.38,61.14c-0.21,0.53-0.5,0.95-1.12,1.43l-2.32,1.86c-0.41-0.98-1.31-1.5-2.25-1.48
		C6.44,63,5.63,63.98,5.67,65.59c0.03,2.01,0.14,2.8,0.53,2.79c0.03,0,0.07,0,0.14-0.02l0.09-0.95l6.3-0.12l0.22,0.72
		c0.03,0.22,0.26,0.33,0.46,0.28c-0.03-0.52-0.03-0.83-0.03-1.34c-0.02-0.46,0-0.91-0.02-1.41c0-0.26-0.17-0.46-0.45-0.5l-0.15,1.22
		l-2.51,0.03v-0.83l2.48-1.86c0.91-0.74,1.07-1.12,1.05-1.81C13.79,61.48,13.63,61.26,13.38,61.14 M7.97,64.03
		c1.08,0.02,1.79,0.64,1.81,1.77c0,0.17,0,0.33-0.03,0.48l-3.44,0.05c-0.02-0.19-0.03-0.4-0.03-0.52
		C6.24,64.56,7.08,64.05,7.97,64.03"/>
	<path class="st0" d="M11.76,55.67c-1.29-0.05-1.75,0.65-2.29,2.01c-0.38,1.03-0.79,1.6-1.53,1.6c-0.65-0.02-1.1-0.67-1.1-1.38
		c0-0.55,0.1-1.02,0.22-1.38l1.1,0.05c0.09-0.36-0.03-0.69-0.53-0.71l-1.2-0.15c-0.14,0.43-0.24,1.22-0.26,1.91
		c-0.03,1.34,0.79,2.65,2.2,2.68c0.86,0,1.48-0.52,1.96-1.7c0.64-1.62,1.1-1.93,1.81-1.93c0.53,0.03,1.26,0.64,1.24,1.48
		c-0.02,1.19-0.46,1.7-1.58,1.67c0,0.52,0.31,0.95,0.83,0.96c0.98,0.02,1.45-0.95,1.48-2.22C14.12,57.04,13.07,55.68,11.76,55.67"/>
	<path class="st0" d="M14.22,52.05l-0.38,1.07L7.58,52l0.02-0.58c0.05-0.36-0.03-0.55-0.43-0.55c-0.38,2.2-0.4,2.39-0.4,2.39
		c-0.09,0.41,0.02,0.65,0.38,0.65l0.24-0.88l6.24,1.08l0.03,0.76c0.02,0.36,0.19,0.45,0.45,0.41c0.02-0.34,0.12-0.88,0.21-1.39
		c0.09-0.52,0.19-0.96,0.26-1.26C14.68,52.33,14.53,52.09,14.22,52.05"/>
	<path class="st0" d="M10.8,43.56l-2.12-0.34c-0.05,0.74-0.4,2.06-0.64,2.99c-0.24,0.95-0.57,1.88-0.86,3.06l1.98,0.79
		c0.19-0.33,0.15-0.52-0.5-0.96l-0.57-0.4c0.1-0.5,0.28-1.12,0.43-1.67l6.07,1.51v0.84c-0.03,0.22,0.14,0.4,0.38,0.4
		c0.07-0.34,0.22-0.96,0.38-1.55c0.12-0.5,0.29-1,0.34-1.29c0.1-0.31-0.02-0.5-0.31-0.62l-0.52,1.17l-6.09-1.53
		c0.21-0.76,0.38-1.24,0.41-1.74l1.02-0.03C10.62,44.16,10.8,44,10.8,43.56"/>
	<path class="st0" d="M18.47,37.91l-0.5,0.77l-7.6-0.09c-0.07,0.15-0.14,0.28-0.19,0.43c-0.15,0.36-0.05,0.64,0.28,0.89l5.25,4.58
		l-0.05,0.6c-0.02,0.19,0.17,0.36,0.36,0.36c0.1-0.31,0.24-0.69,0.4-1.05c0.14-0.43,0.33-0.86,0.46-1.17c0.12-0.29,0-0.5-0.21-0.62
		l-0.58,1.03l-1.89-1.55l0.95-2.39l2.39,0.09l-0.14,0.91c0,0.26,0.15,0.36,0.33,0.36c0.09-0.31,0.28-0.79,0.46-1.24
		c0.19-0.53,0.4-1,0.52-1.31C18.8,38.24,18.69,38.02,18.47,37.91 M14.39,39.72l-0.76,2l-2.58-2.15L14.39,39.72z"/>
	<path class="st0" d="M19.26,32.17c-1.1-0.58-1.86-0.21-2.94,0.77c-0.79,0.76-1.43,1.08-2.1,0.72c-0.55-0.29-0.71-1.1-0.36-1.72
		c0.26-0.48,0.53-0.84,0.81-1.12l0.96,0.55c0.21-0.28,0.28-0.62-0.14-0.86l-1.03-0.67c-0.29,0.34-0.77,0.96-1.08,1.6
		c-0.62,1.14-0.5,2.74,0.76,3.39c0.76,0.4,1.55,0.21,2.49-0.64c1.29-1.15,1.91-1.2,2.51-0.88c0.45,0.26,0.83,1.12,0.4,1.89
		c-0.5,1.02-1.15,1.27-2.12,0.76c-0.24,0.45-0.17,0.98,0.29,1.2c0.86,0.46,1.7-0.19,2.32-1.29C20.77,34.49,20.45,32.8,19.26,32.17"
		/>
	<path class="st0" d="M79.54,42.64l-0.21-0.93l5.54-5.23c-0.03-0.15-0.07-0.29-0.14-0.45c-0.17-0.36-0.41-0.46-0.77-0.46l-7,0.41
		l-0.36-0.5c-0.15-0.14-0.36-0.12-0.55,0c0.19,0.28,0.34,0.64,0.48,1.02c0.15,0.43,0.36,0.86,0.45,1.17
		c0.14,0.28,0.36,0.36,0.57,0.29l-0.24-1.14l2.41-0.21l0.98,2.36l-1.79,1.6l-0.5-0.72c-0.17-0.21-0.38-0.17-0.53-0.07
		c0.19,0.31,0.36,0.76,0.55,1.22c0.22,0.52,0.4,1,0.55,1.29C79.06,42.59,79.28,42.73,79.54,42.64 M81.18,38.55l-0.81-1.98l3.37-0.28
		L81.18,38.55z"/>
	<path class="st0" d="M88.66,48.94l-0.55-2.01c-0.1-0.43-0.36-0.58-0.67-0.43l0.19,0.91l-5.14,1.36l4.58-5.9l-0.28-1.07
		c-0.17-0.48-0.48-0.53-0.67-0.38l0.09,0.98L80.16,44l-0.34-0.62c-0.15-0.26-0.36-0.26-0.53-0.12c0.12,0.29,0.22,0.71,0.34,1.17
		c0.12,0.46,0.21,0.88,0.29,1.22c0.09,0.29,0.31,0.38,0.55,0.34l-0.09-1.15l4.8-1.29l-4.03,5.09c-0.36,0.45-0.43,0.71-0.36,0.96
		c0.05,0.17,0.14,0.33,0.22,0.46l6.8-1.82l0.17,0.45C88.13,49.01,88.28,49.08,88.66,48.94"/>
	<path class="st0" d="M86.42,58.01c2.41-0.34,3.56-1.98,3.18-4.59c-0.29-2.12-0.52-2.75-0.69-2.96c-0.09-0.12-0.24-0.12-0.34-0.03
		v0.96l-6.21,0.86l-0.26-0.64c-0.1-0.28-0.29-0.36-0.55-0.26c0.05,0.24,0.19,1.05,0.28,1.6c0.05,0.64,0.14,1.43,0.17,1.77
		C82.36,57.28,84.17,58.33,86.42,58.01 M82.64,54.79c-0.1-0.72-0.1-1.08-0.09-1.5l6.31-0.86c0.4,2.79-0.6,4.2-2.98,4.54
		C84.07,57.22,82.85,56.15,82.64,54.79"/>
	<path class="st0" d="M83.19,63.2l0.14-1.12l6.35-0.33l0.09,0.57c0.03,0.36,0.17,0.52,0.57,0.41c-0.14-2.2-0.14-2.39-0.14-2.39
		c-0.02-0.43-0.19-0.64-0.55-0.53l-0.02,0.88l-6.35,0.33l-0.17-0.71c-0.1-0.33-0.33-0.38-0.53-0.33c0.03,0.36,0.07,0.89,0.1,1.45
		c0,0.5,0.03,0.95,0.03,1.27C82.67,63.01,82.91,63.2,83.19,63.2"/>
	<path class="st0" d="M90.04,72.75l0.1-2.05c0.03-0.46-0.15-0.69-0.52-0.64l-0.14,0.91l-5.28-0.29l6.18-4.16l0.03-1.12
		c0.03-0.52-0.26-0.67-0.5-0.57l-0.21,0.96l-6.21-0.36l-0.17-0.69c-0.05-0.26-0.26-0.34-0.43-0.28c-0.02,0.31-0.02,0.74-0.05,1.2
		c-0.02,0.46-0.07,0.91-0.09,1.22c-0.03,0.31,0.17,0.46,0.41,0.52l0.26-1.12l4.97,0.26l-5.37,3.6c-0.48,0.33-0.62,0.53-0.64,0.77
		c-0.03,0.17,0,0.4,0.05,0.52l7.02,0.4l0.05,0.46C89.49,72.65,89.64,72.77,90.04,72.75"/>
	<path class="st0" d="M83.19,79.12c0.19-0.29,0.14-0.6-0.28-0.83l-0.79-0.48l0.57-2.77l2.75,0.45l-0.33,2.06l-0.76-0.15
		c-0.1,0.28-0.05,0.69,0.4,0.74c0.5,0.1,0.95,0.19,1.65,0.33c0.09-0.1,0.14-0.36,0.02-0.5c-0.12-0.19-0.24-0.24-0.6-0.29l0.31-2.06
		l2.75,0.43l-0.5,2.53l-1.14-0.02c-0.1,0.28-0.03,0.6,0.29,0.64l1.43,0.14l0.65-3.96c0.17-1.12,0-1.24-0.38-1.2l-0.21,0.83
		l-6.24-0.98l-0.05-0.65c-0.02-0.28-0.24-0.4-0.43-0.34l-0.88,5.4L83.19,79.12z"/>
	<path class="st0" d="M86.58,89.42l0.53-1.96c0.12-0.43-0.02-0.71-0.4-0.72l-0.33,0.86l-5.11-1.38l6.93-2.82l0.29-1.07
		c0.15-0.52-0.12-0.72-0.38-0.69l-0.41,0.91l-6-1.65l0.02-0.71c0-0.28-0.19-0.41-0.41-0.38c-0.05,0.29-0.15,0.74-0.31,1.17
		c-0.1,0.45-0.24,0.86-0.33,1.19c-0.1,0.29,0.09,0.5,0.31,0.58l0.52-1.03l4.78,1.29l-6.02,2.39c-0.52,0.22-0.72,0.4-0.79,0.65
		c-0.03,0.17-0.07,0.38-0.03,0.5l6.76,1.86l-0.05,0.45C86.06,89.25,86.2,89.4,86.58,89.42"/>
	<path class="st0" d="M79.28,93.27c1.15,0.45,1.86,0.02,2.82-1.07c0.71-0.83,1.32-1.2,2-0.95c0.6,0.24,0.79,1.02,0.55,1.7
		c-0.22,0.5-0.45,0.89-0.69,1.19l-1.02-0.46c-0.19,0.31-0.22,0.67,0.21,0.88l1.12,0.58c0.28-0.41,0.64-1.07,0.89-1.72
		c0.5-1.22,0.22-2.74-1.08-3.27c-0.77-0.33-1.58-0.07-2.41,0.89c-1.19,1.27-1.79,1.38-2.41,1.12c-0.48-0.19-0.95-1-0.65-1.81
		c0.46-1.08,1.07-1.41,2.08-0.98c0.22-0.48,0.09-1.02-0.4-1.2c-0.93-0.36-1.69,0.36-2.17,1.57C77.55,91.14,78.05,92.76,79.28,93.27"
		/>
	<path class="st0" d="M76.07,95.91l0.71-0.88l5.59,2.99l-0.21,0.52c-0.17,0.36-0.1,0.53,0.24,0.67c1.07-1.96,1.15-2.1,1.15-2.1
		c0.19-0.41,0.15-0.69-0.17-0.79l-0.52,0.76l-5.59-2.99l0.17-0.69c0.1-0.36-0.03-0.53-0.26-0.57c-0.14,0.33-0.38,0.81-0.65,1.27
		c-0.22,0.46-0.45,0.84-0.6,1.12C75.76,95.49,75.83,95.79,76.07,95.91"/>
	<path class="st0" d="M74.73,101.76c1.1,0.65,1.84,0.33,2.99-0.58c0.88-0.69,1.53-0.95,2.15-0.57c0.53,0.33,0.62,1.19,0.24,1.77
		c-0.31,0.45-0.6,0.77-0.88,1.03l-0.95-0.6c-0.22,0.28-0.31,0.6,0.09,0.88l0.96,0.74c0.33-0.29,0.83-0.93,1.19-1.51
		c0.72-1.1,0.69-2.67-0.52-3.42c-0.69-0.46-1.53-0.33-2.53,0.45c-1.36,1.05-1.98,1.08-2.56,0.69c-0.43-0.28-0.72-1.15-0.28-1.91
		c0.6-0.96,1.26-1.19,2.18-0.6c0.28-0.45,0.26-0.96-0.19-1.22c-0.83-0.53-1.72,0.05-2.41,1.15
		C73.42,99.33,73.64,101.02,74.73,101.76"/>
	<path class="st0" d="M35.64,119.22c-0.29-0.33-0.55-0.22-0.74-0.03l-0.65,0.6c-0.4,0-0.96-0.19-1.55-0.5
		c-1.34-0.71-1.89-2.13-0.69-4.37c0.89-1.75,2.43-2.03,3.92-1.24c0.46,0.26,0.89,0.55,1.08,0.79l-0.58,0.95
		c0.26,0.28,0.53,0.26,0.86-0.14L38,114.3c-0.28-0.31-0.84-0.79-1.53-1.19c-2.17-1.14-4.47-0.57-5.66,1.67
		c-1.2,2.22-0.64,3.96,1.26,4.95c0.98,0.53,1.82,0.65,2.58,0.71L35.64,119.22z"/>
	<path class="st0" d="M44.76,123.79l-1.02-0.46l1.55-6.18l0.5,0.1c0.4,0,0.58-0.02,0.65-0.4c-2.17-0.53-2.31-0.58-2.31-0.58
		c-0.43-0.1-0.67-0.02-0.71,0.36l0.88,0.26l-0.69,2.68l-4.03-0.98l0.67-2.68l0.58,0.1c0.4,0.03,0.58-0.02,0.64-0.4
		c-2.18-0.55-2.41-0.62-2.41-0.62c-0.46-0.1-0.71-0.02-0.71,0.34l0.86,0.28l-1.57,6.19h-0.76c-0.28,0-0.43,0.19-0.38,0.4
		c0.33,0.09,0.89,0.19,1.46,0.34c0.5,0.12,0.88,0.21,1.12,0.29c0.29,0.1,0.6,0.03,0.71-0.28l-1.12-0.5l0.72-2.84l4.01,0.98
		l-0.71,2.87h-0.79c-0.28,0-0.4,0.19-0.4,0.4c0.38,0.07,0.95,0.21,1.53,0.36c0.43,0.09,0.83,0.19,1.12,0.28
		C44.43,124.17,44.65,124.07,44.76,123.79"/>
	<path class="st0" d="M51.07,123.78l-1.14-0.14l-0.31-6.37l0.53-0.09c0.41-0.02,0.55-0.15,0.46-0.52c-2.24,0.1-2.39,0.1-2.39,0.1
		c-0.45,0-0.67,0.19-0.57,0.53l0.91,0.03l0.31,6.35l-0.69,0.19c-0.34,0.1-0.4,0.31-0.33,0.52c0.33-0.05,0.88-0.07,1.43-0.1
		c0.5-0.02,0.93-0.05,1.26-0.03C50.86,124.26,51.09,124.07,51.07,123.78"/>
	<path class="st0" d="M59.33,120.06c-0.31-0.03-0.58,0.14-0.62,0.53l-0.05,1.02l-2.75,0.69l-1.81-6l0.64-0.26
		c0.34-0.14,0.5-0.29,0.34-0.65c-2.29,0.71-2.41,0.74-2.41,0.74c-0.41,0.14-0.6,0.36-0.41,0.67l0.83-0.15l1.88,6.04l-0.58,0.4
		c-0.22,0.14-0.22,0.36-0.1,0.5l5.25-1.55L59.33,120.06z"/>
	<path class="st0" d="M65.56,116.59c-0.33,0.02-0.53,0.24-0.45,0.74l0.14,0.88l-2.51,1.31l-1.39-2.43l1.82-1.05l0.36,0.69
		c0.29-0.07,0.57-0.38,0.34-0.76c-0.26-0.45-0.46-0.86-0.81-1.5c-0.12,0-0.38,0.12-0.38,0.28c-0.09,0.24,0,0.36,0.17,0.69
		l-1.84,1.08l-1.39-2.41l2.27-1.2l0.74,0.88c0.26-0.09,0.48-0.36,0.26-0.65l-0.76-1.2l-3.46,2c-1.05,0.6-0.98,0.76-0.74,1.05
		l0.79-0.36l3.13,5.45l-0.45,0.48c-0.19,0.19-0.15,0.45,0,0.57l4.73-2.74L65.56,116.59z"/>
	<path class="st0" d="M22.65,108.24c-0.02-0.86,0.69-1.58,1.58-1.58c0.84,0.02,1.58,0.71,1.58,1.58c0.02,0.89-0.72,1.6-1.58,1.58
		C23.34,109.84,22.65,109.12,22.65,108.24"/>
	<path class="st0" d="M70.3,108.33c0-0.89,0.69-1.58,1.58-1.58c0.88,0,1.57,0.72,1.57,1.58c0,0.88-0.72,1.6-1.58,1.58
		C71.01,109.91,70.29,109.21,70.3,108.33"/>
	<path class="st0" d="M79.56,64.78c0.02-7.19-1.07-13.95-2.98-20.01C70.61,25.59,58.26,16.77,48.2,16.75
		c-10.08-0.02-22.49,8.81-28.51,28.02c-1.88,6-2.99,13.02-3.01,20.16c-0.03,31.33,18.06,48.26,31.36,48.27
		C61.38,113.25,79.53,96.13,79.56,64.78 M47.58,64.44l-29.8-0.05c0.09-6.85,1.15-13.52,2.94-19.3
		c5.83-18.58,17.57-26.94,26.92-27.23L47.58,64.44z M47.51,112.11c-12.35-0.48-29.57-16.4-29.73-46.62l29.8,0.03L47.51,112.11z
		 M48.66,65.56l29.78,0.03c-0.31,30.07-17.51,46.07-29.87,46.54L48.66,65.56z M78.46,64.48l-29.8-0.02l0.09-46.57
		c9.34,0.33,21.01,8.69,26.77,27.23C77.37,50.94,78.48,57.51,78.46,64.48"/>
	<path class="st0" d="M61.68,85.58l8.33,0.02c0.17-0.02,0.46-0.1,0.5-0.55v-9.17c0-0.24,0.02-0.45,0.5-0.43
		c0.4,0,0.45,0.24,0.45,0.45l-0.02,9.81c0,0.91-0.81,0.79-0.81,0.79l-8.93-0.02l-8.91-0.02c0,0-0.83,0.12-0.81-0.83L52,75.86
		c0-0.24,0.02-0.45,0.45-0.45c0.45,0,0.45,0.19,0.45,0.43v9.19c0.05,0.43,0.34,0.5,0.52,0.53L61.68,85.58z"/>
	<path class="st0" d="M61.68,84l6.47,0.02c0.96,0,0.89-0.45,0.55-0.65c-1.84-0.69-4.59-0.81-6.18-0.02
		c-0.62,0.36-0.53-0.28-0.53-0.52l0.03-8.22c0-0.45,0.52-1.72,5.13-1.55c2.49,0.1,2.53,0.57,2.53,0.91l-0.03,10.1
		c0,0.83-0.74,0.76-0.74,0.76h-7.19l-7.17-0.02c0,0-0.76,0.03-0.76-0.76l0.03-10.13c0-0.33,0-0.79,2.51-0.88
		c4.65-0.14,5.14,1.1,5.14,1.55l-0.02,8.22c0,0.26,0.1,0.88-0.53,0.55c-1.6-0.83-4.34-0.71-6.18-0.02
		c-0.38,0.19-0.43,0.62,0.55,0.64L61.68,84z"/>
	<path class="st0" d="M71.51,47.1c-0.15-0.24-0.57,0.02-0.95,0c-1.12-0.07-1.77-0.58-2.86-0.74c-0.33-0.09-0.67-0.21-0.83-0.26
		c1.41-0.52,2.25-2.24,1.48-2.6c-0.21-0.14-0.41,0.33-0.71,0.5c-0.81,0.52-1.5-0.07-2.36,0.43c0.41-0.4,0.5-0.77,0.77-1.39
		c0.46-1.02,1.19-2.87,0.43-2.87c-0.28-0.02-0.33,0.48-0.57,0.74c-0.76,0.86-1.57,1.03-2.31,1.77c-0.24,0.21-0.5,0.38-0.62,0.52
		c0.36-1.43-0.52-3.13-1.27-2.74c-0.24,0.12,0.02,0.53,0,0.88c-0.09,0.93-0.93,1.17-1.05,2.05c-0.05-0.53-0.33-0.86-0.65-1.41
		c-0.55-0.98-1.6-2.65-2.08-2.05c-0.17,0.21,0.17,0.55,0.26,0.91c0.26,1.05-0.09,1.84,0.07,2.82c0,0.21,0.05,0.43,0.09,0.64
		c-0.86-1.12-2.63-1.5-2.82-0.69c-0.05,0.26,0.45,0.33,0.71,0.57c0.65,0.67,0.29,1.43,0.89,2.12c-0.46-0.31-0.89-0.31-1.51-0.41
		c-1.14-0.21-3.08-0.46-2.92,0.28c0.07,0.28,0.55,0.22,0.88,0.38c0.98,0.52,1.38,1.26,2.2,1.79c0.17,0.14,0.34,0.26,0.55,0.36
		c-1.43-0.02-2.84,1.15-2.31,1.79c0.17,0.22,0.52-0.14,0.86-0.19c0.91-0.1,1.34,0.67,2.22,0.58c-0.52,0.21-0.77,0.52-1.26,0.96
		c-0.84,0.77-2.27,2.12-1.55,2.48c0.24,0.12,0.48-0.31,0.83-0.46c1-0.46,1.82-0.31,2.75-0.65c0.19-0.07,0.45-0.14,0.62-0.21
		c-0.96,1.08-0.95,2.89-0.12,2.91c0.29,0,0.26-0.52,0.41-0.79c0.52-0.79,1.38-0.58,1.88-1.34c-0.19,0.52-0.09,0.95-0.05,1.58
		c0.03,1.1,0.17,3.08,0.88,2.75c0.26-0.1,0.1-0.55,0.17-0.93c0.29-1.05,0.96-1.6,1.27-2.51c0.09-0.21,0.19-0.4,0.24-0.65
		c0.21,1.46,1.7,2.67,2.22,2.03c0.19-0.24-0.24-0.5-0.36-0.83c-0.33-0.86,0.38-1.43,0.12-2.34c0.31,0.52,0.67,0.71,1.19,1.08
		c0.91,0.67,2.55,1.77,2.74,1.02c0.09-0.26-0.38-0.43-0.6-0.72c-0.69-0.88-0.72-1.72-1.2-2.55c-0.15-0.26-0.28-0.52-0.31-0.65
		c1.31,0.79,3.25,0.41,3.05-0.45c-0.03-0.26-0.53-0.1-0.86-0.26c-0.86-0.31-0.88-1.15-1.65-1.55c0.52,0.03,0.88-0.12,1.5-0.28
		C70.08,48.27,71.96,47.72,71.51,47.1 M66.79,48.67c0.02,2.61-2.13,4.73-4.71,4.71c-2.61-0.02-4.71-2.12-4.71-4.71
		c0.02-2.61,2.13-4.73,4.73-4.73C64.68,43.93,66.81,46.05,66.79,48.67"/>
	<path class="st0" d="M58.28,48.67c0.02-2.12,1.72-3.8,3.82-3.78s3.78,1.69,3.77,3.78c0.02,2.12-1.7,3.78-3.78,3.78
		C59.98,52.43,58.28,50.75,58.28,48.67"/>
	<path class="st0" d="M30.6,74.37l1.1-1.07h-0.81c-0.31,0-0.58,0.26-0.58,0.55C30.31,74.06,30.44,74.28,30.6,74.37 M36.83,74.37
		c0.14-0.1,0.28-0.29,0.28-0.52c0-0.31-0.24-0.57-0.58-0.57l-0.81-0.02L36.83,74.37z M33.68,71.91c0.36,0,0.67,0.03,0.91,0.19
		c0.41,0.22,0.6,0.52,0.6,0.52l1.69-0.02c0,0,0.81,0.03,1.07,0.81c0.26,0.86-0.58,1.6-0.58,1.6c0.38,0.33,3.51,3.42,3.89,3.82
		c0.53,0.52,0.79,1.36,0.55,2.37c-0.1,0.55-0.52,0.74-0.86,0.48c-0.24-0.19-4.39-5.42-4.39-5.42s-0.15-0.17-0.24-0.1
		c-0.1,0.07-0.03,0.17,0.02,0.29c0.09,0.12,4.3,5.83,4.3,5.83s0.5,0.71,0.29,1.38c-0.14,0.55-0.91,1.74-1.57,1.89
		c-0.38,0.09-0.98-0.02-1.2-0.58c-0.76-2.01-2.74-8.02-2.74-8.02s-0.15-0.41-0.36-0.36c-0.17,0.05-0.03,0.45-0.03,0.45
		s2.36,7.66,2.63,8.5c0.14,0.5,0.12,1.02-0.29,1.43c-0.33,0.34-0.77,0.65-2.2,0.95c-0.1,0-1-0.07-1.07-0.83
		c-0.09-1.07-0.15-9.94-0.15-9.94s-0.02-0.4-0.22-0.4c-0.24,0-0.26,0.4-0.26,0.4s-0.1,8.89-0.17,9.94c-0.05,0.77-0.95,0.83-1.1,0.83
		c-1.41-0.28-1.86-0.58-2.18-0.95c-0.4-0.4-0.43-0.91-0.26-1.41c0.24-0.84,2.65-8.5,2.65-8.5s0.1-0.4-0.09-0.45
		c-0.21-0.05-0.34,0.38-0.34,0.38s-1.98,6-2.72,8C29,85.53,28.38,85.69,28,85.55c-0.64-0.17-1.43-1.36-1.55-1.89
		c-0.19-0.71,0.33-1.36,0.33-1.36s4.23-5.73,4.3-5.85c0.07-0.1,0.14-0.21,0.02-0.28c-0.12-0.09-0.28,0.1-0.28,0.1
		s-4.13,5.18-4.37,5.42c-0.33,0.24-0.74,0.05-0.88-0.52c-0.22-1,0.02-1.84,0.57-2.39c0.38-0.34,3.53-3.44,3.89-3.75
		c0,0-0.84-0.74-0.58-1.6c0.26-0.81,1.08-0.83,1.08-0.83l1.7,0.02c0,0,0.19-0.29,0.58-0.5C33.11,71.92,33.35,71.91,33.68,71.91"/>
	<path class="st0" d="M37.6,43.64c0,0-0.69,1.26-1.15,1.74c-0.5,0.53,0.74,0.65,1.1,0.24c0.29-0.4,0.93-1.46,0.93-1.46
		s0.02-0.83-0.28-1.03C37.94,42.94,37.6,43.64,37.6,43.64 M41.35,55.15c0,0,0.24,0.31-0.07,0.58c-0.34,0.28-0.58-0.07-0.58-0.07
		l-1.03-1.27c-1.03,0.24-2.82-1.48-3.42-1.77c-0.64-0.33-1.67,1.53-2.2,0.28c-1.14-2.67-4.32,1.69-5.38,1.62
		c-1.1-0.1,0.17-1.43-0.05-2.29c-0.24-0.88-1.29-0.02-2.18,0.24c-0.28,0.09-0.69,0.15-1.08,0.19l-2.51,3.11c0,0-0.26,0.33-0.57,0.03
		c-0.34-0.26-0.09-0.6-0.09-0.6l8.31-10.77c0,0,0.22-0.34,0.48-0.62c0.72-0.76,1.39-0.95,2.37,0.1c0.29,0.34,0.88,1.14,1.5,2.03
		c0.62-1.02,2.15-2.92,2.58-3.58c0.52-0.77,1.2-0.57,1.58-0.22c0.71,0.57,2.51,3.22,3.63,4.21c0.1,0.03,0.15,0.12,0.17,0.19
		l1.17,1.17c0,0,0.29,0.28-0.03,0.58c-0.29,0.29-0.57,0-0.57,0l-1.15-1.19c-0.41,0.09-0.89,0.09-1.15,0.03
		c-0.52-0.14-1.39-0.93-1.08,0.62c0.12,0.53,0.26,0.76-0.38,0.81c-0.71,0.07-2.75-1.81-3.18-1.19c-0.1,0.15-0.24,0.31-0.36,0.43
		C36.69,48.85,41.35,55.15,41.35,55.15 M31.01,48.77c-0.03-0.89-0.1-0.83,0.4-1.53c0.36-0.6,0.41-1.45,0.52-2.13
		c0.07-0.36-0.38-0.48-0.52-0.03c-0.15,0.31-0.52,0.67-0.72,1.02c-0.62,0.76-1.67,2.31-2.03,2.87c-0.22,0.36-1.41,1.2-1.24,1.81
		c0.1,0.31,0.69,0.28,1.39-0.41c0.4-0.41,0.45-0.5,0.74-0.53c0.52,0.09,0.02,0.53,0.6,0.67C30.77,50.64,31.01,49.3,31.01,48.77"/>
	<path class="st0" d="M123.36,75.64c-1.34,1.1-3.01,1.67-4.95,1.67c-1.93,0-3.63-0.57-4.97-1.67c-1.5-1.24-2.1-2.68-2.1-5.02V58.75
		h2.24v11.18c0,2.25,0.17,2.87,1.03,3.84c0.91,1.02,2.24,1.57,3.78,1.57c1.57,0,2.89-0.55,3.78-1.57c0.86-0.96,1.02-1.58,1.02-3.84
		V58.75h2.25v11.87C125.44,73.03,124.87,74.42,123.36,75.64"/>
	<path class="st0" d="M138.84,76.79v-8.77c0-0.83-0.05-1.08-0.19-1.45c-0.19-0.41-0.67-0.65-1.26-0.65c-1.26,0-2.6,0.93-4.77,3.3
		v7.57h-2.05V64.41h2.05V67c0.84-0.96,1.1-1.2,1.69-1.7c0.93-0.79,2.17-1.24,3.32-1.24c2.18,0,3.25,1.14,3.25,3.44v9.27h-2.05V76.79
		z"/>
	<path class="st0" d="M145.76,64.41h2.06v12.39h-2.06V64.41z M146.79,61.43c-0.74,0-1.32-0.6-1.32-1.34c0-0.74,0.6-1.34,1.32-1.34
		c0.74,0,1.34,0.6,1.34,1.34C148.13,60.83,147.55,61.43,146.79,61.43"/>
	<polygon class="st0" points="157.44,77.15 155.55,77.15 150.9,64.41 153.16,64.41 156.56,74.44 156.63,74.94 156.65,74.47 
		160,64.41 162.26,64.41 	"/>
	<path class="st0" d="M169.85,65.94c-1.74,0-2.92,1.03-3.41,2.96h6.07C172.49,66.97,171.53,65.94,169.85,65.94 M166.27,70.43
		c0,3.01,1.53,4.83,4.06,4.83c1.1,0,1.89-0.29,3.22-1.24l0.83,1.62c-1.82,1.14-2.87,1.5-4.49,1.5c-3.46,0-5.78-2.63-5.78-6.54
		c0-3.94,2.32-6.54,5.85-6.54c2.89,0,4.78,2.05,4.78,5.14v1.2h-8.46V70.43z"/>
	<path class="st0" d="M184.24,66.64c-0.41-0.36-0.64-0.48-0.88-0.48c-0.77,0-1.75,1.12-2.92,3.25v7.38h-2.05V64.41h2.05v2.24
		c1.53-1.96,2.29-2.56,3.23-2.56c0.46,0,1.03,0.31,1.58,0.86L184.24,66.64z"/>
	<path class="st0" d="M191.8,77.15c-0.52,0-1.08-0.05-1.72-0.17c-1.17-0.22-1.69-0.41-2.92-1.03l0.84-1.72l0.62,0.33
		c1.24,0.65,2.37,0.84,3.15,0.84c1.26,0,2.18-0.69,2.18-1.63c0-0.31-0.12-0.65-0.26-0.86c-0.5-0.72-1.05-1.07-3.29-1.96
		c-2.41-1.02-3.23-1.86-3.23-3.35c0-2.17,1.81-3.51,4.71-3.51c0.52,0,1.07,0.03,1.58,0.14c0.93,0.17,1.38,0.36,2.41,0.93l-1.03,1.67
		c-0.79-0.5-1.14-0.65-1.77-0.83c-0.48-0.14-0.96-0.22-1.41-0.22c-1.39,0-2.31,0.62-2.31,1.57c0,0.29,0.1,0.57,0.29,0.76
		c0.5,0.5,0.83,0.69,3.06,1.62c2.63,1.08,3.35,1.94,3.35,3.87C196.12,75.81,194.5,77.15,191.8,77.15"/>
	<path class="st0" d="M200.4,64.41h2.05v12.39h-2.05V64.41z M201.43,61.43c-0.74,0-1.34-0.6-1.34-1.34c0-0.74,0.6-1.34,1.34-1.34
		c0.72,0,1.34,0.6,1.34,1.34C202.77,60.83,202.15,61.43,201.43,61.43"/>
	<path class="st0" d="M215.52,68.72c0-0.96-0.02-1.24-0.24-1.65c-0.34-0.69-1.24-1.05-2.48-1.05c-2.63,0-4.32,1.89-4.32,4.87
		c0,2.49,1.39,4.3,3.3,4.3c0.76,0,1.65-0.29,2.43-0.84c0.46-0.33,0.76-0.64,1.32-1.34v-4.28H215.52z M215.52,76.79v-1.55
		c-1.08,1.24-2.55,1.91-4.09,1.91c-3.05,0-5.18-2.55-5.18-6.21c0-3.99,2.65-6.86,6.31-6.86c1.31,0,2.17,0.26,2.94,0.86v-7.05h2.1
		v18.92h-2.08V76.79z"/>
	<path class="st0" d="M228.61,71.13l-4.65,1.2c-0.33,0.57-0.36,0.84-0.36,1.34c0,0.98,0.65,1.62,1.69,1.62
		c0.93,0,1.55-0.29,3.34-1.58v-2.58H228.61z M231.21,77.15c-1.69-0.1-2.29-0.55-2.39-1.72c-0.64,0.55-0.89,0.76-1.32,0.98
		c-0.77,0.43-1.75,0.71-2.61,0.71c-2,0-3.32-1.29-3.32-3.25c0-1.81,0.96-3.01,2.75-3.44l4.3-1.02v-2.24c0-1.02-0.77-1.53-2.36-1.53
		c-1.29,0-1.89,0.34-1.89,1.05c0,0.14,0.03,0.26,0.12,0.48l-2.08,0.43c-0.19-0.34-0.22-0.46-0.22-0.76c0-1.63,1.81-2.77,4.46-2.77
		c2.49,0,4.04,1.19,4.04,3.1v7.6c0.05,0.33,0.38,0.55,1.02,0.65L231.21,77.15z"/>
	<path class="st0" d="M243.82,68.72c0-0.96-0.02-1.24-0.26-1.65c-0.36-0.69-1.24-1.05-2.49-1.05c-2.63,0-4.32,1.89-4.32,4.87
		c0,2.49,1.39,4.3,3.3,4.3c0.74,0,1.63-0.29,2.41-0.84c0.46-0.33,0.76-0.64,1.34-1.34v-4.28H243.82z M243.82,76.79v-1.55
		c-1.1,1.24-2.55,1.91-4.11,1.91c-3.05,0-5.16-2.55-5.16-6.21c0-3.99,2.63-6.86,6.31-6.86c1.32,0,2.15,0.26,2.96,0.86v-7.05h2.08
		v18.92h-2.08V76.79z"/>
	<path class="st0" d="M120.59,92.4c0-0.95-0.02-1.24-0.24-1.63c-0.34-0.69-1.24-1.03-2.48-1.03c-2.61,0-4.3,1.88-4.3,4.85
		c0,2.48,1.38,4.28,3.3,4.28c0.74,0,1.63-0.31,2.41-0.84c0.45-0.33,0.76-0.62,1.32-1.34V92.4H120.59z M120.59,100.43v-1.55
		c-1.08,1.22-2.53,1.91-4.09,1.91c-3.01,0-5.14-2.53-5.14-6.19c0-3.97,2.65-6.85,6.3-6.85c1.31,0,2.15,0.24,2.94,0.84v-7.04h2.08
		v18.86h-2.08V100.43z"/>
	<path class="st0" d="M132,89.61c-1.7,0-2.91,1.03-3.35,2.94h6.06C134.65,90.64,133.68,89.61,132,89.61 M128.47,94.08
		c0,3.01,1.53,4.82,4.04,4.82c1.08,0,1.88-0.29,3.2-1.22l0.83,1.6c-1.84,1.14-2.87,1.5-4.47,1.5c-3.44,0-5.76-2.61-5.76-6.5
		c0-3.94,2.32-6.52,5.83-6.52c2.89,0,4.78,2.05,4.78,5.13v1.2H128.47z"/>
	<rect x="147.53" y="82.59" class="st0" width="2.05" height="17.84"/>
	<path class="st0" d="M159.35,89.58c-2.17,0-3.87,2.06-3.87,4.7s1.69,4.7,3.87,4.7c2.15,0,3.84-2.06,3.84-4.7
		S161.5,89.58,159.35,89.58 M159.35,100.79c-3.35,0-6.11-2.98-6.11-6.52c0-3.56,2.75-6.52,6.11-6.52c3.34,0,6.07,2.94,6.07,6.52
		C165.42,97.82,162.69,100.79,159.35,100.79"/>
	<path class="st0" d="M173.11,100.79c-0.52,0-1.08-0.05-1.7-0.17c-1.19-0.22-1.7-0.41-2.92-1.03l0.84-1.72l0.62,0.33
		c1.24,0.65,2.39,0.84,3.13,0.84c1.26,0,2.18-0.67,2.18-1.63c0-0.29-0.1-0.65-0.24-0.84c-0.48-0.72-1.07-1.07-3.27-1.98
		c-2.41-1-3.22-1.86-3.22-3.35c0-2.15,1.79-3.49,4.68-3.49c0.52,0,1.07,0.02,1.58,0.14c0.93,0.17,1.36,0.34,2.41,0.91l-1.02,1.67
		c-0.79-0.5-1.14-0.65-1.77-0.83c-0.5-0.14-0.96-0.22-1.43-0.22c-1.38,0-2.29,0.64-2.29,1.57c0,0.29,0.1,0.57,0.29,0.76
		c0.5,0.48,0.81,0.69,3.06,1.6c2.61,1.1,3.35,1.94,3.35,3.87C177.43,99.45,175.81,100.79,173.11,100.79"/>
	<path class="st0" d="M194,84.84l-2.94,8.24h5.85L194,84.84z M199.49,100.43l-1.86-5.32h-7.28l-1.86,5.32h-2.39l6.71-18.51h2.39
		l6.69,18.51H199.49z"/>
	<path class="st0" d="M212.94,100.43v-8.76c0-0.81-0.05-1.08-0.19-1.43c-0.19-0.41-0.69-0.65-1.26-0.65c-1.26,0-2.58,0.93-4.75,3.29
		v7.55h-2.05V88.1h2.05v2.58c0.83-0.95,1.1-1.2,1.69-1.7c0.93-0.79,2.17-1.22,3.3-1.22c2.18,0,3.25,1.12,3.25,3.44v9.24
		C214.99,100.43,212.94,100.43,212.94,100.43z"/>
	<path class="st0" d="M227.93,92.4c0-0.95-0.03-1.24-0.24-1.63c-0.36-0.69-1.24-1.03-2.49-1.03c-2.61,0-4.3,1.88-4.3,4.85
		c0,2.48,1.39,4.28,3.3,4.28c0.74,0,1.63-0.31,2.41-0.84c0.45-0.33,0.76-0.62,1.34-1.34V92.4H227.93z M227.93,100.43v-1.55
		c-1.1,1.22-2.55,1.91-4.09,1.91c-3.03,0-5.14-2.53-5.14-6.19c0-3.97,2.65-6.85,6.3-6.85c1.31,0,2.15,0.24,2.96,0.84v-4.99
		l2.06-2.03v18.86H227.93z"/>
	<path class="st0" d="M239.33,89.61c-1.72,0-2.92,1.03-3.37,2.94H242C241.98,90.64,241.02,89.61,239.33,89.61 M235.79,94.08
		c0,3.01,1.53,4.82,4.04,4.82c1.1,0,1.89-0.29,3.22-1.22l0.83,1.6c-1.82,1.14-2.86,1.5-4.47,1.5c-3.42,0-5.75-2.61-5.75-6.5
		c0-3.94,2.32-6.52,5.83-6.52c2.89,0,4.78,2.05,4.78,5.13v1.2H235.79z"/>
	<path class="st0" d="M251.75,100.79c-0.52,0-1.08-0.05-1.72-0.17c-1.17-0.22-1.7-0.41-2.91-1.03l0.84-1.72l0.62,0.33
		c1.24,0.65,2.37,0.84,3.13,0.84c1.26,0,2.18-0.67,2.18-1.63c0-0.29-0.12-0.65-0.24-0.84c-0.5-0.72-1.07-1.07-3.29-1.98
		c-2.39-1-3.22-1.86-3.22-3.35c0-2.15,1.81-3.49,4.7-3.49c0.52,0,1.07,0.02,1.58,0.14c0.93,0.17,1.36,0.34,2.41,0.91l-1.02,1.67
		c-0.79-0.5-1.14-0.65-1.77-0.83c-0.48-0.14-0.95-0.22-1.43-0.22c-1.38,0-2.29,0.64-2.29,1.57c0,0.29,0.12,0.57,0.31,0.76
		c0.48,0.48,0.81,0.69,3.05,1.6c2.63,1.1,3.35,1.94,3.35,3.87C256.07,99.45,254.47,100.79,251.75,100.79"/>
	<path class="st0" d="M125.77,38.65c-1.27-0.91-2.77-1.36-4.49-1.36c-3.73,0-6.42,2.65-6.42,6.35c0,4.18,2.77,6.93,7.02,6.93
		c1.38,0,2.53-0.24,4.27-0.91l0.67,3.13c-1.26,0.57-1.74,0.74-2.61,0.95c-0.95,0.21-1.98,0.33-3.13,0.33
		c-3.05,0-5.21-0.76-7.04-2.43c-2.08-1.86-3.29-4.75-3.29-7.78c0-2.84,1.07-5.4,2.98-7.29c1.94-1.93,4.13-2.7,7.35-2.7
		c2.48,0,4.42,0.58,6.11,1.86L125.77,38.65z"/>
	<rect x="133.77" y="32.15" class="st0" width="3.51" height="21.5"/>
	<path class="st0" d="M145.05,39.94h3.49v13.71h-3.49V39.94z M147.93,38.33h-3.18l3.91-4.95h3.84L147.93,38.33z"/>
	<path class="st0" d="M165.13,53.65v-8.83c0-1.7-0.29-2.32-1.14-2.32c-0.76,0-1.77,0.74-3.3,2.39l-0.48,0.5v8.26h-3.54V39.94h3.54
		v2.27c1.65-1.79,3.01-2.53,4.75-2.53c2.48,0,3.72,1.29,3.72,3.89v10.08H165.13z"/>
	<path class="st0" d="M176.66,39.94h3.51v13.71h-3.51V39.94z M178.43,37.41c-1.08,0-2-1.07-2-2.39c0-1.32,0.89-2.39,2-2.39
		c1.1,0,1.98,1.07,1.98,2.39C180.41,36.35,179.53,37.41,178.43,37.41"/>
	<path class="st0" d="M193.88,54.05c-4.25,0-6.98-2.8-6.98-7.11c0-4.44,2.92-7.41,7.28-7.41c0.76,0,1.5,0.09,2.25,0.24
		c1,0.24,1.46,0.45,2.63,1.12l-1.69,2.68c-1.03-0.81-1.72-1.07-2.77-1.07c-2.34,0-3.99,1.82-3.99,4.4c0,2.44,1.46,4.13,3.6,4.13
		c1.19,0,2.03-0.29,3.54-1.19l1.29,2.87C197.13,53.69,195.6,54.05,193.88,54.05"/>
	<path class="st0" d="M211.87,47.55l-3.51,1.15c-0.21,0.53-0.28,0.81-0.28,1.15c0,0.89,0.55,1.43,1.43,1.43
		c0.45,0,0.98-0.15,1.45-0.41c0.24-0.12,0.41-0.22,0.91-0.62C211.87,50.25,211.87,47.55,211.87,47.55z M215.95,53.83h-0.74
		c-1.75,0-2.32-0.29-2.94-1.5c-1.29,1.19-2.44,1.69-3.85,1.69c-2.32,0-3.96-1.53-3.96-3.72c0-0.48,0.09-0.95,0.22-1.39
		c0.46-1.27,1.29-1.93,3.3-2.51l3.89-1.12v-1.15c0-1.46-0.52-2.13-1.67-2.13c-1.07,0-1.93,0.55-1.93,1.24
		c0,0.12,0.03,0.19,0.09,0.36l-3.37,0.74c-0.14-0.41-0.19-0.55-0.19-0.95c0-2.43,2.13-3.8,5.85-3.8c3.27,0,4.75,1.36,4.75,4.35v5.73
		c0,1.24,0.14,1.45,1.08,1.53L215.95,53.83z"/>
</g>
</svg>
