<?xml version="1.0" encoding="utf-8"?>
<!-- Generator: Adobe Illustrator 24.0.0, SVG Export Plug-In . SVG Version: 6.00 Build 0)  -->
<svg version="1.1" id="Layer_1" xmlns="http://www.w3.org/2000/svg" xmlns:xlink="http://www.w3.org/1999/xlink" x="0px" y="0px"
	 viewBox="0 0 274.42 76.68" style="enable-background:new 0 0 274.42 76.68;" xml:space="preserve">
<style type="text/css">
	.st0{fill:#E52521;}
	.st1{fill:#E52621;}
	.st2{fill:#030304;}
	.st3{fill:#030405;}
	.st4{fill:#070708;}
</style>
<g>
	<path class="st0" d="M15.52,26.05c3.36,0,6.71,0.04,10.07-0.02c0.96-0.02,1.27,0.19,1.26,1.21c-0.07,3.92-0.13,7.84,0,11.75
		c0.18,5.65-3.94,9.14-9.17,9.28c-4.15,0.12-8.3,0.01-12.46,0.04c-0.74,0.01-0.98-0.19-0.98-0.95c0.03-6.78,0.03-13.56,0-20.34
		c0-0.88,0.33-1,1.09-0.99C8.72,26.07,12.12,26.05,15.52,26.05z"/>
	<path class="st1" d="M47.18,47.54c-0.31,0.48-0.19,1.03-0.19,1.55c-0.01,6.43-0.02,12.85,0.01,19.28c0,0.88-0.17,1.21-1.14,1.2
		c-6.76-0.04-13.52-0.02-20.28-0.03c-0.52,0-1.19,0.23-1.18-0.75c0.05-4.36,0.1-8.71,0.07-13.07c-0.03-4.2,3.4-8.29,9.23-8.39
		c4.41-0.08,8.83-0.05,13.25-0.06C47.03,47.36,47.11,47.45,47.18,47.54z"/>
	<path class="st0" d="M47.18,47.54c-0.07-0.09-0.15-0.18-0.22-0.28c0.01-4.27,0-8.55,0.02-12.82c0.03-4.48,2.59-8.04,6.53-9.02
		c0.89-0.22,1.83-0.3,2.75-0.3c3.93-0.03,7.87,0.01,11.8-0.03c0.86-0.01,1.24,0.14,1.23,1.13c-0.04,6.78-0.03,13.57-0.01,20.36
		c0,0.65-0.03,1.05-0.89,1.04C61.33,47.56,54.25,47.56,47.18,47.54z"/>
	<path class="st0" d="M38.28,3.52c3.36,0,6.72,0.03,10.08-0.02c0.82-0.01,1.05,0.22,1.03,1.04c-0.06,4.18,0,8.37-0.09,12.55
		c-0.1,4.53-3.35,9.02-9.19,8.84c-3.97-0.12-7.96-0.05-11.93-0.01c-0.86,0.01-1.22-0.11-1.21-1.11c0.05-6.74,0.04-13.48,0.01-20.22
		c0-0.86,0.21-1.11,1.09-1.1C31.47,3.55,34.88,3.52,38.28,3.52z"/>
	<path class="st2" d="M84.64,69.21c1.8-2.44,1.21-5.05,1.22-7.56c0.04-6.96,0-13.92,0.02-20.88c0-1.65-0.16-3.25-0.83-4.77
		c-0.24-0.55-0.37-0.91,0.47-0.86c5.68,0.34,11.4-0.34,17.06,0.71c8.06,1.49,12.67,6.79,13.36,14.95
		c0.46,5.41-0.93,10.04-4.93,13.73c-3.46,3.2-7.74,4.43-12.36,4.66C94.1,69.4,89.55,69.23,84.64,69.21z M91.22,52.04
		c0,4.41,0.02,8.81-0.01,13.22c-0.01,1.17,0.45,1.88,1.64,1.96c4.65,0.31,9.11-0.28,12.88-3.29c3.31-2.64,4.45-6.33,4.62-10.39
		c0.19-4.43-0.5-8.61-3.71-12c-3.69-3.88-8.38-4.78-13.47-4.44c-1.75,0.12-1.95,0.4-1.95,2.12C91.22,43.5,91.22,47.77,91.22,52.04z"
		/>
	<path class="st3" d="M123.22,69.56c-1.77,0-3.17,0-4.58,0c-0.25,0-0.5,0-0.93,0c5.35-11.76,10.1-23.59,15.22-35.38
		c5.8,11.77,10.5,23.89,16.75,35.31c-2.72,0-5.52,0-8.4,0c1.43-4.08-1.28-7.2-2.51-10.67c-0.19-0.53-0.61-0.42-0.98-0.42
		c-3.98-0.01-7.96,0-11.93,0c-0.38,0-0.78-0.08-0.96,0.46c-0.87,2.57-2.27,4.95-2.65,7.7C122.1,67.61,122.24,68.54,123.22,69.56z
		 M131.9,42.14c-0.55,1.32-1,2.41-1.46,3.5c-1.33,3.2-2.68,6.4-3.99,9.61c-0.13,0.31-0.82,0.96,0.24,0.97
		c3.65,0.03,7.3,0.01,11.14,0.01C135.84,51.51,133.92,46.95,131.9,42.14z"/>
	<path class="st3" d="M262.62,69.56c-2.63,0-5.23,0-7.82,0c-0.48,0-0.8-0.05-0.53-0.66c0.71-1.62,0.31-3.2-0.32-4.73
		c-0.7-1.71-1.46-3.39-2.15-5.1c-0.22-0.53-0.51-0.71-1.08-0.71c-3.98,0.02-7.96,0.02-11.94,0.01c-0.47,0-0.85,0.01-1.04,0.56
		c-0.84,2.36-2.02,4.59-2.55,7.06c-0.26,1.2-0.26,2.37,0.87,3.56c-1.76,0-3.28,0.01-4.8-0.01c-0.9-0.01-0.43-0.52-0.27-0.87
		c1.52-3.46,3.08-6.9,4.56-10.37c3.41-8,6.79-16.01,10.24-24.15C251.63,45.89,256.28,58.03,262.62,69.56z M244.78,42.13
		c-2,4.81-3.91,9.4-5.83,14.04c4.01,0,7.83,0,11.75,0C248.74,51.52,246.82,46.96,244.78,42.13z"/>
	<path class="st3" d="M144.83,35.04c1.96,0,3.77,0.05,5.58-0.02c0.77-0.03,1.06,0.29,1.34,0.92c3.52,7.9,7.07,15.78,10.61,23.67
		c0.23,0.5,0.48,0.99,0.82,1.71c1.63-4.27,3.17-8.31,4.7-12.35c1.58-4.19,3.21-8.36,4.69-12.58c0.39-1.1,0.86-1.6,2.03-1.43
		c0.6,0.09,1.22,0.02,1.68,0.02c-5.17,10.95-9.04,22.41-13.65,33.56c-0.07,0.16-0.12,0.33-0.2,0.49c-0.17,0.38-0.17,0.92-0.79,0.89
		c-0.52-0.02-0.57-0.48-0.72-0.83c-1.38-3.04-2.74-6.09-4.12-9.12c-3.1-6.83-6.18-13.68-9.34-20.49
		C146.76,37.98,145.78,36.62,144.83,35.04z"/>
	<path class="st3" d="M211.04,35.07c-1.57,2.6-1.24,5.41-1.24,8.16c-0.01,7.27-0.01,14.55,0,21.82c0,2.12,0.36,2.51,2.42,2.55
		c4.02,0.08,8.04,0.01,12.01-0.78c1.75-0.35,3.35-1.02,5.07-1.97c-0.42,1.47-0.81,2.76-1.17,4.06c-0.14,0.52-0.46,0.65-0.97,0.65
		c-7.83-0.01-15.66-0.01-23.49,0c-0.67,0-0.94-0.16-0.54-0.82c1.36-2.26,1.35-4.76,1.33-7.29c-0.04-6.26-0.05-12.52,0-18.78
		c0.02-2.62-0.01-5.19-1.63-7.61C205.64,35.07,208.25,35.07,211.04,35.07z"/>
	<path class="st2" d="M184.29,35.04c2.41,0,4.53,0,6.65,0c0.4,0,0.69,0.04,0.59,0.57c-1.62,8.91-0.36,17.91-0.75,26.85
		c-0.08,1.9-0.01,3.78,0.63,5.6c0.14,0.4,0.25,0.82,0.39,1.29c-2.42,0-4.74,0-7.18,0c1.59-4.81,0.83-9.72,0.97-14.58
		c0.08-2.95,0.02-5.9,0.01-8.85C185.59,42.3,185.91,38.63,184.29,35.04z"/>
	<path class="st2" d="M173.62,26.65c-29.05,0-58.1,0-87.16,0c-0.13,0-0.28,0.04-0.39-0.01c-0.42-0.19-1.26,0.44-1.27-0.42
		c0-0.87,0.85-0.41,1.26-0.41c33.39-0.03,66.77-0.03,100.16-0.03c24.98,0,49.97,0,74.95,0.02c0.49,0,1.46-0.5,1.43,0.47
		c-0.03,0.78-0.94,0.35-1.42,0.35C231.99,26.65,202.8,26.65,173.62,26.65z"/>
	<path class="st4" d="M174.02,14.2c0.05-3.53,0.42-7.03-0.09-10.57c0.9-0.11,1.94-0.09,2.81-0.01c-0.23,4.93-0.09,9.79-0.08,14.71
		c-1.44,0.39-2.58,0.07-3.56-1.49c-1.77-2.82-3.81-5.47-5.98-8.53c0.09,3.58-0.18,6.8,0.2,10.06c-0.9,0-1.94,0-2.81,0
		c0.17-4.89,0.57-9.78-0.26-14.79c0.45,0,1.22,0,1.99,0c0.34,0,0.48,0.14,0.66,0.47C168.84,7.69,171.61,10.78,174.02,14.2z"/>
	<path class="st4" d="M262.68,18.31c-0.09,0.05-0.13,0.08-0.16,0.08c-0.93,0.01-1.9,0.21-2.77-0.02c-1.12-0.29-0.51-1.52-0.83-2.29
		c-1.02-2.45-0.94-2.48-2.76-2.48c-3.18,0-3.72,0.37-4.21,3.66c-0.16,1.08-0.52,1.26-1.43,1.18c-0.69-0.06-1.39-0.01-2.12-0.01
		c2.54-4.56,4.24-9.39,6.18-14.12c0.35-0.86,0.83-0.69,1.4-0.74c0.6-0.05,0.89,0.11,1.13,0.76C258.85,9,260.35,13.77,262.68,18.31z
		 M255.67,6.57c-0.62,1.62-1.14,3.01-1.67,4.4c-0.19,0.5-0.23,0.83,0.5,0.8c0.91-0.04,1.83-0.01,2.86-0.01
		C256.8,10.06,256.29,8.48,255.67,6.57z"/>
	<path class="st4" d="M230.8,6.71c-1.81-1.72-3.74-2.43-5.91-1.43c-2.21,1.02-2.94,3.05-3.1,5.3c-0.17,2.39,0.46,4.51,2.7,5.74
		c2.22,1.21,4.25,0.63,6.07-0.97c0.05-0.05,0.16-0.03,0.24-0.04c0.06,2.27-0.03,2.46-2.19,2.92c-2.97,0.64-5.8,0.36-7.84-2.17
		c-2.01-2.5-2.38-5.42-1.03-8.31c1.35-2.88,3.83-4.26,7.05-4.25c0.53,0,1.06,0.02,1.59,0.08C230.94,3.85,230.95,3.87,230.8,6.71z"/>
	<path class="st4" d="M96.18,15.35c0.22,2.14,0.09,2.38-1.69,2.8c-2.84,0.67-5.6,0.58-7.78-1.62c-2.12-2.14-2.61-4.83-1.88-7.7
		c0.69-2.73,3.3-4.91,6.16-5.26c1.01-0.13,2.04-0.17,3.04,0.02c2.83,0.54,2.4,0.25,2.24,2.99c-0.97-0.76-1.89-1.46-3.08-1.66
		c-2.94-0.48-5.17,1.39-5.83,4.93c-0.68,3.66,1.43,6.84,4.7,7.08C93.6,17.04,94.87,16.36,96.18,15.35z"/>
	<path class="st2" d="M115.57,3.62c0.9,0,1.95,0,2.97,0c-0.52,4.12-0.12,8.23-0.26,12.34c-0.02,0.66,0.31,0.68,0.8,0.68
		c1.33-0.03,2.61-0.33,3.93-0.8c0.04,0.76-0.38,1.36-0.51,2.03c-0.09,0.49-0.44,0.57-0.89,0.56c-2.07-0.02-4.14-0.01-6.08-0.01
		C115.96,13.45,115.93,8.56,115.57,3.62z"/>
	<path class="st4" d="M141.53,3.61c0.97,0,2.02,0,3.08,0c-0.52,2.23-0.51,12.79,0.02,14.75c-1.1,0-2.18,0-3.06,0
		C141.77,13.47,141.81,8.59,141.53,3.61z"/>
	<path class="st2" d="M199.68,18.39c-0.93,0-1.99,0-3.13,0c0.79-2.43,0.44-4.89,0.43-7.32c0-2.44,0.36-4.91-0.4-7.41
		c1.08,0,2.15,0,3.06,0C199.43,8.53,199.38,13.43,199.68,18.39z"/>
</g>
</svg>
