<?xml version="1.0" encoding="utf-8"?>
<!-- Generator: Adobe Illustrator 24.0.0, SVG Export Plug-In . SVG Version: 6.00 Build 0)  -->
<svg version="1.1" id="Layer_1" xmlns="http://www.w3.org/2000/svg" xmlns:xlink="http://www.w3.org/1999/xlink" x="0px" y="0px"
	 viewBox="0 0 158.94 83.13" style="enable-background:new 0 0 158.94 83.13;" xml:space="preserve">
<style type="text/css">
	.st0{fill:#3A404C;}
</style>
<g>
	<path class="st0" d="M7.97,26.86c-1.36,4.3-2.11,9.02-2.11,14v0.14c-0.05,20.25,12,36.2,26.35,36.22
		c14.34,0.02,26.43-15.88,26.46-36.13v-0.14c0.02-5.01-0.74-9.76-2.11-14.09C52.51,13.81,43.08,4.89,32.31,4.89
		C21.54,4.85,12.07,13.76,7.97,26.86 M4.94,40.86c0-5.07,0.79-9.89,2.17-14.27c4.17-13.3,13.9-22.64,25.21-22.62
		c11.29,0.02,20.97,9.34,25.12,22.63c1.38,4.42,2.13,9.27,2.13,14.36v0.14c-0.02,20.48-12.28,37.06-27.36,37.04
		C17.12,78.11,4.91,61.48,4.94,41L4.94,40.86z"/>
	<path class="st0" d="M30.46,8.92c-0.34-1.35-1.35-1.93-2.87-1.56c-1.21,0.31-1.55,0.49-1.67,0.59c-0.06,0.07-0.06,0.15,0,0.21
		l0.56-0.07l0.88,3.54l-0.36,0.19c-0.14,0.08-0.18,0.19-0.11,0.32c0.14-0.02,0.61-0.17,0.93-0.24c0.35-0.1,0.81-0.17,1.01-0.23
		C30.28,11.31,30.77,10.21,30.46,8.92 M28.8,11.3c-0.39,0.11-0.6,0.14-0.85,0.14l-0.88-3.6c1.59-0.39,2.47,0.1,2.8,1.46
		C30.13,10.35,29.59,11.11,28.8,11.3"/>
	<path class="st0" d="M38.57,10.01c0.4-1.27-0.02-2.15-1.17-2.51c-1.33-0.44-2.48,0.29-2.95,1.71c-0.37,1.2-0.04,2.15,1.1,2.54
		C36.88,12.17,38.06,11.54,38.57,10.01 M37.85,10.09c-0.38,1.15-1.12,1.55-1.93,1.29c-0.79-0.26-1.17-1.02-0.72-2.29
		c0.31-1.01,1-1.53,1.85-1.24C38.04,8.16,38.18,9.08,37.85,10.09"/>
	<path class="st0" d="M41.75,14.7c-0.18-0.28-0.28-0.56-0.32-1l-0.18-1.71c0.6,0.11,1.15-0.17,1.43-0.64
		c0.39-0.61,0.15-1.32-0.65-1.82c-0.99-0.62-1.4-0.82-1.53-0.62c-0.02,0.02-0.02,0.05-0.04,0.07l0.43,0.35l-1.94,3.1l-0.41-0.11
		c-0.13-0.04-0.25,0.01-0.29,0.15c0.25,0.14,0.43,0.25,0.66,0.4c0.26,0.15,0.46,0.29,0.7,0.44c0.13,0.09,0.29,0.06,0.38-0.05
		l-0.53-0.48l0.77-1.22l0.41,0.26l0.1,1.78c0.06,0.68,0.21,0.88,0.55,1.08C41.46,14.78,41.62,14.79,41.75,14.7 M42.06,11.13
		c-0.33,0.54-0.85,0.69-1.41,0.32c-0.08-0.06-0.17-0.11-0.24-0.16l1.06-1.7c0.09,0.05,0.2,0.1,0.27,0.16
		C42.34,10.12,42.34,10.69,42.06,11.13"/>
	<path class="st0" d="M18.86,16.84c-0.56-0.48-1.03-0.35-1.74,0.08c-0.56,0.31-0.98,0.43-1.28,0.16c-0.3-0.25-0.27-0.73,0-1.04
		c0.19-0.24,0.38-0.41,0.57-0.53l0.49,0.42c0.18-0.13,0.23-0.32,0.03-0.51l-0.52-0.51c-0.2,0.15-0.54,0.47-0.8,0.76
		c-0.5,0.6-0.61,1.5,0.03,2.03c0.37,0.3,0.85,0.3,1.48-0.06c0.88-0.49,1.24-0.46,1.53-0.2c0.24,0.2,0.34,0.73,0.02,1.13
		c-0.42,0.51-0.82,0.59-1.31,0.17c-0.19,0.24-0.21,0.54,0.02,0.73c0.44,0.36,0.98,0.11,1.47-0.48
		C19.43,18.33,19.44,17.32,18.86,16.84"/>
	<path class="st0" d="M20.8,12.35l-0.92-0.83c-0.25,0.36-0.83,0.89-1.24,1.28c-0.4,0.39-0.85,0.77-1.37,1.27l0.75,0.98
		c0.17-0.11,0.22-0.21,0.05-0.63l-0.19-0.38c0.22-0.21,0.49-0.46,0.73-0.69l2.53,2.63l-0.26,0.41c-0.09,0.11-0.05,0.24,0.09,0.31
		c0.12-0.14,0.38-0.39,0.65-0.65c0.22-0.23,0.42-0.4,0.56-0.53c0.15-0.11,0.15-0.25,0.03-0.39l-0.59,0.41l-2.53-2.63
		c0.32-0.3,0.56-0.5,0.74-0.73l0.53,0.29C20.54,12.59,20.67,12.57,20.8,12.35"/>
	<path class="st0" d="M24.46,8.49l-1.11,0.65c-0.2,0.12-0.23,0.28-0.14,0.4l0.51-0.19l0.74,3.29l-2.57-2.22l0.31-0.22
		c0.2-0.15,0.18-0.34,0.12-0.46l-1.26,0.72c-0.19,0.11-0.27,0.32-0.15,0.47l0.4-0.17l3.33,2.89c0.28-0.2,0.38-0.46,0.31-0.88
		l-0.78-3.62C24.57,8.98,24.65,8.78,24.46,8.49"/>
	<path class="st0" d="M33.2,10.9l-0.65-0.13l0.08-3.7l0.32-0.02c0.22-0.01,0.3-0.08,0.28-0.31c-1.3-0.03-1.39-0.03-1.39-0.03
		c-0.26,0-0.39,0.09-0.36,0.3L32,7.07l-0.07,3.7l-0.41,0.07c-0.2,0.05-0.25,0.15-0.21,0.28c0.19-0.01,0.51,0,0.82,0.01
		c0.29,0,0.56,0,0.74,0.02C33.06,11.17,33.18,11.06,33.2,10.9"/>
	<path class="st0" d="M47.4,13.99l-0.93-0.89c-0.17-0.16-0.34-0.14-0.41,0l0.32,0.41l-2.94,1.62l1.41-3.09l0.3,0.24
		c0.19,0.16,0.38,0.1,0.48-0.01l-1.04-1.02c-0.17-0.14-0.38-0.17-0.48-0.02l0.28,0.34l-1.9,4.01c0.3,0.2,0.56,0.21,0.92,0.04
		l3.29-1.72C46.96,14.23,47.18,14.26,47.4,13.99"/>
	<path class="st0" d="M47.5,21.36l-0.19-0.49l2.82-2.35c0.35,0.38,0.52,0.44,0.66,0.28l-0.69-1.04l-3.59,0.9l2.15-3.05l-0.48-0.71
		c-0.15-0.23-0.33-0.23-0.44-0.09l0.19,0.55l-3.19,1.67l-0.31-0.27c-0.12-0.09-0.26-0.07-0.32,0.03c0.12,0.15,0.27,0.37,0.41,0.59
		c0.14,0.2,0.27,0.41,0.38,0.57c0.08,0.16,0.21,0.21,0.37,0.11l-0.25-0.61l2.57-1.45l-2.08,2.97c0.17,0.15,0.4,0.23,0.67,0.18
		l3.17-0.81l-2.39,2.02l-0.32-0.3c-0.11-0.1-0.26-0.06-0.32,0.02c0.13,0.17,0.27,0.39,0.41,0.6c0.15,0.22,0.27,0.42,0.37,0.56
		C47.19,21.36,47.31,21.46,47.5,21.36"/>
	<path class="st0" d="M11.71,60.24l0.67,1.09c0.12,0.21,0.28,0.23,0.38,0.12l-0.18-0.5l3.26-0.79l-2.17,2.61l-0.23-0.3
		c-0.15-0.21-0.34-0.21-0.46-0.12l0.73,1.25c0.12,0.18,0.33,0.26,0.46,0.14l-0.16-0.4l2.84-3.4c-0.21-0.26-0.49-0.37-0.88-0.27
		l-3.61,0.82C12.19,60.12,11.97,60.05,11.71,60.24"/>
	<path class="st0" d="M9.8,54.97l0.42,1.14c0.08,0.23,0.25,0.33,0.43,0.22l-0.15-0.54l2.91-1.04l-2.37,3.65l0.22,0.6
		c0.1,0.27,0.31,0.29,0.4,0.18l-0.08-0.54l3.41-1.24l0.23,0.34c0.1,0.12,0.22,0.12,0.31,0.05c-0.08-0.17-0.17-0.41-0.25-0.65
		c-0.09-0.27-0.17-0.52-0.24-0.7c-0.05-0.16-0.2-0.2-0.34-0.16l0.12,0.65l-2.72,0.98l2.07-3.14c0.18-0.28,0.21-0.43,0.16-0.57
		c-0.05-0.09-0.09-0.2-0.15-0.26l-3.83,1.39l-0.14-0.25C10.12,54.9,10,54.87,9.8,54.97"/>
	<path class="st0" d="M12.85,51.23l0.07,0.63l-3.58,0.96l-0.12-0.3c-0.08-0.2-0.17-0.25-0.37-0.18c0.33,1.26,0.36,1.35,0.36,1.35
		c0.06,0.25,0.2,0.35,0.38,0.25l-0.09-0.51l3.58-0.95l0.19,0.37c0.12,0.18,0.24,0.2,0.34,0.12c-0.05-0.19-0.14-0.49-0.22-0.78
		c-0.08-0.29-0.15-0.56-0.17-0.73C13.14,51.28,13.03,51.17,12.85,51.23"/>
	<path class="st0" d="M8.06,47.55l0.24,1.28c0.02,0.24,0.19,0.3,0.33,0.25l-0.01-0.54l3.35,0.42L9,50.63l-0.11-0.36
		c-0.07-0.25-0.25-0.31-0.4-0.28l0.27,1.43c0.02,0.23,0.19,0.37,0.37,0.29l-0.02-0.41l3.87-2.14c-0.11-0.33-0.32-0.52-0.71-0.58
		l-3.69-0.52C8.57,47.63,8.4,47.48,8.06,47.55"/>
	<path class="st0" d="M10.99,43.26c-0.05,0.18,0.01,0.35,0.3,0.42l0.5,0.14l0.09,1.63l-1.61,0.17l-0.12-1.22l0.46-0.02
		c0.03-0.18-0.08-0.39-0.34-0.37c-0.3,0.03-0.56,0.05-0.96,0.08c-0.04,0.07-0.02,0.22,0.07,0.28c0.09,0.09,0.16,0.09,0.37,0.06
		l0.14,1.23l-1.61,0.16l-0.1-1.5l0.64-0.16c0.04-0.19-0.06-0.36-0.28-0.32l-0.82,0.13l0.25,2.33c0.06,0.67,0.19,0.7,0.37,0.64
		l-0.01-0.5L12,46.07l0.13,0.35c0.05,0.14,0.2,0.18,0.31,0.13l-0.33-3.16L10.99,43.26z"/>
	<path class="st0" d="M12.06,38.81c-0.12,0.31-0.29,0.55-0.65,0.83l-1.35,1.08c-0.24-0.57-0.76-0.87-1.31-0.86
		c-0.72,0.03-1.19,0.6-1.17,1.54c0.02,1.17,0.08,1.63,0.31,1.62c0.02,0,0.04,0,0.08-0.01l0.05-0.55l3.66-0.07l0.13,0.42
		c0.02,0.13,0.15,0.19,0.27,0.16c-0.02-0.3-0.02-0.48-0.02-0.78c-0.01-0.27,0-0.53-0.01-0.82c0-0.15-0.1-0.27-0.26-0.29l-0.09,0.71
		l-1.46,0.02v-0.48l1.44-1.08c0.53-0.43,0.62-0.65,0.61-1.05C12.3,39.01,12.21,38.88,12.06,38.81 M8.92,40.49
		c0.63,0.01,1.04,0.37,1.05,1.03c0,0.1,0,0.19-0.02,0.28l-2,0.03c-0.01-0.11-0.02-0.23-0.02-0.3C7.91,40.8,8.4,40.5,8.92,40.49"/>
	<path class="st0" d="M11.12,35.63c-0.75-0.03-1.02,0.38-1.33,1.17c-0.22,0.6-0.46,0.93-0.89,0.93c-0.38-0.01-0.64-0.39-0.64-0.8
		c0-0.32,0.06-0.59,0.13-0.8l0.64,0.03c0.05-0.21-0.02-0.4-0.31-0.41l-0.7-0.09c-0.08,0.25-0.14,0.71-0.15,1.11
		c-0.02,0.78,0.46,1.54,1.28,1.56c0.5,0,0.86-0.3,1.14-0.99c0.37-0.94,0.64-1.12,1.05-1.12c0.31,0.02,0.73,0.37,0.72,0.86
		c-0.01,0.69-0.27,0.99-0.92,0.97c0,0.3,0.18,0.55,0.48,0.56c0.57,0.01,0.84-0.55,0.86-1.29C12.49,36.43,11.88,35.64,11.12,35.63"/>
	<path class="st0" d="M12.55,33.53l-0.22,0.62L8.69,33.5l0.01-0.34c0.03-0.21-0.02-0.32-0.25-0.32c-0.22,1.28-0.23,1.39-0.23,1.39
		c-0.05,0.24,0.01,0.38,0.22,0.38l0.14-0.51l3.63,0.63l0.02,0.44c0.01,0.21,0.11,0.26,0.26,0.24c0.01-0.2,0.07-0.51,0.12-0.81
		c0.05-0.3,0.11-0.56,0.15-0.73C12.82,33.69,12.73,33.55,12.55,33.53"/>
	<path class="st0" d="M10.56,28.59l-1.23-0.2c-0.03,0.43-0.23,1.2-0.37,1.74c-0.14,0.55-0.33,1.09-0.5,1.78l1.15,0.46
		c0.11-0.19,0.09-0.3-0.29-0.56l-0.33-0.23c0.06-0.29,0.16-0.65,0.25-0.97l3.53,0.88l0,0.49c-0.02,0.13,0.08,0.23,0.22,0.23
		c0.04-0.2,0.13-0.56,0.22-0.9c0.07-0.29,0.17-0.58,0.2-0.75c0.06-0.18-0.01-0.29-0.18-0.36l-0.3,0.68l-3.54-0.89
		c0.12-0.44,0.22-0.72,0.24-1.01l0.59-0.02C10.46,28.94,10.56,28.85,10.56,28.59"/>
	<path class="st0" d="M15.02,25.31l-0.29,0.45l-4.42-0.05c-0.04,0.09-0.08,0.16-0.11,0.25c-0.09,0.21-0.03,0.37,0.16,0.52l3.05,2.66
		l-0.03,0.35c-0.01,0.11,0.1,0.21,0.21,0.21c0.06-0.18,0.14-0.4,0.23-0.61c0.08-0.25,0.19-0.5,0.27-0.68c0.07-0.17,0-0.29-0.12-0.36
		l-0.34,0.6l-1.1-0.9l0.55-1.39l1.39,0.05l-0.08,0.53c0,0.15,0.09,0.21,0.19,0.21c0.05-0.18,0.16-0.46,0.27-0.72
		c0.11-0.31,0.23-0.58,0.3-0.76C15.21,25.5,15.15,25.37,15.02,25.31 M12.65,26.36l-0.44,1.16l-1.5-1.25L12.65,26.36z"/>
	<path class="st0" d="M15.48,21.97c-0.64-0.34-1.08-0.12-1.71,0.45c-0.46,0.44-0.83,0.63-1.22,0.42c-0.32-0.17-0.41-0.64-0.21-1
		c0.15-0.28,0.31-0.49,0.47-0.65l0.56,0.32c0.12-0.16,0.16-0.36-0.08-0.5l-0.6-0.39c-0.17,0.2-0.45,0.56-0.63,0.93
		c-0.36,0.66-0.29,1.59,0.44,1.97c0.44,0.23,0.9,0.12,1.45-0.37c0.75-0.67,1.11-0.7,1.46-0.51c0.26,0.15,0.48,0.65,0.23,1.1
		c-0.29,0.59-0.67,0.74-1.23,0.44c-0.14,0.26-0.1,0.57,0.17,0.7c0.5,0.27,0.99-0.11,1.35-0.75C16.36,23.32,16.17,22.34,15.48,21.97"
		/>
	<path class="st0" d="M50.52,28.06l-0.12-0.54l3.22-3.04c-0.02-0.09-0.04-0.17-0.08-0.26c-0.1-0.21-0.24-0.27-0.45-0.27l-4.07,0.24
		l-0.21-0.29c-0.09-0.08-0.21-0.07-0.32,0c0.11,0.16,0.2,0.37,0.28,0.59c0.09,0.25,0.21,0.5,0.26,0.68
		c0.08,0.16,0.21,0.21,0.33,0.17l-0.14-0.66l1.4-0.12l0.57,1.37l-1.04,0.93l-0.29-0.42c-0.1-0.12-0.22-0.1-0.31-0.04
		c0.11,0.18,0.21,0.44,0.32,0.71c0.13,0.3,0.23,0.58,0.32,0.75C50.24,28.03,50.37,28.11,50.52,28.06 M51.47,25.68L51,24.53
		l1.96-0.16L51.47,25.68z"/>
	<path class="st0" d="M55.82,31.72l-0.32-1.17c-0.06-0.25-0.21-0.34-0.39-0.25l0.11,0.53l-2.99,0.79l2.66-3.43l-0.16-0.62
		c-0.1-0.28-0.28-0.31-0.39-0.22l0.05,0.57l-3.51,0.93l-0.2-0.36c-0.09-0.15-0.21-0.15-0.31-0.07c0.07,0.17,0.13,0.41,0.2,0.68
		c0.07,0.27,0.12,0.51,0.17,0.71c0.05,0.17,0.18,0.22,0.32,0.2l-0.05-0.67l2.79-0.75l-2.34,2.96c-0.21,0.26-0.25,0.41-0.21,0.56
		c0.03,0.1,0.08,0.19,0.13,0.27l3.95-1.06l0.1,0.26C55.51,31.76,55.6,31.8,55.82,31.72"/>
	<path class="st0" d="M54.52,36.99c1.4-0.2,2.07-1.15,1.85-2.67c-0.17-1.23-0.3-1.6-0.4-1.72c-0.05-0.07-0.14-0.07-0.2-0.02l0,0.56
		l-3.61,0.5l-0.15-0.37c-0.06-0.16-0.17-0.21-0.32-0.15c0.03,0.14,0.11,0.61,0.16,0.93c0.03,0.37,0.08,0.83,0.1,1.03
		C52.16,36.57,53.21,37.18,54.52,36.99 M52.32,35.12c-0.06-0.42-0.06-0.63-0.05-0.87l3.67-0.5c0.23,1.62-0.35,2.44-1.73,2.64
		C53.15,36.53,52.44,35.91,52.32,35.12"/>
	<path class="st0" d="M52.64,40.01l0.08-0.65l3.69-0.19l0.05,0.33c0.02,0.21,0.1,0.3,0.33,0.24c-0.08-1.28-0.08-1.39-0.08-1.39
		c-0.01-0.25-0.11-0.37-0.32-0.31l-0.01,0.51l-3.69,0.19l-0.1-0.41c-0.06-0.19-0.19-0.22-0.31-0.19c0.02,0.21,0.04,0.52,0.06,0.84
		c0,0.29,0.02,0.55,0.02,0.74C52.34,39.9,52.48,40.01,52.64,40.01"/>
	<path class="st0" d="M56.62,45.56l0.06-1.19c0.02-0.27-0.09-0.4-0.3-0.37l-0.08,0.53l-3.07-0.17l3.59-2.42l0.02-0.65
		c0.02-0.3-0.15-0.39-0.29-0.33l-0.12,0.56l-3.61-0.21l-0.1-0.4c-0.03-0.15-0.15-0.2-0.25-0.16c-0.01,0.18-0.01,0.43-0.03,0.7
		c-0.01,0.27-0.04,0.53-0.05,0.71c-0.02,0.18,0.1,0.27,0.24,0.3l0.15-0.65l2.89,0.15l-3.12,2.09c-0.28,0.19-0.36,0.31-0.37,0.45
		c-0.02,0.1,0,0.23,0.03,0.3l4.08,0.23l0.03,0.27C56.3,45.5,56.39,45.57,56.62,45.56"/>
	<path class="st0" d="M52.64,49.26c0.11-0.17,0.08-0.35-0.16-0.48l-0.46-0.28l0.33-1.61l1.6,0.26l-0.19,1.2l-0.44-0.09
		c-0.06,0.16-0.03,0.4,0.23,0.43c0.29,0.06,0.55,0.11,0.96,0.19c0.05-0.06,0.08-0.21,0.01-0.29c-0.07-0.11-0.14-0.14-0.35-0.17
		l0.18-1.2l1.6,0.25l-0.29,1.47l-0.66-0.01c-0.06,0.16-0.02,0.35,0.17,0.37L56,49.38l0.38-2.3c0.1-0.65,0-0.72-0.22-0.7l-0.12,0.48
		l-3.63-0.57l-0.03-0.38c-0.01-0.16-0.14-0.23-0.25-0.2l-0.51,3.14L52.64,49.26z"/>
	<path class="st0" d="M54.61,55.25l0.31-1.14c0.07-0.25-0.01-0.41-0.23-0.42l-0.19,0.5l-2.97-0.8l4.03-1.64l0.17-0.62
		c0.09-0.3-0.07-0.42-0.22-0.4l-0.24,0.53l-3.49-0.96l0.01-0.41c0-0.16-0.11-0.24-0.24-0.22c-0.03,0.17-0.09,0.43-0.18,0.68
		c-0.06,0.26-0.14,0.5-0.19,0.69c-0.06,0.17,0.05,0.29,0.18,0.34l0.3-0.6l2.78,0.75l-3.5,1.39c-0.3,0.13-0.42,0.23-0.46,0.38
		c-0.02,0.1-0.04,0.22-0.02,0.29l3.93,1.08l-0.03,0.26C54.31,55.15,54.39,55.24,54.61,55.25"/>
	<path class="st0" d="M50.37,57.49c0.67,0.26,1.08,0.01,1.64-0.62c0.41-0.48,0.77-0.7,1.16-0.55c0.35,0.14,0.46,0.59,0.32,0.99
		c-0.13,0.29-0.26,0.52-0.4,0.69l-0.59-0.27c-0.11,0.18-0.13,0.39,0.12,0.51l0.65,0.34c0.16-0.24,0.37-0.62,0.52-1
		c0.29-0.71,0.13-1.59-0.63-1.9c-0.45-0.19-0.92-0.04-1.4,0.52c-0.69,0.74-1.04,0.8-1.4,0.65c-0.28-0.11-0.55-0.58-0.38-1.05
		c0.27-0.63,0.62-0.82,1.21-0.57c0.13-0.28,0.05-0.59-0.23-0.7c-0.54-0.21-0.98,0.21-1.26,0.91C49.36,56.25,49.65,57.19,50.37,57.49
		"/>
	<path class="st0" d="M48.5,59.02l0.41-0.51l3.25,1.74l-0.12,0.3c-0.1,0.21-0.06,0.31,0.14,0.39c0.62-1.14,0.67-1.22,0.67-1.22
		c0.11-0.24,0.09-0.4-0.1-0.46l-0.3,0.44l-3.25-1.74l0.1-0.4c0.06-0.21-0.02-0.31-0.15-0.33c-0.08,0.19-0.22,0.47-0.38,0.74
		c-0.13,0.27-0.26,0.49-0.35,0.65C48.32,58.78,48.36,58.95,48.5,59.02"/>
	<path class="st0" d="M47.72,62.42c0.64,0.38,1.07,0.19,1.74-0.34c0.51-0.4,0.89-0.55,1.25-0.33c0.31,0.19,0.36,0.69,0.14,1.03
		c-0.18,0.26-0.35,0.45-0.51,0.6l-0.55-0.35c-0.13,0.16-0.18,0.35,0.05,0.51l0.56,0.43c0.19-0.17,0.48-0.54,0.69-0.88
		c0.42-0.64,0.4-1.55-0.3-1.99c-0.4-0.27-0.89-0.19-1.47,0.26c-0.79,0.61-1.15,0.63-1.49,0.4c-0.25-0.16-0.42-0.67-0.16-1.11
		c0.35-0.56,0.73-0.69,1.27-0.35c0.16-0.26,0.15-0.56-0.11-0.71c-0.48-0.31-1,0.03-1.4,0.67C46.96,61.01,47.09,61.99,47.72,62.42"/>
	<path class="st0" d="M25,72.57c-0.17-0.19-0.32-0.13-0.43-0.02l-0.38,0.35c-0.23,0-0.56-0.11-0.9-0.29
		c-0.78-0.41-1.1-1.24-0.4-2.54c0.52-1.02,1.41-1.18,2.28-0.72c0.27,0.15,0.52,0.32,0.63,0.46l-0.34,0.55
		c0.15,0.16,0.31,0.15,0.5-0.08l0.41-0.57c-0.16-0.18-0.49-0.46-0.89-0.69c-1.26-0.66-2.6-0.33-3.29,0.97
		c-0.7,1.29-0.37,2.3,0.73,2.88c0.57,0.31,1.06,0.38,1.5,0.41L25,72.57z"/>
	<path class="st0" d="M30.3,75.23l-0.59-0.27l0.9-3.59l0.29,0.06c0.23,0,0.34-0.01,0.38-0.23c-1.26-0.31-1.34-0.34-1.34-0.34
		c-0.25-0.06-0.39-0.01-0.41,0.21l0.51,0.15l-0.4,1.56l-2.34-0.57l0.39-1.56l0.34,0.06c0.23,0.02,0.34-0.01,0.37-0.23
		c-1.27-0.32-1.4-0.36-1.4-0.36c-0.27-0.06-0.41-0.01-0.41,0.2l0.5,0.16l-0.91,3.6l-0.44,0c-0.16,0-0.25,0.11-0.22,0.23
		c0.19,0.05,0.52,0.11,0.85,0.2c0.29,0.07,0.51,0.12,0.65,0.17c0.17,0.06,0.35,0.02,0.41-0.16l-0.65-0.29l0.42-1.65l2.33,0.57
		l-0.41,1.67l-0.46,0c-0.16,0-0.23,0.11-0.23,0.23c0.22,0.04,0.55,0.12,0.89,0.21c0.25,0.05,0.48,0.11,0.65,0.16
		C30.11,75.45,30.24,75.39,30.3,75.23"/>
	<path class="st0" d="M33.97,75.22l-0.66-0.08l-0.18-3.7l0.31-0.05c0.24-0.01,0.32-0.09,0.27-0.3c-1.3,0.06-1.39,0.06-1.39,0.06
		c-0.26,0-0.39,0.11-0.33,0.31l0.53,0.02l0.18,3.69l-0.4,0.11c-0.2,0.06-0.23,0.18-0.19,0.3c0.19-0.03,0.51-0.04,0.83-0.06
		c0.29-0.01,0.54-0.03,0.73-0.02C33.85,75.5,33.98,75.39,33.97,75.22"/>
	<path class="st0" d="M38.77,73.06c-0.18-0.02-0.34,0.08-0.36,0.31l-0.03,0.59l-1.6,0.4l-1.05-3.49l0.37-0.15
		c0.2-0.08,0.29-0.17,0.2-0.38c-1.33,0.41-1.4,0.43-1.4,0.43c-0.24,0.08-0.35,0.21-0.24,0.39l0.48-0.09l1.09,3.51l-0.34,0.23
		c-0.13,0.08-0.13,0.21-0.06,0.29l3.05-0.9L38.77,73.06z"/>
	<path class="st0" d="M42.39,71.04c-0.19,0.01-0.31,0.14-0.26,0.43l0.08,0.51l-1.46,0.76l-0.81-1.41l1.06-0.61l0.21,0.4
		c0.17-0.04,0.33-0.22,0.2-0.44c-0.15-0.26-0.27-0.5-0.47-0.87c-0.07,0-0.22,0.07-0.22,0.16c-0.05,0.14,0,0.21,0.1,0.4L39.75,71
		l-0.81-1.4l1.32-0.7l0.43,0.51c0.15-0.05,0.28-0.21,0.15-0.38l-0.44-0.7l-2.01,1.16c-0.61,0.35-0.57,0.44-0.43,0.61l0.46-0.21
		l1.82,3.17l-0.26,0.28c-0.11,0.11-0.09,0.26,0,0.33l2.75-1.59L42.39,71.04z"/>
	<path class="st0" d="M17.45,66.19c-0.01-0.5,0.4-0.92,0.92-0.92c0.49,0.01,0.92,0.41,0.92,0.92c0.01,0.52-0.42,0.93-0.92,0.92
		C17.85,67.12,17.45,66.7,17.45,66.19"/>
	<path class="st0" d="M45.15,66.24c0-0.52,0.4-0.92,0.92-0.92c0.51,0,0.91,0.42,0.91,0.92c0,0.51-0.42,0.93-0.92,0.92
		C45.56,67.16,45.14,66.75,45.15,66.24"/>
	<path class="st0" d="M50.53,40.93c0.01-4.18-0.62-8.11-1.73-11.63C45.33,18.15,38.15,13.02,32.3,13.01
		C26.44,13,19.23,18.13,15.73,29.3c-1.09,3.49-1.74,7.57-1.75,11.72c-0.02,18.21,10.5,28.05,18.23,28.06
		C39.96,69.1,50.51,59.15,50.53,40.93 M31.94,40.73L14.62,40.7c0.05-3.98,0.67-7.86,1.71-11.22c3.39-10.8,10.21-15.66,15.65-15.83
		L31.94,40.73z M31.9,68.44c-7.18-0.28-17.19-9.53-17.28-27.1l17.32,0.02L31.9,68.44z M32.57,41.38l17.31,0.02
		C49.7,58.88,39.7,68.18,32.52,68.45L32.57,41.38z M49.89,40.75l-17.32-0.01l0.05-27.07c5.43,0.19,12.21,5.05,15.56,15.83
		C49.26,32.88,49.9,36.7,49.89,40.75"/>
	<path class="st0" d="M40.14,53.02l4.84,0.01c0.1-0.01,0.27-0.06,0.29-0.32v-5.33c0-0.14,0.01-0.26,0.29-0.25
		c0.23,0,0.26,0.14,0.26,0.26l-0.01,5.7c0,0.53-0.47,0.46-0.47,0.46l-5.19-0.01l-5.18-0.01c0,0-0.48,0.07-0.47-0.48l0.01-5.68
		c0-0.14,0.01-0.26,0.26-0.26c0.26,0,0.26,0.11,0.26,0.25l0,5.34c0.03,0.25,0.2,0.29,0.3,0.31L40.14,53.02z"/>
	<path class="st0" d="M40.14,52.1l3.76,0.01c0.56,0,0.52-0.26,0.32-0.38c-1.07-0.4-2.67-0.47-3.59-0.01
		c-0.36,0.21-0.31-0.16-0.31-0.3l0.02-4.78c0-0.26,0.3-1,2.98-0.9c1.45,0.06,1.47,0.33,1.47,0.53l-0.02,5.87
		c0,0.48-0.43,0.44-0.43,0.44l-4.18,0l-4.17-0.01c0,0-0.44,0.02-0.44-0.44l0.02-5.89c0-0.19,0-0.46,1.46-0.51
		c2.7-0.08,2.99,0.64,2.99,0.9l-0.01,4.78c0,0.15,0.06,0.51-0.31,0.32c-0.93-0.48-2.52-0.41-3.59-0.01
		c-0.22,0.11-0.25,0.36,0.32,0.37L40.14,52.1z"/>
	<path class="st0" d="M45.85,30.65c-0.09-0.14-0.33,0.01-0.55,0c-0.65-0.04-1.03-0.34-1.66-0.43c-0.19-0.05-0.39-0.12-0.48-0.15
		c0.82-0.3,1.31-1.3,0.86-1.51c-0.12-0.08-0.24,0.19-0.41,0.29c-0.47,0.3-0.87-0.04-1.37,0.25c0.24-0.23,0.29-0.45,0.45-0.81
		c0.27-0.59,0.69-1.67,0.25-1.67c-0.16-0.01-0.19,0.28-0.33,0.43c-0.44,0.5-0.91,0.6-1.34,1.03c-0.14,0.12-0.29,0.22-0.36,0.3
		c0.21-0.83-0.3-1.82-0.74-1.59c-0.14,0.07,0.01,0.31,0,0.51c-0.05,0.54-0.54,0.68-0.61,1.19c-0.03-0.31-0.19-0.5-0.38-0.82
		c-0.32-0.57-0.93-1.54-1.21-1.19c-0.1,0.12,0.1,0.32,0.15,0.53c0.15,0.61-0.05,1.07,0.04,1.64c0,0.12,0.03,0.25,0.05,0.37
		c-0.5-0.65-1.53-0.87-1.64-0.4c-0.03,0.15,0.26,0.19,0.41,0.33c0.38,0.39,0.17,0.83,0.52,1.23c-0.27-0.18-0.52-0.18-0.88-0.24
		c-0.66-0.12-1.79-0.27-1.7,0.16c0.04,0.16,0.32,0.13,0.51,0.22c0.57,0.3,0.8,0.73,1.28,1.04c0.1,0.08,0.2,0.15,0.32,0.21
		c-0.83-0.01-1.65,0.67-1.34,1.04c0.1,0.13,0.3-0.08,0.5-0.11c0.53-0.06,0.78,0.39,1.29,0.34c-0.3,0.12-0.45,0.3-0.73,0.56
		c-0.49,0.45-1.32,1.23-0.9,1.44c0.14,0.07,0.28-0.18,0.48-0.27c0.58-0.27,1.06-0.18,1.6-0.38c0.11-0.04,0.26-0.08,0.36-0.12
		c-0.56,0.63-0.55,1.68-0.07,1.69c0.17,0,0.15-0.3,0.24-0.46c0.3-0.46,0.8-0.34,1.09-0.78c-0.11,0.3-0.05,0.55-0.03,0.92
		c0.02,0.64,0.1,1.79,0.51,1.6c0.15-0.06,0.06-0.32,0.1-0.54c0.17-0.61,0.56-0.93,0.74-1.46c0.05-0.12,0.11-0.23,0.14-0.38
		c0.12,0.85,0.99,1.55,1.29,1.18c0.11-0.14-0.14-0.29-0.21-0.48c-0.19-0.5,0.22-0.83,0.07-1.36c0.18,0.3,0.39,0.41,0.69,0.63
		c0.53,0.39,1.48,1.03,1.59,0.59c0.05-0.15-0.22-0.25-0.35-0.42c-0.4-0.51-0.42-1-0.7-1.48c-0.09-0.15-0.16-0.3-0.18-0.38
		c0.76,0.46,1.89,0.24,1.77-0.26c-0.02-0.15-0.31-0.06-0.5-0.15c-0.5-0.18-0.51-0.67-0.96-0.9c0.3,0.02,0.51-0.07,0.87-0.16
		C45.02,31.33,46.11,31.01,45.85,30.65 M43.11,31.56c0.01,1.52-1.24,2.75-2.74,2.74c-1.52-0.01-2.74-1.23-2.74-2.74
		c0.01-1.52,1.24-2.75,2.75-2.75C41.88,28.81,43.12,30.04,43.11,31.56"/>
	<path class="st0" d="M38.16,31.56c0.01-1.23,1-2.21,2.22-2.2c1.22,0.01,2.2,0.98,2.19,2.2c0.01,1.23-0.99,2.2-2.2,2.2
		C39.15,33.75,38.16,32.77,38.16,31.56"/>
	<path class="st0" d="M22.07,46.5l0.64-0.62l-0.47,0c-0.18,0-0.34,0.15-0.34,0.32C21.9,46.32,21.98,46.45,22.07,46.5 M25.69,46.5
		c0.08-0.06,0.16-0.17,0.16-0.3c0-0.18-0.14-0.33-0.34-0.33l-0.47-0.01L25.69,46.5z M23.86,45.07c0.21,0,0.39,0.02,0.53,0.11
		c0.24,0.13,0.35,0.3,0.35,0.3l0.98-0.01c0,0,0.47,0.02,0.62,0.47c0.15,0.5-0.34,0.93-0.34,0.93c0.22,0.19,2.04,1.99,2.26,2.22
		c0.31,0.3,0.46,0.79,0.32,1.38c-0.06,0.32-0.3,0.43-0.5,0.28c-0.14-0.11-2.55-3.15-2.55-3.15s-0.09-0.1-0.14-0.06
		c-0.06,0.04-0.02,0.1,0.01,0.17c0.05,0.07,2.5,3.39,2.5,3.39s0.29,0.41,0.17,0.8c-0.08,0.32-0.53,1.01-0.91,1.1
		c-0.22,0.05-0.57-0.01-0.7-0.34c-0.44-1.17-1.59-4.66-1.59-4.66s-0.09-0.24-0.21-0.21c-0.1,0.03-0.02,0.26-0.02,0.26
		s1.37,4.45,1.53,4.94c0.08,0.29,0.07,0.59-0.17,0.83c-0.19,0.2-0.45,0.38-1.28,0.55c-0.06,0-0.58-0.04-0.62-0.48
		c-0.05-0.62-0.09-5.78-0.09-5.78s-0.01-0.23-0.13-0.23c-0.14,0-0.15,0.23-0.15,0.23s-0.06,5.17-0.1,5.78
		c-0.03,0.45-0.55,0.48-0.64,0.48c-0.82-0.16-1.08-0.34-1.27-0.55c-0.23-0.23-0.25-0.53-0.15-0.82c0.14-0.49,1.54-4.94,1.54-4.94
		s0.06-0.23-0.05-0.26c-0.12-0.03-0.2,0.22-0.2,0.22s-1.15,3.49-1.58,4.65c-0.14,0.32-0.5,0.41-0.72,0.33
		c-0.37-0.1-0.83-0.79-0.9-1.1c-0.11-0.41,0.19-0.79,0.19-0.79s2.46-3.33,2.5-3.4c0.04-0.06,0.08-0.12,0.01-0.16
		c-0.07-0.05-0.16,0.06-0.16,0.06s-2.4,3.01-2.54,3.15c-0.19,0.14-0.43,0.03-0.51-0.3c-0.13-0.58,0.01-1.07,0.33-1.39
		c0.22-0.2,2.05-2,2.26-2.18c0,0-0.49-0.43-0.34-0.93c0.15-0.47,0.63-0.48,0.63-0.48l0.99,0.01c0,0,0.11-0.17,0.34-0.29
		C23.53,45.08,23.67,45.07,23.86,45.07"/>
	<path class="st0" d="M26.14,28.64c0,0-0.4,0.73-0.67,1.01c-0.29,0.31,0.43,0.38,0.64,0.14c0.17-0.23,0.54-0.85,0.54-0.85
		s0.01-0.48-0.16-0.6C26.34,28.23,26.14,28.64,26.14,28.64 M28.32,35.33c0,0,0.14,0.18-0.04,0.34c-0.2,0.16-0.34-0.04-0.34-0.04
		l-0.6-0.74c-0.6,0.14-1.64-0.86-1.99-1.03c-0.37-0.19-0.97,0.89-1.28,0.16c-0.66-1.55-2.51,0.98-3.13,0.94
		c-0.64-0.06,0.1-0.83-0.03-1.33c-0.14-0.51-0.75-0.01-1.27,0.14c-0.16,0.05-0.4,0.09-0.63,0.11l-1.46,1.81c0,0-0.15,0.19-0.33,0.02
		c-0.2-0.15-0.05-0.35-0.05-0.35L22,29.1c0,0,0.13-0.2,0.28-0.36c0.42-0.44,0.81-0.55,1.38,0.06c0.17,0.2,0.51,0.66,0.87,1.18
		c0.36-0.59,1.25-1.7,1.5-2.08c0.3-0.45,0.7-0.33,0.92-0.13c0.41,0.33,1.46,1.87,2.11,2.45c0.06,0.02,0.09,0.07,0.1,0.11l0.68,0.68
		c0,0,0.17,0.16-0.02,0.34c-0.17,0.17-0.33,0-0.33,0l-0.67-0.69c-0.24,0.05-0.52,0.05-0.67,0.02c-0.3-0.08-0.81-0.54-0.63,0.36
		c0.07,0.31,0.15,0.44-0.22,0.47c-0.41,0.04-1.6-1.05-1.85-0.69c-0.06,0.09-0.14,0.18-0.21,0.25
		C25.61,31.67,28.32,35.33,28.32,35.33 M22.31,31.62c-0.02-0.52-0.06-0.48,0.23-0.89c0.21-0.35,0.24-0.84,0.3-1.24
		c0.04-0.21-0.22-0.28-0.3-0.02c-0.09,0.18-0.3,0.39-0.42,0.59c-0.36,0.44-0.97,1.34-1.18,1.67c-0.13,0.21-0.82,0.7-0.72,1.05
		c0.06,0.18,0.4,0.16,0.81-0.24c0.23-0.24,0.26-0.29,0.43-0.31c0.3,0.05,0.01,0.31,0.35,0.39C22.17,32.71,22.31,31.93,22.31,31.62"
		/>
	<path class="st0" d="M75.99,47.24c-0.78,0.64-1.75,0.97-2.88,0.97c-1.12,0-2.11-0.33-2.89-0.97c-0.87-0.72-1.22-1.56-1.22-2.92
		v-6.9h1.3v6.5c0,1.31,0.1,1.67,0.6,2.23c0.53,0.59,1.3,0.91,2.2,0.91c0.91,0,1.68-0.32,2.2-0.91c0.5-0.56,0.59-0.92,0.59-2.23v-6.5
		h1.31v6.9C77.2,45.72,76.87,46.53,75.99,47.24"/>
	<path class="st0" d="M84.99,47.91v-5.1c0-0.48-0.03-0.63-0.11-0.84c-0.11-0.24-0.39-0.38-0.73-0.38c-0.73,0-1.51,0.54-2.77,1.92
		v4.4h-1.19v-7.2h1.19v1.51c0.49-0.56,0.64-0.7,0.98-0.99c0.54-0.46,1.26-0.72,1.93-0.72c1.27,0,1.89,0.66,1.89,2v5.39H84.99z"/>
	<path class="st0" d="M89.01,40.71h1.2v7.2h-1.2V40.71z M89.61,38.98c-0.43,0-0.77-0.35-0.77-0.78c0-0.43,0.35-0.78,0.77-0.78
		c0.43,0,0.78,0.35,0.78,0.78C90.39,38.63,90.05,38.98,89.61,38.98"/>
	<polygon class="st0" points="95.8,48.12 94.7,48.12 92,40.71 93.31,40.71 95.29,46.54 95.33,46.83 95.34,46.56 97.29,40.71 
		98.6,40.71 	"/>
	<path class="st0" d="M103.01,41.6c-1.01,0-1.7,0.6-1.98,1.72h3.53C104.55,42.2,103.99,41.6,103.01,41.6 M100.93,44.21
		c0,1.75,0.89,2.81,2.36,2.81c0.64,0,1.1-0.17,1.87-0.72l0.48,0.94c-1.06,0.66-1.67,0.87-2.61,0.87c-2.01,0-3.36-1.53-3.36-3.8
		c0-2.29,1.35-3.8,3.4-3.8c1.68,0,2.78,1.19,2.78,2.99v0.7H100.93z"/>
	<path class="st0" d="M111.38,42.01c-0.24-0.21-0.37-0.28-0.51-0.28c-0.45,0-1.02,0.65-1.7,1.89v4.29h-1.19v-7.2h1.19v1.3
		c0.89-1.14,1.33-1.49,1.88-1.49c0.27,0,0.6,0.18,0.92,0.5L111.38,42.01z"/>
	<path class="st0" d="M115.77,48.12c-0.3,0-0.63-0.03-1-0.1c-0.68-0.13-0.98-0.24-1.7-0.6l0.49-1l0.36,0.19
		c0.72,0.38,1.38,0.49,1.83,0.49c0.73,0,1.27-0.4,1.27-0.95c0-0.18-0.07-0.38-0.15-0.5c-0.29-0.42-0.61-0.62-1.91-1.14
		c-1.4-0.59-1.88-1.08-1.88-1.95c0-1.26,1.05-2.04,2.74-2.04c0.3,0,0.62,0.02,0.92,0.08c0.54,0.1,0.8,0.21,1.4,0.54l-0.6,0.97
		c-0.46-0.29-0.66-0.38-1.03-0.48c-0.28-0.08-0.56-0.13-0.82-0.13c-0.81,0-1.34,0.36-1.34,0.91c0,0.17,0.06,0.33,0.17,0.44
		c0.29,0.29,0.48,0.4,1.78,0.94c1.53,0.63,1.95,1.13,1.95,2.25C118.28,47.34,117.34,48.12,115.77,48.12"/>
	<path class="st0" d="M120.77,40.71h1.19v7.2h-1.19V40.71z M121.37,38.98c-0.43,0-0.78-0.35-0.78-0.78c0-0.43,0.35-0.78,0.78-0.78
		c0.42,0,0.78,0.35,0.78,0.78C122.15,38.63,121.79,38.98,121.37,38.98"/>
	<path class="st0" d="M129.56,43.22c0-0.56-0.01-0.72-0.14-0.96c-0.2-0.4-0.72-0.61-1.44-0.61c-1.53,0-2.51,1.1-2.51,2.83
		c0,1.45,0.81,2.5,1.92,2.5c0.44,0,0.96-0.17,1.41-0.49c0.27-0.19,0.44-0.37,0.77-0.78V43.22z M129.56,47.91v-0.9
		c-0.63,0.72-1.48,1.11-2.38,1.11c-1.77,0-3.01-1.48-3.01-3.61c0-2.32,1.54-3.99,3.67-3.99c0.76,0,1.26,0.15,1.71,0.5v-4.1h1.22v11
		H129.56z"/>
	<path class="st0" d="M137.17,44.62l-2.7,0.7c-0.19,0.33-0.21,0.49-0.21,0.78c0,0.57,0.38,0.94,0.98,0.94c0.54,0,0.9-0.17,1.94-0.92
		V44.62z M138.68,48.12c-0.98-0.06-1.33-0.32-1.39-1c-0.37,0.32-0.52,0.44-0.77,0.57c-0.45,0.25-1.02,0.41-1.52,0.41
		c-1.16,0-1.93-0.75-1.93-1.89c0-1.05,0.56-1.75,1.6-2l2.5-0.59v-1.3c0-0.59-0.45-0.89-1.37-0.89c-0.75,0-1.1,0.2-1.1,0.61
		c0,0.08,0.02,0.15,0.07,0.28l-1.21,0.25c-0.11-0.2-0.13-0.27-0.13-0.44c0-0.95,1.05-1.61,2.59-1.61c1.45,0,2.35,0.69,2.35,1.8v4.42
		c0.03,0.19,0.22,0.32,0.59,0.38L138.68,48.12z"/>
	<path class="st0" d="M146.01,43.22c0-0.56-0.01-0.72-0.15-0.96c-0.21-0.4-0.72-0.61-1.45-0.61c-1.53,0-2.51,1.1-2.51,2.83
		c0,1.45,0.81,2.5,1.92,2.5c0.43,0,0.95-0.17,1.4-0.49c0.27-0.19,0.44-0.37,0.78-0.78V43.22z M146.01,47.91v-0.9
		c-0.64,0.72-1.48,1.11-2.39,1.11c-1.77,0-3-1.48-3-3.61c0-2.32,1.53-3.99,3.67-3.99c0.77,0,1.25,0.15,1.72,0.5v-4.1h1.21v11H146.01
		z"/>
	<path class="st0" d="M74.38,56.98c0-0.55-0.01-0.72-0.14-0.95c-0.2-0.4-0.72-0.6-1.44-0.6c-1.52,0-2.5,1.09-2.5,2.82
		c0,1.44,0.8,2.49,1.92,2.49c0.43,0,0.95-0.18,1.4-0.49c0.26-0.19,0.44-0.36,0.77-0.78V56.98z M74.38,61.65v-0.9
		c-0.63,0.71-1.47,1.11-2.38,1.11c-1.75,0-2.99-1.47-2.99-3.6c0-2.31,1.54-3.98,3.66-3.98c0.76,0,1.25,0.14,1.71,0.49v-4.09h1.21
		v10.96H74.38z"/>
	<path class="st0" d="M81.01,55.36c-0.99,0-1.69,0.6-1.95,1.71h3.52C82.55,55.96,81.99,55.36,81.01,55.36 M78.96,57.96
		c0,1.75,0.89,2.8,2.35,2.8c0.63,0,1.09-0.17,1.86-0.71l0.48,0.93c-1.07,0.66-1.67,0.87-2.6,0.87c-2,0-3.35-1.52-3.35-3.78
		c0-2.29,1.35-3.79,3.39-3.79c1.68,0,2.78,1.19,2.78,2.98v0.7H78.96z"/>
	<rect x="90.04" y="51.28" class="st0" width="1.19" height="10.37"/>
	<path class="st0" d="M96.91,55.34c-1.26,0-2.25,1.2-2.25,2.73s0.98,2.73,2.25,2.73c1.25,0,2.23-1.2,2.23-2.73
		S98.16,55.34,96.91,55.34 M96.91,61.86c-1.95,0-3.55-1.73-3.55-3.79c0-2.07,1.6-3.79,3.55-3.79c1.94,0,3.53,1.71,3.53,3.79
		C100.44,60.13,98.85,61.86,96.91,61.86"/>
	<path class="st0" d="M104.91,61.86c-0.3,0-0.63-0.03-0.99-0.1c-0.69-0.13-0.99-0.24-1.7-0.6l0.49-1l0.36,0.19
		c0.72,0.38,1.39,0.49,1.82,0.49c0.73,0,1.27-0.39,1.27-0.95c0-0.17-0.06-0.38-0.14-0.49c-0.28-0.42-0.62-0.62-1.9-1.15
		c-1.4-0.58-1.87-1.08-1.87-1.95c0-1.25,1.04-2.03,2.72-2.03c0.3,0,0.62,0.01,0.92,0.08c0.54,0.1,0.79,0.2,1.4,0.53l-0.59,0.97
		c-0.46-0.29-0.66-0.38-1.03-0.48c-0.29-0.08-0.56-0.13-0.83-0.13c-0.8,0-1.33,0.37-1.33,0.91c0,0.17,0.06,0.33,0.17,0.44
		c0.29,0.28,0.47,0.4,1.78,0.93c1.52,0.64,1.95,1.13,1.95,2.25C107.42,61.08,106.48,61.86,104.91,61.86"/>
	<path class="st0" d="M117.05,52.59l-1.71,4.79h3.4L117.05,52.59z M120.24,61.65l-1.08-3.09h-4.23l-1.08,3.09h-1.39l3.9-10.76h1.39
		l3.89,10.76H120.24z"/>
	<path class="st0" d="M128.06,61.65v-5.09c0-0.47-0.03-0.63-0.11-0.83c-0.11-0.24-0.4-0.38-0.73-0.38c-0.73,0-1.5,0.54-2.76,1.91
		v4.39h-1.19v-7.17h1.19v1.5c0.48-0.55,0.64-0.7,0.98-0.99c0.54-0.46,1.26-0.71,1.92-0.71c1.27,0,1.89,0.65,1.89,2v5.37H128.06z"/>
	<path class="st0" d="M136.77,56.98c0-0.55-0.02-0.72-0.14-0.95c-0.21-0.4-0.72-0.6-1.45-0.6c-1.52,0-2.5,1.09-2.5,2.82
		c0,1.44,0.81,2.49,1.92,2.49c0.43,0,0.95-0.18,1.4-0.49c0.26-0.19,0.44-0.36,0.78-0.78V56.98z M136.77,61.65v-0.9
		c-0.64,0.71-1.48,1.11-2.38,1.11c-1.76,0-2.99-1.47-2.99-3.6c0-2.31,1.54-3.98,3.66-3.98c0.76,0,1.25,0.14,1.72,0.49v-2.9l1.2-1.18
		v10.96H136.77z"/>
	<path class="st0" d="M143.4,55.36c-1,0-1.7,0.6-1.96,1.71h3.51C144.94,55.96,144.38,55.36,143.4,55.36 M141.34,57.96
		c0,1.75,0.89,2.8,2.35,2.8c0.64,0,1.1-0.17,1.87-0.71l0.48,0.93c-1.06,0.66-1.66,0.87-2.6,0.87c-1.99,0-3.34-1.52-3.34-3.78
		c0-2.29,1.35-3.79,3.39-3.79c1.68,0,2.78,1.19,2.78,2.98v0.7H141.34z"/>
	<path class="st0" d="M150.62,61.86c-0.3,0-0.63-0.03-1-0.1c-0.68-0.13-0.99-0.24-1.69-0.6l0.49-1l0.36,0.19
		c0.72,0.38,1.38,0.49,1.82,0.49c0.73,0,1.27-0.39,1.27-0.95c0-0.17-0.07-0.38-0.14-0.49c-0.29-0.42-0.62-0.62-1.91-1.15
		c-1.39-0.58-1.87-1.08-1.87-1.95c0-1.25,1.05-2.03,2.73-2.03c0.3,0,0.62,0.01,0.92,0.08c0.54,0.1,0.79,0.2,1.4,0.53l-0.59,0.97
		c-0.46-0.29-0.66-0.38-1.03-0.48c-0.28-0.08-0.55-0.13-0.83-0.13c-0.8,0-1.33,0.37-1.33,0.91c0,0.17,0.07,0.33,0.18,0.44
		c0.28,0.28,0.47,0.4,1.77,0.93c1.53,0.64,1.95,1.13,1.95,2.25C153.13,61.08,152.2,61.86,150.62,61.86"/>
	<path class="st0" d="M77.39,25.74c-0.74-0.53-1.61-0.79-2.61-0.79c-2.17,0-3.73,1.54-3.73,3.69c0,2.43,1.61,4.03,4.08,4.03
		c0.8,0,1.47-0.14,2.48-0.53l0.39,1.82c-0.73,0.33-1.01,0.43-1.52,0.55c-0.55,0.12-1.15,0.19-1.82,0.19c-1.77,0-3.03-0.44-4.09-1.41
		c-1.21-1.08-1.91-2.76-1.91-4.52c0-1.65,0.62-3.14,1.73-4.24c1.13-1.12,2.4-1.57,4.27-1.57c1.44,0,2.57,0.34,3.55,1.08L77.39,25.74
		z"/>
	<rect x="82.04" y="21.96" class="st0" width="2.04" height="12.5"/>
	<path class="st0" d="M88.6,26.49h2.03v7.97H88.6V26.49z M90.27,25.55h-1.85l2.27-2.88h2.23L90.27,25.55z"/>
	<path class="st0" d="M100.27,34.46v-5.13c0-0.99-0.17-1.35-0.66-1.35c-0.44,0-1.03,0.43-1.92,1.39l-0.28,0.29v4.8h-2.06v-7.97h2.06
		v1.32c0.96-1.04,1.75-1.47,2.76-1.47c1.44,0,2.16,0.75,2.16,2.26v5.86H100.27z"/>
	<path class="st0" d="M106.97,26.49h2.04v7.97h-2.04V26.49z M108,25.02c-0.63,0-1.16-0.62-1.16-1.39c0-0.77,0.52-1.39,1.16-1.39
		c0.64,0,1.15,0.62,1.15,1.39C109.15,24.4,108.64,25.02,108,25.02"/>
	<path class="st0" d="M116.98,34.69c-2.47,0-4.06-1.63-4.06-4.13c0-2.58,1.7-4.31,4.23-4.31c0.44,0,0.87,0.05,1.31,0.14
		c0.58,0.14,0.85,0.26,1.53,0.65l-0.98,1.56c-0.6-0.47-1-0.62-1.61-0.62c-1.36,0-2.32,1.06-2.32,2.56c0,1.42,0.85,2.4,2.09,2.4
		c0.69,0,1.18-0.17,2.06-0.69l0.75,1.67C118.87,34.48,117.98,34.69,116.98,34.69"/>
	<path class="st0" d="M127.44,30.91l-2.04,0.67c-0.12,0.31-0.16,0.47-0.16,0.67c0,0.52,0.32,0.83,0.83,0.83
		c0.26,0,0.57-0.09,0.84-0.24c0.14-0.07,0.24-0.13,0.53-0.36V30.91z M129.81,34.56h-0.43c-1.02,0-1.35-0.17-1.71-0.87
		c-0.75,0.69-1.42,0.98-2.24,0.98c-1.35,0-2.3-0.89-2.3-2.16c0-0.28,0.05-0.55,0.13-0.81c0.27-0.74,0.75-1.12,1.92-1.46l2.26-0.65
		v-0.67c0-0.85-0.3-1.24-0.97-1.24c-0.62,0-1.12,0.32-1.12,0.72c0,0.07,0.02,0.11,0.05,0.21l-1.96,0.43
		c-0.08-0.24-0.11-0.32-0.11-0.55c0-1.41,1.24-2.21,3.4-2.21c1.9,0,2.76,0.79,2.76,2.53v3.33c0,0.72,0.08,0.84,0.63,0.89
		L129.81,34.56z"/>
</g>
</svg>
