<?xml version="1.0" encoding="utf-8"?>
<!-- Generator: Adobe Illustrator 24.0.0, SVG Export Plug-In . SVG Version: 6.00 Build 0)  -->
<svg version="1.1" id="Layer_1" xmlns="http://www.w3.org/2000/svg" xmlns:xlink="http://www.w3.org/1999/xlink" x="0px" y="0px"
	 viewBox="0 0 508.94 130" style="enable-background:new 0 0 508.94 130;" xml:space="preserve">
<style type="text/css">
	.st0{fill:#E52521;}
	.st1{fill:#E52621;}
	.st2{fill:#030304;}
	.st3{fill:#030405;}
	.st4{fill:#070708;}
</style>
<g>
	<path class="st0" d="M25.4,44.34c6.52,0,13.04,0.07,19.56-0.04c1.87-0.03,2.47,0.37,2.44,2.36c-0.13,7.61-0.25,15.22-0.01,22.83
		c0.35,10.97-7.65,17.74-17.82,18.03c-8.06,0.22-16.13,0.01-24.19,0.08c-1.44,0.01-1.9-0.37-1.9-1.85
		c0.05-13.17,0.06-26.33-0.01-39.5c-0.01-1.71,0.64-1.94,2.11-1.92C12.19,44.37,18.79,44.34,25.4,44.34z"/>
	<path class="st1" d="M86.9,86.07c-0.61,0.94-0.36,2-0.37,3c-0.01,12.48-0.04,24.97,0.03,37.45c0.01,1.72-0.33,2.34-2.22,2.33
		c-13.13-0.08-26.25-0.04-39.38-0.06c-1.01,0-2.31,0.45-2.29-1.45c0.09-8.46,0.19-16.92,0.14-25.38
		c-0.05-8.16,6.6-16.11,17.94-16.31c8.58-0.15,17.15-0.09,25.73-0.13C86.61,85.72,86.76,85.89,86.9,86.07z"/>
	<path class="st0" d="M86.9,86.07c-0.14-0.18-0.28-0.36-0.43-0.54c0.01-8.3-0.01-16.6,0.04-24.9c0.05-8.71,5.03-15.62,12.68-17.53
		c1.73-0.43,3.56-0.58,5.35-0.59c7.64-0.06,15.29,0.02,22.93-0.06c1.68-0.02,2.4,0.27,2.39,2.19c-0.09,13.18-0.06,26.36-0.03,39.54
		c0,1.27-0.06,2.03-1.73,2.02C114.37,86.11,100.64,86.11,86.9,86.07z"/>
	<path class="st0" d="M69.61,0.56c6.53,0,13.05,0.05,19.58-0.04c1.6-0.02,2.03,0.44,2.01,2.01c-0.11,8.13,0,16.26-0.17,24.38
		c-0.19,8.8-6.51,17.52-17.84,17.17C65.46,43.85,57.73,44,50,44.08c-1.67,0.02-2.37-0.22-2.36-2.15
		c0.09-13.09,0.08-26.18,0.01-39.27c-0.01-1.66,0.42-2.15,2.12-2.13C56.39,0.62,63,0.56,69.61,0.56z"/>
	<path class="st2" d="M159.67,128.16c3.5-4.74,2.34-9.8,2.37-14.69c0.07-13.52,0-27.04,0.04-40.56c0.01-3.2-0.31-6.32-1.61-9.27
		c-0.47-1.06-0.71-1.77,0.91-1.67c11.03,0.66,22.15-0.66,33.13,1.37c15.66,2.9,24.6,13.19,25.95,29.04
		c0.89,10.51-1.81,19.49-9.58,26.68c-6.72,6.21-15.03,8.61-24.01,9.04C178.04,128.53,169.2,128.2,159.67,128.16z M172.44,94.82
		c0,8.56,0.03,17.12-0.02,25.68c-0.01,2.27,0.87,3.66,3.18,3.81c9.04,0.6,17.7-0.55,25.03-6.4c6.44-5.13,8.64-12.29,8.98-20.18
		c0.37-8.61-0.97-16.72-7.21-23.3c-7.16-7.54-16.28-9.28-26.15-8.63c-3.39,0.23-3.79,0.77-3.79,4.11
		C172.43,78.21,172.44,86.51,172.44,94.82z"/>
	<path class="st3" d="M234.58,128.84c-3.43,0-6.16,0-8.89,0c-0.49,0-0.98,0-1.8,0c10.39-22.84,19.61-45.82,29.57-68.73
		c11.27,22.86,20.4,46.4,32.54,68.57c-5.27,0-10.73,0-16.32,0c2.77-7.92-2.49-13.98-4.87-20.73c-0.37-1.04-1.18-0.81-1.91-0.81
		c-7.73-0.01-15.45-0.01-23.18,0c-0.75,0-1.51-0.15-1.86,0.89c-1.7,4.99-4.41,9.62-5.16,14.95
		C232.41,125.05,232.68,126.86,234.58,128.84z M251.46,75.58c-1.07,2.57-1.95,4.69-2.83,6.8c-2.59,6.22-5.2,12.43-7.75,18.67
		c-0.25,0.61-1.59,1.87,0.47,1.89c7.09,0.06,14.18,0.02,21.64,0.02C259.11,93.77,255.38,84.91,251.46,75.58z"/>
	<path class="st3" d="M505.36,128.84c-5.11,0-10.15-0.01-15.19,0.01c-0.94,0-1.55-0.1-1.03-1.28c1.38-3.16,0.59-6.21-0.62-9.19
		c-1.35-3.32-2.83-6.58-4.17-9.9c-0.42-1.04-0.99-1.38-2.1-1.37c-7.73,0.05-15.46,0.03-23.19,0.01c-0.9,0-1.64,0.02-2.02,1.08
		c-1.62,4.58-3.92,8.92-4.94,13.71c-0.5,2.34-0.51,4.6,1.69,6.92c-3.42,0-6.37,0.03-9.32-0.01c-1.75-0.02-0.83-1.01-0.53-1.7
		c2.95-6.72,5.98-13.4,8.86-20.14c6.63-15.53,13.19-31.09,19.89-46.91C484.01,82.85,493.05,106.45,505.36,128.84z M470.71,75.56
		c-3.88,9.34-7.59,18.26-11.33,27.27c7.8,0,15.22,0,22.83,0C478.4,93.79,474.67,84.93,470.71,75.56z"/>
	<path class="st3" d="M276.57,61.79c3.8,0,7.32,0.09,10.83-0.04c1.49-0.06,2.06,0.56,2.61,1.8c6.84,15.34,13.73,30.66,20.61,45.98
		c0.44,0.98,0.92,1.93,1.59,3.32c3.16-8.3,6.16-16.14,9.12-23.99c3.08-8.13,6.23-16.24,9.11-24.44c0.76-2.15,1.67-3.11,3.95-2.78
		c1.16,0.17,2.37,0.03,3.26,0.03c-10.04,21.26-17.55,43.52-26.52,65.19c-0.13,0.32-0.24,0.64-0.38,0.95
		c-0.34,0.73-0.33,1.79-1.54,1.73c-1-0.05-1.1-0.94-1.4-1.61c-2.67-5.91-5.33-11.82-8.01-17.72c-6.03-13.27-12.01-26.57-18.14-39.79
		C280.32,67.51,278.41,64.86,276.57,61.79z"/>
	<path class="st3" d="M405.16,61.84c-3.04,5.06-2.4,10.51-2.41,15.85c-0.03,14.13-0.01,28.25-0.01,42.38c0,4.12,0.69,4.88,4.7,4.96
		c7.82,0.15,15.61,0.02,23.34-1.51c3.4-0.67,6.5-1.99,9.84-3.82c-0.82,2.85-1.57,5.36-2.26,7.88c-0.28,1.02-0.89,1.27-1.89,1.27
		c-15.21-0.03-30.41-0.02-45.62-0.01c-1.3,0-1.82-0.31-1.05-1.6c2.64-4.4,2.62-9.25,2.58-14.16c-0.09-12.16-0.09-24.31,0-36.47
		c0.04-5.08-0.02-10.08-3.16-14.78C394.68,61.84,399.75,61.84,405.16,61.84z"/>
	<path class="st2" d="M353.22,61.79c4.69,0,8.8,0.01,12.91-0.01c0.79,0,1.34,0.07,1.15,1.1c-3.15,17.31-0.7,34.78-1.47,52.16
		c-0.16,3.68-0.02,7.35,1.22,10.88c0.27,0.78,0.48,1.59,0.76,2.51c-4.7,0-9.21,0-13.95,0c3.09-9.35,1.61-18.89,1.88-28.32
		c0.16-5.72,0.04-11.46,0.03-17.19C355.74,75.88,356.35,68.77,353.22,61.79z"/>
	<path class="st2" d="M332.48,45.49c-56.43,0-112.86,0-169.29,0c-0.26,0-0.55,0.08-0.77-0.01c-0.82-0.36-2.45,0.86-2.46-0.82
		c0-1.69,1.64-0.79,2.45-0.79c64.85-0.05,129.69-0.05,194.54-0.05c48.53,0,97.05-0.01,145.58,0.05c0.94,0,2.84-0.97,2.77,0.91
		c-0.06,1.52-1.83,0.67-2.77,0.67C445.86,45.5,389.17,45.49,332.48,45.49z"/>
	<path class="st4" d="M333.26,21.31c0.09-6.86,0.82-13.65-0.17-20.54c1.74-0.22,3.76-0.18,5.45-0.02
		c-0.44,9.57-0.18,19.02-0.16,28.57c-2.79,0.75-5.01,0.13-6.91-2.89c-3.44-5.48-7.4-10.63-11.62-16.58
		c0.18,6.96-0.35,13.2,0.4,19.53c-1.75,0-3.77,0-5.46,0c0.34-9.49,1.1-18.99-0.5-28.73c0.88,0,2.37,0.01,3.87,0
		c0.67,0,0.94,0.27,1.28,0.91C323.2,8.67,328.58,14.68,333.26,21.31z"/>
	<path class="st4" d="M505.47,29.29c-0.18,0.1-0.25,0.16-0.31,0.16c-1.8,0.02-3.7,0.4-5.38-0.04c-2.18-0.57-0.99-2.95-1.62-4.46
		c-1.98-4.76-1.83-4.82-5.36-4.82c-6.18,0-7.22,0.71-8.17,7.1c-0.31,2.09-1,2.44-2.77,2.29c-1.34-0.12-2.69-0.02-4.12-0.02
		c4.93-8.85,8.24-18.24,12-27.42c0.68-1.67,1.61-1.34,2.73-1.43c1.16-0.1,1.73,0.21,2.19,1.47
		C498.03,11.21,500.94,20.48,505.47,29.29z M491.86,6.49c-1.2,3.15-2.21,5.86-3.25,8.55c-0.37,0.96-0.44,1.62,0.96,1.56
		c1.77-0.08,3.55-0.02,5.56-0.02C494.05,13.27,493.06,10.2,491.86,6.49z"/>
	<path class="st4" d="M443.54,6.77c-3.51-3.35-7.26-4.73-11.48-2.78c-4.3,1.98-5.72,5.92-6.02,10.3c-0.33,4.64,0.89,8.76,5.24,11.14
		c4.3,2.36,8.25,1.22,11.79-1.88c0.1-0.09,0.3-0.06,0.46-0.08c0.11,4.41-0.05,4.77-4.25,5.67c-5.77,1.24-11.27,0.69-15.22-4.21
		c-3.91-4.85-4.63-10.53-2-16.14c2.62-5.6,7.45-8.27,13.69-8.26c1.03,0,2.06,0.04,3.08,0.15C443.81,1.21,443.83,1.24,443.54,6.77z"
		/>
	<path class="st4" d="M182.08,23.55c0.42,4.15,0.18,4.62-3.28,5.44c-5.51,1.31-10.87,1.13-15.1-3.14
		c-4.12-4.16-5.07-9.38-3.66-14.96c1.34-5.31,6.41-9.53,11.97-10.22c1.97-0.24,3.96-0.33,5.9,0.04c5.5,1.04,4.65,0.49,4.35,5.81
		c-1.88-1.47-3.67-2.84-5.97-3.22c-5.72-0.94-10.04,2.7-11.31,9.57c-1.32,7.1,2.78,13.28,9.13,13.75
		C177.07,26.83,179.52,25.5,182.08,23.55z"/>
	<path class="st2" d="M219.73,0.76c1.74,0,3.78,0,5.77,0c-1,8-0.23,15.99-0.51,23.97c-0.04,1.28,0.6,1.33,1.56,1.31
		c2.59-0.05,5.06-0.64,7.63-1.55c0.07,1.47-0.74,2.64-0.99,3.94c-0.18,0.94-0.85,1.1-1.72,1.09c-4.02-0.03-8.04-0.02-11.81-0.02
		C220.49,19.85,220.42,10.35,219.73,0.76z"/>
	<path class="st4" d="M270.16,0.75c1.89,0,3.92,0,5.98,0c-1.02,4.34-0.99,24.84,0.05,28.64c-2.13,0-4.24,0-5.94,0
		C270.63,19.89,270.7,10.42,270.16,0.75z"/>
	<path class="st2" d="M383.1,29.44c-1.81,0-3.86,0-6.07,0c1.54-4.71,0.85-9.49,0.84-14.21c-0.01-4.74,0.69-9.54-0.77-14.4
		c2.1,0,4.17,0,5.94,0C382.61,10.29,382.53,19.82,383.1,29.44z"/>
</g>
</svg>
