<?xml version="1.0" encoding="utf-8"?>
<!-- Generator: Adobe Illustrator 24.0.0, SVG Export Plug-In . SVG Version: 6.00 Build 0)  -->
<svg version="1.1" id="Layer_1" xmlns="http://www.w3.org/2000/svg" xmlns:xlink="http://www.w3.org/1999/xlink" x="0px" y="0px"
	 viewBox="0 0 59.19 59.19" style="enable-background:new 0 0 59.19 59.19;" xml:space="preserve">
<style type="text/css">
	.st0{fill:#FFFFFF;}
</style>
<g>
	<g>
		<path class="st0" d="M29.43,56.89c-15.05,0-27.29-12.24-27.29-27.29C2.14,14.55,14.38,2.3,29.43,2.3
			c15.05,0,27.29,12.24,27.29,27.29C56.72,44.65,44.48,56.89,29.43,56.89z M29.43,5.24C16,5.24,5.07,16.16,5.07,29.6
			c0,13.43,10.93,24.36,24.36,24.36c13.43,0,24.36-10.93,24.36-24.36C53.79,16.16,42.86,5.24,29.43,5.24z"/>
	</g>
	<g>
		<path class="st0" d="M25.15,29.72v15.82c0,0.23,0.18,0.41,0.41,0.41h5.87c0.23,0,0.41-0.18,0.41-0.41V29.47h4.26
			c0.21,0,0.39-0.16,0.41-0.38l0.41-4.84c0.02-0.24-0.17-0.45-0.41-0.45h-4.67v-3.44c0-0.81,0.65-1.46,1.46-1.46h3.28
			c0.23,0,0.41-0.18,0.41-0.41v-4.84c0-0.23-0.18-0.41-0.41-0.41h-5.55c-3.25,0-5.89,2.64-5.89,5.89v4.67h-2.94
			c-0.23,0-0.41,0.18-0.41,0.41v4.84c0,0.23,0.18,0.41,0.41,0.41h2.94V29.72z"/>
	</g>
</g>
</svg>
