<?xml version="1.0" encoding="utf-8"?>
<!-- Generator: Adobe Illustrator 24.0.0, SVG Export Plug-In . SVG Version: 6.00 Build 0)  -->
<svg version="1.1" id="Layer_1" xmlns="http://www.w3.org/2000/svg" xmlns:xlink="http://www.w3.org/1999/xlink" x="0px" y="0px"
	 viewBox="0 0 59.19 59.19" style="enable-background:new 0 0 59.19 59.19;" xml:space="preserve">
<style type="text/css">
	.st0{fill:#FFFFFF;}
</style>
<g>
	<g>
		<path class="st0" d="M41.56,39.5H17.24c-1.65,0-3-1.34-3-3V22.84c0-1.65,1.34-3,3-3h24.32c1.65,0,3,1.34,3,3V36.5
			C44.56,38.15,43.22,39.5,41.56,39.5z M17.24,21.67c-0.65,0-1.17,0.53-1.17,1.17V36.5c0,0.65,0.53,1.18,1.17,1.18h24.32
			c0.65,0,1.18-0.53,1.18-1.18V22.84c0-0.65-0.53-1.17-1.18-1.17H17.24z"/>
	</g>
	<g>
		<path class="st0" d="M29.4,30.93c-0.17,0-0.33-0.05-0.48-0.14l-13.79-8.6c-0.43-0.27-0.56-0.83-0.29-1.26
			c0.27-0.43,0.83-0.56,1.26-0.29l13.3,8.3l13.3-8.3c0.43-0.27,0.99-0.14,1.26,0.29c0.27,0.43,0.14,0.99-0.29,1.26l-13.79,8.6
			C29.73,30.88,29.57,30.93,29.4,30.93z"/>
	</g>
</g>
<g>
	<path class="st0" d="M29.4,56.97c-15.05,0-27.29-12.24-27.29-27.29S14.35,2.38,29.4,2.38c15.05,0,27.29,12.24,27.29,27.29
		S44.45,56.97,29.4,56.97z M29.4,5.31c-13.43,0-24.36,10.93-24.36,24.36c0,13.43,10.93,24.36,24.36,24.36
		c13.43,0,24.36-10.93,24.36-24.36C53.76,16.24,42.83,5.31,29.4,5.31z"/>
</g>
</svg>
