<?xml version="1.0" encoding="utf-8"?>
<!-- Generator: Adobe Illustrator 24.0.0, SVG Export Plug-In . SVG Version: 6.00 Build 0)  -->
<svg version="1.1" id="Layer_1" xmlns="http://www.w3.org/2000/svg" xmlns:xlink="http://www.w3.org/1999/xlink" x="0px" y="0px"
	 viewBox="0 0 100 58.9" style="enable-background:new 0 0 100 58.9;" xml:space="preserve">
<style type="text/css">
	.st0{fill:#FFFFFF;stroke:#B2B2B2;stroke-width:0.3789;stroke-miterlimit:10;}
	.st1{enable-background:new    ;}
</style>
<path class="st0" d="M93.4,1.3H5.9C2,1.3,1.4,4.8,1.4,9.1v29c0,4.3,2,7.8,4.5,7.8H84l6.7,12.1l-1.6-12.1h4.3c2.5,0,4.5-3.5,4.5-7.8
	v-29C97.9,4.8,96.9,1.3,93.4,1.3z"/>
<g class="st1">
	<path d="M11.2,10.8l0,0.4c0.1,0.7-0.2,1.5-0.9,2.4c-0.6,0.7-1,1.3-1,1.9c0,0.7,0.4,1.2,1.3,1.2c0.5,0,1-0.2,1.4-0.4l0.3,0.9
		c-0.5,0.3-1.3,0.6-2,0.6c-1.6,0-2.3-1-2.3-2c0-0.9,0.5-1.6,1.2-2.4c0.6-0.7,0.8-1.3,0.8-2l0-0.4H11.2z M11.5,8.8
		c0,0.5-0.3,0.9-0.8,0.9S9.8,9.3,9.8,8.8c0-0.5,0.3-0.9,0.8-0.9C11.1,8,11.5,8.3,11.5,8.8z"/>
	<path d="M15.8,6.4H13v-1h6.9v1H17v8.3h-1.2V6.4z"/>
	<path d="M22.1,6.1c0,0.4-0.3,0.7-0.8,0.7c-0.4,0-0.7-0.3-0.7-0.7c0-0.4,0.3-0.8,0.8-0.8C21.8,5.4,22.1,5.7,22.1,6.1z M20.7,14.7V8
		h1.2v6.7H20.7z"/>
	<path d="M24.6,11.6c0,1.6,1.1,2.3,2.3,2.3c0.9,0,1.4-0.2,1.9-0.3l0.2,0.9c-0.4,0.2-1.2,0.4-2.2,0.4c-2.1,0-3.3-1.4-3.3-3.4
		s1.2-3.6,3.1-3.6c2.2,0,2.8,1.9,2.8,3.2c0,0.2,0,0.4,0,0.6H24.6z M28.2,10.7c0-0.8-0.3-2-1.7-2c-1.2,0-1.8,1.1-1.9,2H28.2z"/>
	<path d="M30.9,9.8c0-0.7,0-1.3-0.1-1.8h1.1L32,9.1h0c0.3-0.6,1.1-1.3,2.2-1.3c0.9,0,2.4,0.6,2.4,2.9v4h-1.2v-3.9c0-1.1-0.4-2-1.6-2
		c-0.8,0-1.4,0.6-1.6,1.2c-0.1,0.2-0.1,0.4-0.1,0.6v4h-1.2V9.8z"/>
	<path d="M39.3,11.6c0,1.6,1.1,2.3,2.3,2.3c0.9,0,1.4-0.2,1.9-0.3l0.2,0.9c-0.4,0.2-1.2,0.4-2.2,0.4c-2.1,0-3.3-1.4-3.3-3.4
		s1.2-3.6,3.1-3.6c2.2,0,2.8,1.9,2.8,3.2c0,0.2,0,0.4,0,0.6H39.3z M42.8,10.7c0-0.8-0.3-2-1.7-2c-1.2,0-1.8,1.1-1.9,2H42.8z"/>
	<path d="M45.4,13.5c0.4,0.2,1,0.5,1.6,0.5c0.9,0,1.3-0.4,1.3-1c0-0.6-0.3-0.9-1.2-1.2c-1.2-0.4-1.8-1.1-1.8-1.9c0-1.1,0.9-2,2.3-2
		c0.7,0,1.3,0.2,1.6,0.4l-0.3,0.9c-0.3-0.2-0.7-0.4-1.4-0.4c-0.7,0-1.1,0.4-1.1,0.9c0,0.6,0.4,0.8,1.3,1.1c1.2,0.4,1.8,1,1.8,2
		c0,1.2-0.9,2-2.5,2c-0.7,0-1.4-0.2-1.9-0.5L45.4,13.5z"/>
	<path d="M57.7,14.7l-0.1-0.8h0c-0.4,0.5-1.1,1-2.1,1c-1.4,0-2.1-1-2.1-1.9c0-1.6,1.4-2.5,4-2.5v-0.1c0-0.6-0.2-1.6-1.5-1.6
		c-0.6,0-1.3,0.2-1.7,0.5l-0.3-0.8c0.6-0.4,1.4-0.6,2.2-0.6c2.1,0,2.6,1.4,2.6,2.7v2.5c0,0.6,0,1.1,0.1,1.6H57.7z M57.5,11.3
		c-1.3,0-2.8,0.2-2.8,1.5c0,0.8,0.5,1.2,1.1,1.2c0.9,0,1.4-0.6,1.6-1.1c0-0.1,0.1-0.3,0.1-0.4V11.3z"/>
	<path d="M60.6,4.9h1.2v9.8h-1.2V4.9z"/>
	<path d="M69.7,8c0,0.5-0.1,1-0.1,1.8v3.9c0,1.5-0.3,2.5-1,3.1c-0.7,0.6-1.6,0.8-2.4,0.8c-0.8,0-1.7-0.2-2.2-0.6l0.3-0.9
		c0.4,0.3,1.1,0.5,2,0.5c1.2,0,2.2-0.7,2.2-2.3v-0.7h0c-0.4,0.6-1.1,1.1-2.1,1.1c-1.7,0-2.9-1.4-2.9-3.3c0-2.3,1.5-3.6,3-3.6
		c1.2,0,1.8,0.6,2.1,1.2h0l0.1-1H69.7z M68.4,10.7c0-0.2,0-0.4-0.1-0.6c-0.2-0.7-0.8-1.3-1.7-1.3c-1.2,0-2,1-2,2.5
		c0,1.3,0.7,2.4,2,2.4c0.7,0,1.4-0.5,1.7-1.2c0.1-0.2,0.1-0.4,0.1-0.7V10.7z"/>
	<path d="M77.2,12.9c0,0.7,0,1.3,0.1,1.8h-1.1l-0.1-1.1h0c-0.3,0.5-1,1.2-2.2,1.2c-1.1,0-2.3-0.6-2.3-2.9V8h1.2v3.7
		c0,1.3,0.4,2.1,1.5,2.1c0.8,0,1.4-0.6,1.6-1.1c0.1-0.2,0.1-0.4,0.1-0.6V8h1.2V12.9z"/>
	<path d="M79.3,9.8c0-0.7,0-1.3-0.1-1.8h1.1l0.1,1.1h0c0.3-0.6,1.1-1.3,2.2-1.3c0.9,0,2.4,0.6,2.4,2.9v4h-1.2v-3.9
		c0-1.1-0.4-2-1.6-2c-0.8,0-1.4,0.6-1.6,1.2c-0.1,0.2-0.1,0.4-0.1,0.6v4h-1.2V9.8z"/>
	<path d="M90.7,14.7l-0.1-0.8h0c-0.4,0.5-1.1,1-2.1,1c-1.4,0-2.1-1-2.1-1.9c0-1.6,1.4-2.5,4-2.5v-0.1c0-0.6-0.2-1.6-1.5-1.6
		c-0.6,0-1.3,0.2-1.7,0.5l-0.3-0.8c0.6-0.4,1.4-0.6,2.2-0.6c2.1,0,2.5,1.4,2.5,2.7v2.5c0,0.6,0,1.1,0.1,1.6H90.7z M90.5,11.3
		c-1.3,0-2.8,0.2-2.8,1.5c0,0.8,0.5,1.2,1.1,1.2c0.9,0,1.4-0.6,1.6-1.1c0-0.1,0.1-0.3,0.1-0.4V11.3z"/>
	<path d="M13.8,24.1c0-0.9,0-1.6-0.1-2.2h1.1l0.1,1.1h0c0.5-0.8,1.3-1.3,2.4-1.3c1.6,0,2.8,1.4,2.8,3.4c0,2.4-1.5,3.6-3,3.6
		c-0.9,0-1.7-0.4-2.1-1.1h0v3.6h-1.2V24.1z M15,25.8c0,0.2,0,0.3,0.1,0.5c0.2,0.8,1,1.4,1.8,1.4c1.3,0,2-1.1,2-2.6
		c0-1.3-0.7-2.5-2-2.5c-0.8,0-1.6,0.6-1.8,1.5c0,0.2-0.1,0.3-0.1,0.5V25.8z"/>
	<path d="M21.7,24c0-0.8,0-1.5-0.1-2.1h1.1l0,1.3h0.1c0.3-0.9,1-1.5,1.9-1.5c0.1,0,0.2,0,0.3,0v1.2c-0.1,0-0.2,0-0.4,0
		c-0.9,0-1.5,0.7-1.6,1.6c0,0.2-0.1,0.4-0.1,0.6v3.6h-1.2V24z"/>
	<path d="M26.7,25.4c0,1.6,1.1,2.3,2.3,2.3c0.9,0,1.4-0.2,1.9-0.3l0.2,0.9c-0.4,0.2-1.2,0.4-2.2,0.4c-2.1,0-3.3-1.4-3.3-3.4
		s1.2-3.6,3.1-3.6c2.2,0,2.8,1.9,2.8,3.2c0,0.2,0,0.4,0,0.6H26.7z M30.3,24.6c0-0.8-0.3-2-1.7-2c-1.2,0-1.8,1.1-1.9,2H30.3z"/>
	<path d="M38.8,21.9c0,0.5-0.1,1-0.1,1.8v3.9c0,1.5-0.3,2.5-1,3.1c-0.7,0.6-1.6,0.8-2.4,0.8c-0.8,0-1.7-0.2-2.2-0.6l0.3-0.9
		c0.4,0.3,1.1,0.5,2,0.5c1.2,0,2.2-0.7,2.2-2.3v-0.7h0c-0.4,0.6-1.1,1.1-2.1,1.1c-1.7,0-2.9-1.4-2.9-3.3c0-2.3,1.5-3.6,3-3.6
		c1.2,0,1.8,0.6,2.1,1.2h0l0.1-1H38.8z M37.5,24.5c0-0.2,0-0.4-0.1-0.6c-0.2-0.7-0.8-1.3-1.7-1.3c-1.2,0-2,1-2,2.5
		c0,1.3,0.7,2.4,2,2.4c0.7,0,1.4-0.5,1.7-1.2c0.1-0.2,0.1-0.4,0.1-0.7V24.5z"/>
	<path d="M46.4,26.7c0,0.7,0,1.3,0.1,1.8h-1.1l-0.1-1.1h0c-0.3,0.5-1,1.2-2.2,1.2c-1.1,0-2.3-0.6-2.3-2.9v-3.9h1.2v3.7
		c0,1.3,0.4,2.1,1.5,2.1c0.8,0,1.4-0.6,1.6-1.1c0.1-0.2,0.1-0.4,0.1-0.6v-4.1h1.2V26.7z"/>
	<path d="M48.4,23.7c0-0.7,0-1.3-0.1-1.8h1.1l0.1,1.1h0c0.3-0.6,1.1-1.3,2.2-1.3c0.9,0,2.4,0.6,2.4,2.9v4h-1.2v-3.9
		c0-1.1-0.4-2-1.6-2c-0.8,0-1.4,0.6-1.6,1.2c-0.1,0.2-0.1,0.4-0.1,0.6v4h-1.2V23.7z"/>
	<path d="M57.5,19.9v1.9h1.7v0.9h-1.7v3.6c0,0.8,0.2,1.3,0.9,1.3c0.3,0,0.6,0,0.7-0.1l0.1,0.9c-0.2,0.1-0.6,0.2-1.1,0.2
		c-0.6,0-1-0.2-1.3-0.5c-0.3-0.4-0.5-1-0.5-1.7v-3.7h-1v-0.9h1v-1.6L57.5,19.9z"/>
	<path d="M64.3,28.6l-0.1-0.8h0c-0.4,0.5-1.1,1-2.1,1c-1.4,0-2.1-1-2.1-1.9c0-1.6,1.4-2.5,4-2.5v-0.1c0-0.6-0.2-1.6-1.5-1.6
		c-0.6,0-1.3,0.2-1.7,0.5l-0.3-0.8c0.6-0.4,1.4-0.6,2.2-0.6c2.1,0,2.6,1.4,2.6,2.7V27c0,0.6,0,1.1,0.1,1.6H64.3z M64.1,25.2
		c-1.3,0-2.8,0.2-2.8,1.5c0,0.8,0.5,1.2,1.1,1.2c0.9,0,1.4-0.6,1.6-1.1c0-0.1,0.1-0.3,0.1-0.4V25.2z"/>
	<path d="M76,18.7v8.1c0,0.6,0,1.3,0.1,1.7H75l-0.1-1.2h0c-0.4,0.7-1.2,1.3-2.3,1.3c-1.6,0-2.9-1.4-2.9-3.4c0-2.2,1.4-3.6,3-3.6
		c1,0,1.7,0.5,2,1h0v-4H76z M74.8,24.6c0-0.2,0-0.4-0.1-0.5c-0.2-0.8-0.8-1.4-1.8-1.4c-1.3,0-2,1.1-2,2.6c0,1.4,0.7,2.5,2,2.5
		c0.8,0,1.6-0.5,1.8-1.5c0-0.2,0.1-0.3,0.1-0.5V24.6z"/>
	<path d="M78.7,25.4c0,1.6,1.1,2.3,2.3,2.3c0.9,0,1.4-0.2,1.9-0.3l0.2,0.9c-0.4,0.2-1.2,0.4-2.2,0.4c-2.1,0-3.3-1.4-3.3-3.4
		s1.2-3.6,3.1-3.6c2.2,0,2.8,1.9,2.8,3.2c0,0.2,0,0.4,0,0.6H78.7z M82.3,24.6c0-0.8-0.3-2-1.7-2c-1.2,0-1.8,1.1-1.9,2H82.3z"/>
	<path d="M85,18.7h1.2v9.8H85V18.7z"/>
	<path d="M30.3,39.3c0,1.6,1.1,2.3,2.3,2.3c0.9,0,1.4-0.2,1.9-0.3l0.2,0.9c-0.4,0.2-1.2,0.4-2.2,0.4c-2.1,0-3.3-1.4-3.3-3.4
		s1.2-3.6,3.1-3.6c2.2,0,2.8,1.9,2.8,3.2c0,0.2,0,0.4,0,0.6H30.3z M33.8,38.4c0-0.8-0.3-2-1.7-2c-1.2,0-1.8,1.1-1.9,2H33.8z"/>
	<path d="M37,35.7l1.3,3.8c0.2,0.6,0.4,1.2,0.5,1.7h0c0.2-0.6,0.3-1.1,0.6-1.7l1.3-3.8H42l-2.6,6.7h-1.2l-2.5-6.7H37z"/>
	<path d="M43.7,39.3c0,1.6,1.1,2.3,2.3,2.3c0.9,0,1.4-0.2,1.9-0.3l0.2,0.9c-0.4,0.2-1.2,0.4-2.2,0.4c-2.1,0-3.3-1.4-3.3-3.4
		s1.2-3.6,3.1-3.6c2.2,0,2.8,1.9,2.8,3.2c0,0.2,0,0.4,0,0.6H43.7z M47.3,38.4c0-0.8-0.3-2-1.7-2c-1.2,0-1.8,1.1-1.9,2H47.3z"/>
	<path d="M50,37.5c0-0.7,0-1.3-0.1-1.8H51l0.1,1.1h0c0.3-0.6,1.1-1.3,2.2-1.3c0.9,0,2.4,0.6,2.4,2.9v4h-1.2v-3.9c0-1.1-0.4-2-1.6-2
		c-0.8,0-1.4,0.6-1.6,1.2c-0.1,0.2-0.1,0.4-0.1,0.6v4H50V37.5z"/>
	<path d="M59.1,33.8v1.9h1.7v0.9h-1.7v3.6c0,0.8,0.2,1.3,0.9,1.3c0.3,0,0.6,0,0.7-0.1l0.1,0.9c-0.2,0.1-0.6,0.2-1.1,0.2
		c-0.6,0-1-0.2-1.3-0.5c-0.3-0.4-0.5-1-0.5-1.7v-3.7h-1v-0.9h1v-1.6L59.1,33.8z"/>
	<path d="M68.2,39c0,2.5-1.7,3.6-3.3,3.6c-1.8,0-3.2-1.3-3.2-3.4c0-2.2,1.5-3.6,3.3-3.6C66.9,35.6,68.2,37,68.2,39z M62.9,39.1
		c0,1.5,0.8,2.6,2,2.6c1.2,0,2-1.1,2-2.6c0-1.1-0.6-2.6-2-2.6C63.5,36.5,62.9,37.8,62.9,39.1z"/>
	<path d="M70.7,39.8l0-0.4c-0.1-0.7,0.2-1.6,0.9-2.4c0.6-0.7,1-1.3,1-1.9c0-0.7-0.4-1.2-1.3-1.2c-0.5,0-1.1,0.2-1.4,0.4l-0.3-0.9
		c0.5-0.3,1.2-0.6,2-0.6c1.6,0,2.3,1,2.3,2c0,0.9-0.5,1.6-1.2,2.4c-0.6,0.7-0.8,1.3-0.8,2l0,0.4H70.7z M70.4,41.7
		c0-0.5,0.3-0.9,0.8-0.9s0.8,0.4,0.8,0.9c0,0.5-0.3,0.9-0.8,0.9C70.7,42.6,70.4,42.2,70.4,41.7z"/>
</g>
</svg>
