<?xml version="1.0" encoding="utf-8"?>
<!-- Generator: Adobe Illustrator 24.0.0, SVG Export Plug-In . SVG Version: 6.00 Build 0)  -->
<svg version="1.1" id="Layer_1" xmlns="http://www.w3.org/2000/svg" xmlns:xlink="http://www.w3.org/1999/xlink" x="0px" y="0px"
	 viewBox="0 0 94.4 46.7" style="enable-background:new 0 0 94.4 46.7;" xml:space="preserve">
<style type="text/css">
	.st0{fill:#FFFFFF;stroke:#B2B2B2;stroke-width:0.328;stroke-miterlimit:10;}
</style>
<path class="st0" d="M89.1,1.3H5.3C1.6,1.3,1,4,1,7.4V30c0,3.4,1.9,6.1,4.3,6.1h74.8l6.4,9.4L85,36.1h4.1c2.4,0,4.3-2.7,4.3-6.1V7.4
	C93.4,4,92.5,1.3,89.1,1.3z"/>
<g>
	<path d="M5.5,7.7c0,0.3-0.2,0.6-0.6,0.6C4.6,8.3,4.4,8,4.4,7.7C4.4,7.3,4.6,7,5,7S5.5,7.3,5.5,7.7z M4.5,13.9l0.1-4.8h0.7l0.1,4.8
		H4.5z"/>
	<path d="M7.7,5.2V8H11V5.2h0.9v6.7H11V8.8H7.7v3.2H6.9V5.2H7.7z"/>
	<path d="M17.7,9.5c0,1.8-1.2,2.6-2.4,2.6c-1.3,0-2.3-1-2.3-2.5C13,7.9,14.1,7,15.4,7C16.8,7,17.7,8,17.7,9.5z M13.9,9.5
		c0,1.1,0.6,1.9,1.5,1.9c0.8,0,1.5-0.8,1.5-1.9c0-0.8-0.4-1.9-1.4-1.9C14.3,7.6,13.9,8.6,13.9,9.5z"/>
	<path d="M18.8,4.8h0.9v7.1h-0.9V4.8z"/>
	<path d="M23.9,11.9l-0.1-0.6h0C23.5,11.7,23,12,22.3,12c-1,0-1.5-0.7-1.5-1.4c0-1.2,1-1.8,2.9-1.8V8.7c0-0.4-0.1-1.1-1.1-1.1
		c-0.5,0-0.9,0.1-1.3,0.4l-0.2-0.6c0.4-0.3,1-0.4,1.6-0.4c1.5,0,1.8,1,1.8,2v1.8c0,0.4,0,0.8,0.1,1.2H23.9z M23.7,9.5
		c-1,0-2,0.2-2,1.1c0,0.6,0.4,0.8,0.8,0.8c0.6,0,1-0.4,1.2-0.8c0-0.1,0-0.2,0-0.3V9.5z"/>
	<path d="M25.8,11.4c0-0.4,0.2-0.6,0.6-0.6c0.4,0,0.6,0.3,0.6,0.6c0,0.3-0.2,0.6-0.6,0.6C26.1,12,25.8,11.8,25.8,11.4z M26.1,10
		L26,5.2h1L26.8,10H26.1z"/>
	<path d="M32.5,9.1l0,0.3c0.1,0.5-0.1,1.1-0.6,1.7c-0.4,0.5-0.7,0.9-0.7,1.4c0,0.5,0.3,0.8,0.9,0.8c0.4,0,0.8-0.1,1-0.3l0.2,0.6
		C33,13.8,32.5,14,31.9,14c-1.1,0-1.7-0.7-1.7-1.5c0-0.7,0.4-1.2,0.9-1.7c0.4-0.5,0.6-1,0.6-1.5l0-0.3H32.5z M32.7,7.7
		c0,0.3-0.2,0.6-0.6,0.6c-0.4,0-0.6-0.3-0.6-0.6c0-0.4,0.2-0.6,0.6-0.6C32.4,7,32.7,7.3,32.7,7.7z"/>
	<path d="M35.6,5.7v1.4h1.3v0.7h-1.3v2.6c0,0.6,0.2,0.9,0.7,0.9c0.2,0,0.4,0,0.5-0.1l0,0.7C36.6,12,36.3,12,36,12
		c-0.4,0-0.7-0.1-0.9-0.4c-0.2-0.3-0.3-0.7-0.3-1.3V7.8h-0.8V7.1h0.8V5.9L35.6,5.7z"/>
	<path d="M38.8,5.7c0,0.3-0.2,0.5-0.6,0.5c-0.3,0-0.5-0.2-0.5-0.5c0-0.3,0.2-0.5,0.5-0.5C38.6,5.2,38.8,5.4,38.8,5.7z M37.8,11.9
		V7.1h0.9v4.8H37.8z"/>
	<path d="M40.6,9.7c0,1.2,0.8,1.7,1.7,1.7c0.6,0,1-0.1,1.3-0.2l0.1,0.6c-0.3,0.1-0.8,0.3-1.6,0.3c-1.5,0-2.4-1-2.4-2.4
		S40.7,7,42.1,7c1.6,0,2,1.4,2,2.3c0,0.2,0,0.3,0,0.4H40.6z M43.2,9c0-0.6-0.2-1.4-1.2-1.4c-0.9,0-1.3,0.8-1.3,1.4H43.2z"/>
	<path d="M45.2,8.4c0-0.5,0-0.9,0-1.3h0.8l0.1,0.8h0C46.2,7.4,46.8,7,47.6,7c0.7,0,1.7,0.4,1.7,2.1v2.9h-0.9V9.1
		c0-0.8-0.3-1.4-1.1-1.4c-0.6,0-1,0.4-1.2,0.9C46.1,8.7,46,8.9,46,9v2.9h-0.9V8.4z"/>
	<path d="M51.2,9.7c0,1.2,0.8,1.7,1.7,1.7c0.6,0,1-0.1,1.3-0.2l0.1,0.6C54,11.9,53.5,12,52.7,12c-1.5,0-2.4-1-2.4-2.4S51.2,7,52.6,7
		c1.6,0,2,1.4,2,2.3c0,0.2,0,0.3,0,0.4H51.2z M53.8,9c0-0.6-0.2-1.4-1.2-1.4c-0.9,0-1.3,0.8-1.3,1.4H53.8z"/>
	<path d="M55.6,11c0.3,0.2,0.7,0.3,1.2,0.3c0.6,0,0.9-0.3,0.9-0.7c0-0.4-0.2-0.6-0.9-0.9c-0.9-0.3-1.3-0.8-1.3-1.4
		c0-0.8,0.6-1.4,1.7-1.4c0.5,0,0.9,0.1,1.2,0.3l-0.2,0.6c-0.2-0.1-0.5-0.3-1-0.3c-0.5,0-0.8,0.3-0.8,0.7c0,0.4,0.3,0.6,0.9,0.8
		c0.8,0.3,1.3,0.7,1.3,1.5c0,0.8-0.7,1.4-1.8,1.4c-0.5,0-1-0.1-1.4-0.3L55.6,11z"/>
	<path d="M64.5,11.9l-0.1-0.6h0c-0.3,0.4-0.8,0.7-1.5,0.7c-1,0-1.5-0.7-1.5-1.4c0-1.2,1-1.8,2.9-1.8V8.7c0-0.4-0.1-1.1-1.1-1.1
		c-0.5,0-0.9,0.1-1.3,0.4l-0.2-0.6c0.4-0.3,1-0.4,1.6-0.4c1.5,0,1.8,1,1.8,2v1.8c0,0.4,0,0.8,0.1,1.2H64.5z M64.3,9.5
		c-1,0-2,0.2-2,1.1c0,0.6,0.4,0.8,0.8,0.8c0.6,0,1-0.4,1.2-0.8c0-0.1,0-0.2,0-0.3V9.5z"/>
	<path d="M66.6,4.8h0.9v7.1h-0.9V4.8z"/>
	<path d="M73.1,7.1c0,0.3,0,0.7,0,1.3v2.8c0,1.1-0.2,1.8-0.7,2.2c-0.5,0.4-1.1,0.6-1.8,0.6c-0.6,0-1.2-0.1-1.6-0.4l0.2-0.7
		c0.3,0.2,0.8,0.4,1.4,0.4c0.9,0,1.6-0.5,1.6-1.7v-0.5h0c-0.3,0.4-0.8,0.8-1.5,0.8c-1.2,0-2.1-1-2.1-2.4c0-1.6,1.1-2.6,2.2-2.6
		c0.8,0,1.3,0.4,1.5,0.8h0l0-0.7H73.1z M72.2,9c0-0.1,0-0.3-0.1-0.4C72,8.1,71.6,7.7,71,7.7c-0.8,0-1.4,0.7-1.4,1.8
		c0,0.9,0.5,1.7,1.4,1.7c0.5,0,1-0.3,1.2-0.9c0-0.2,0.1-0.3,0.1-0.5V9z"/>
	<path d="M78.6,10.6c0,0.5,0,0.9,0,1.3h-0.8l0-0.8h0c-0.2,0.4-0.7,0.9-1.6,0.9c-0.8,0-1.7-0.4-1.7-2.1V7.1h0.9v2.7
		c0,0.9,0.3,1.5,1.1,1.5c0.6,0,1-0.4,1.2-0.8c0-0.1,0.1-0.3,0.1-0.5v-3h0.9V10.6z"/>
	<path d="M80.1,8.4c0-0.5,0-0.9,0-1.3h0.8l0.1,0.8h0C81.1,7.4,81.7,7,82.5,7c0.7,0,1.7,0.4,1.7,2.1v2.9h-0.9V9.1
		c0-0.8-0.3-1.4-1.1-1.4c-0.6,0-1,0.4-1.2,0.9C81,8.7,81,8.9,81,9v2.9h-0.9V8.4z"/>
	<path d="M88.3,11.9l-0.1-0.6h0c-0.3,0.4-0.8,0.7-1.5,0.7c-1,0-1.5-0.7-1.5-1.4c0-1.2,1-1.8,2.9-1.8V8.7c0-0.4-0.1-1.1-1.1-1.1
		c-0.5,0-0.9,0.1-1.3,0.4l-0.2-0.6C86,7.1,86.6,7,87.2,7C88.7,7,89,8,89,9v1.8c0,0.4,0,0.8,0.1,1.2H88.3z M88.2,9.5
		c-1,0-2,0.2-2,1.1c0,0.6,0.4,0.8,0.8,0.8c0.6,0,1-0.4,1.2-0.8c0-0.1,0-0.2,0-0.3V9.5z"/>
	<path d="M3,18.7c0-0.6,0-1.1,0-1.6h0.8l0,0.8h0C4.2,17.3,4.8,17,5.6,17c1.2,0,2,1,2,2.5c0,1.7-1.1,2.6-2.2,2.6
		c-0.6,0-1.2-0.3-1.5-0.8h0v2.6H3V18.7z M3.9,20c0,0.1,0,0.2,0,0.4c0.2,0.6,0.7,1,1.3,1c0.9,0,1.5-0.8,1.5-1.9c0-1-0.5-1.8-1.4-1.8
		c-0.6,0-1.2,0.4-1.3,1.1c0,0.1-0.1,0.2-0.1,0.4V20z"/>
	<path d="M8.7,18.6c0-0.6,0-1.1,0-1.5h0.8l0,0.9h0c0.2-0.6,0.7-1.1,1.3-1.1c0.1,0,0.2,0,0.2,0v0.8c-0.1,0-0.2,0-0.3,0
		c-0.6,0-1.1,0.5-1.2,1.1c0,0.1,0,0.3,0,0.4v2.6H8.7V18.6z"/>
	<path d="M12.4,19.7c0,1.2,0.8,1.7,1.7,1.7c0.6,0,1-0.1,1.3-0.2l0.1,0.6c-0.3,0.1-0.8,0.3-1.6,0.3c-1.5,0-2.4-1-2.4-2.4
		c0-1.5,0.9-2.6,2.3-2.6c1.6,0,2,1.4,2,2.3c0,0.2,0,0.3,0,0.4H12.4z M15,19c0-0.6-0.2-1.4-1.2-1.4c-0.9,0-1.3,0.8-1.3,1.4H15z"/>
	<path d="M21.1,17.1c0,0.3,0,0.7,0,1.3v2.8c0,1.1-0.2,1.8-0.7,2.2c-0.5,0.4-1.1,0.6-1.8,0.6c-0.6,0-1.2-0.1-1.6-0.4l0.2-0.7
		c0.3,0.2,0.8,0.4,1.4,0.4c0.9,0,1.6-0.5,1.6-1.7v-0.5h0c-0.3,0.4-0.8,0.8-1.5,0.8c-1.2,0-2.1-1-2.1-2.4c0-1.6,1.1-2.6,2.2-2.6
		c0.8,0,1.3,0.4,1.5,0.8h0l0-0.7H21.1z M20.2,19c0-0.1,0-0.3-0.1-0.4c-0.2-0.5-0.6-0.9-1.2-0.9c-0.8,0-1.4,0.7-1.4,1.8
		c0,0.9,0.5,1.7,1.4,1.7c0.5,0,1-0.3,1.2-0.9c0-0.2,0.1-0.3,0.1-0.5V19z"/>
	<path d="M26.5,20.6c0,0.5,0,0.9,0,1.3h-0.8l0-0.8h0C25.5,21.5,25,22,24.1,22c-0.8,0-1.7-0.4-1.7-2.1v-2.8h0.9v2.7
		c0,0.9,0.3,1.5,1.1,1.5c0.6,0,1-0.4,1.2-0.8c0-0.1,0.1-0.3,0.1-0.5v-3h0.9V20.6z"/>
	<path d="M28,18.4c0-0.5,0-0.9,0-1.3h0.8l0.1,0.8h0c0.2-0.5,0.8-0.9,1.6-0.9c0.7,0,1.7,0.4,1.7,2.1v2.9h-0.9v-2.8
		c0-0.8-0.3-1.4-1.1-1.4c-0.6,0-1,0.4-1.2,0.9c0,0.1-0.1,0.3-0.1,0.4v2.9H28V18.4z"/>
	<path d="M34.6,15.7v1.4h1.3v0.7h-1.3v2.6c0,0.6,0.2,0.9,0.7,0.9c0.2,0,0.4,0,0.5-0.1l0,0.7C35.6,22,35.3,22,35,22
		c-0.4,0-0.7-0.1-0.9-0.4c-0.2-0.3-0.3-0.7-0.3-1.3v-2.6H33v-0.7h0.8v-1.2L34.6,15.7z"/>
	<path d="M39.5,21.9l-0.1-0.6h0c-0.3,0.4-0.8,0.7-1.5,0.7c-1,0-1.5-0.7-1.5-1.4c0-1.2,1-1.8,2.9-1.8v-0.1c0-0.4-0.1-1.1-1.1-1.1
		c-0.5,0-0.9,0.1-1.3,0.4l-0.2-0.6c0.4-0.3,1-0.4,1.6-0.4c1.5,0,1.8,1,1.8,2v1.8c0,0.4,0,0.8,0.1,1.2H39.5z M39.4,19.5
		c-1,0-2,0.2-2,1.1c0,0.6,0.4,0.8,0.8,0.8c0.6,0,1-0.4,1.2-0.8c0-0.1,0-0.2,0-0.3V19.5z"/>
	<path d="M47.9,14.8v5.8c0,0.4,0,0.9,0,1.2h-0.8l0-0.8h0c-0.3,0.5-0.9,1-1.6,1c-1.2,0-2.1-1-2.1-2.5c0-1.6,1-2.6,2.2-2.6
		c0.7,0,1.2,0.3,1.5,0.7h0v-2.9H47.9z M47.1,19.1c0-0.1,0-0.3,0-0.4c-0.1-0.6-0.6-1-1.3-1c-0.9,0-1.4,0.8-1.4,1.9
		c0,1,0.5,1.8,1.4,1.8c0.6,0,1.1-0.4,1.3-1c0-0.1,0-0.2,0-0.4V19.1z"/>
	<path d="M49.9,19.7c0,1.2,0.8,1.7,1.7,1.7c0.6,0,1-0.1,1.3-0.2l0.1,0.6c-0.3,0.1-0.8,0.3-1.6,0.3c-1.5,0-2.4-1-2.4-2.4
		c0-1.5,0.9-2.6,2.3-2.6c1.6,0,2,1.4,2,2.3c0,0.2,0,0.3,0,0.4H49.9z M52.5,19c0-0.6-0.2-1.4-1.2-1.4c-0.9,0-1.3,0.8-1.3,1.4H52.5z"
		/>
	<path d="M54.4,14.8h0.9v7.1h-0.9V14.8z"/>
	<path d="M59.4,19.7c0,1.2,0.8,1.7,1.7,1.7c0.6,0,1-0.1,1.3-0.2l0.1,0.6c-0.3,0.1-0.8,0.3-1.6,0.3c-1.5,0-2.4-1-2.4-2.4
		c0-1.5,0.9-2.6,2.3-2.6c1.6,0,2,1.4,2,2.3c0,0.2,0,0.3,0,0.4H59.4z M62,19c0-0.6-0.2-1.4-1.2-1.4c-0.9,0-1.3,0.8-1.3,1.4H62z"/>
	<path d="M64.2,17.1l0.9,2.7c0.2,0.4,0.3,0.8,0.4,1.2h0c0.1-0.4,0.2-0.8,0.4-1.2l0.9-2.7h0.9L66,21.9h-0.8l-1.8-4.8H64.2z"/>
	<path d="M69.1,19.7c0,1.2,0.8,1.7,1.7,1.7c0.6,0,1-0.1,1.3-0.2l0.1,0.6c-0.3,0.1-0.8,0.3-1.6,0.3c-1.5,0-2.4-1-2.4-2.4
		c0-1.5,0.9-2.6,2.3-2.6c1.6,0,2,1.4,2,2.3c0,0.2,0,0.3,0,0.4H69.1z M71.7,19c0-0.6-0.2-1.4-1.2-1.4c-0.9,0-1.3,0.8-1.3,1.4H71.7z"
		/>
	<path d="M73.6,18.4c0-0.5,0-0.9,0-1.3h0.8l0.1,0.8h0c0.2-0.5,0.8-0.9,1.6-0.9c0.7,0,1.7,0.4,1.7,2.1v2.9h-0.9v-2.8
		c0-0.8-0.3-1.4-1.1-1.4c-0.6,0-1,0.4-1.2,0.9c0,0.1-0.1,0.3-0.1,0.4v2.9h-0.9V18.4z"/>
	<path d="M80.2,15.7v1.4h1.3v0.7h-1.3v2.6c0,0.6,0.2,0.9,0.7,0.9c0.2,0,0.4,0,0.5-0.1l0,0.7C81.2,22,81,22,80.6,22
		c-0.4,0-0.7-0.1-0.9-0.4c-0.2-0.3-0.3-0.7-0.3-1.3v-2.6h-0.8v-0.7h0.8v-1.2L80.2,15.7z"/>
	<path d="M86.8,19.5c0,1.8-1.2,2.6-2.4,2.6c-1.3,0-2.3-1-2.3-2.5c0-1.6,1.1-2.6,2.4-2.6C85.8,17,86.8,18,86.8,19.5z M82.9,19.5
		c0,1.1,0.6,1.9,1.5,1.9c0.8,0,1.5-0.8,1.5-1.9c0-0.8-0.4-1.9-1.4-1.9C83.4,17.6,82.9,18.6,82.9,19.5z"/>
	<path d="M88.6,20l0-0.3c-0.1-0.5,0.1-1.1,0.6-1.7c0.5-0.5,0.7-0.9,0.7-1.4c0-0.5-0.3-0.8-1-0.9c-0.4,0-0.8,0.1-1,0.3l-0.2-0.6
		c0.3-0.2,0.9-0.4,1.4-0.4c1.1,0,1.7,0.7,1.7,1.5c0,0.7-0.4,1.2-0.9,1.7c-0.4,0.5-0.6,1-0.6,1.5l0,0.3H88.6z M88.3,21.4
		c0-0.4,0.2-0.6,0.6-0.6s0.6,0.3,0.6,0.6c0,0.3-0.2,0.6-0.6,0.6C88.6,22,88.3,21.8,88.3,21.4z"/>
	<path d="M20.1,25.2V28h3.3v-2.8h0.9v6.7h-0.9v-3.2h-3.3v3.2h-0.9v-6.7H20.1z"/>
	<path d="M28.4,31.9l-0.1-0.6h0c-0.3,0.4-0.8,0.7-1.5,0.7c-1,0-1.5-0.7-1.5-1.4c0-1.2,1-1.8,2.9-1.8v-0.1c0-0.4-0.1-1.1-1.1-1.1
		c-0.5,0-0.9,0.1-1.3,0.4l-0.2-0.6c0.4-0.3,1-0.4,1.6-0.4c1.5,0,1.8,1,1.8,2v1.8c0,0.4,0,0.8,0.1,1.2H28.4z M28.3,29.5
		c-1,0-2,0.2-2,1.1c0,0.6,0.4,0.8,0.8,0.8c0.6,0,1-0.4,1.2-0.8c0-0.1,0-0.2,0-0.3V29.5z"/>
	<path d="M30,31.4l2.2-2.8c0.2-0.3,0.4-0.5,0.6-0.7v0h-2.6v-0.7h3.7l0,0.5l-2.2,2.8c-0.2,0.3-0.4,0.5-0.6,0.8v0H34v0.7H30V31.4z"/>
	<path d="M40.4,31.7C40.2,31.9,39.7,32,39,32c-1.5,0-2.4-1-2.4-2.5c0-1.5,1-2.6,2.6-2.6c0.5,0,1,0.1,1.2,0.2l-0.2,0.7
		c-0.2-0.1-0.5-0.2-1-0.2c-1.1,0-1.7,0.8-1.7,1.8c0,1.1,0.7,1.8,1.7,1.8c0.5,0,0.8-0.1,1.1-0.2L40.4,31.7z"/>
	<path d="M41.5,24.8h0.9v7.1h-0.9V24.8z"/>
	<path d="M44.8,25.7c0,0.3-0.2,0.5-0.6,0.5c-0.3,0-0.5-0.2-0.5-0.5c0-0.3,0.2-0.5,0.5-0.5C44.6,25.2,44.8,25.4,44.8,25.7z
		 M43.8,31.9v-4.8h0.9v4.8H43.8z"/>
	<path d="M49.6,31.7c-0.2,0.1-0.7,0.3-1.4,0.3c-1.5,0-2.4-1-2.4-2.5c0-1.5,1-2.6,2.6-2.6c0.5,0,1,0.1,1.2,0.2l-0.2,0.7
		c-0.2-0.1-0.5-0.2-1-0.2c-1.1,0-1.7,0.8-1.7,1.8c0,1.1,0.7,1.8,1.7,1.8c0.5,0,0.8-0.1,1.1-0.2L49.6,31.7z"/>
	<path d="M51.5,29.3L51.5,29.3c0.1-0.2,0.3-0.4,0.4-0.5l1.4-1.7h1.1l-1.9,2l2.1,2.8h-1.1L52,29.6l-0.4,0.5v1.8h-0.9v-7.1h0.9V29.3z"
		/>
	<path d="M60.1,31.9l-0.1-0.6h0c-0.3,0.4-0.8,0.7-1.5,0.7c-1,0-1.5-0.7-1.5-1.4c0-1.2,1-1.8,2.9-1.8v-0.1c0-0.4-0.1-1.1-1.1-1.1
		c-0.5,0-0.9,0.1-1.3,0.4l-0.2-0.6c0.4-0.3,1-0.4,1.6-0.4c1.5,0,1.8,1,1.8,2v1.8c0,0.4,0,0.8,0.1,1.2H60.1z M60,29.5
		c-1,0-2,0.2-2,1.1c0,0.6,0.4,0.8,0.8,0.8c0.6,0,1-0.4,1.2-0.8c0-0.1,0-0.2,0-0.3V29.5z"/>
	<path d="M65.6,31.2L65.6,31.2C65.3,31.7,64.7,32,64,32c-1.1,0-2-1-2-2.4c0-1.8,1.2-2.6,2.2-2.6c0.8,0,1.2,0.4,1.5,0.8h0l0-0.7h0.8
		c0,0.4,0,0.8,0,1.3v5.5h-0.9V31.2z M65.6,29c0-0.1,0-0.3,0-0.4c-0.1-0.5-0.6-1-1.3-1c-0.9,0-1.5,0.8-1.5,1.9c0,1,0.5,1.8,1.4,1.8
		c0.6,0,1.1-0.3,1.3-1c0-0.1,0.1-0.3,0.1-0.4V29z"/>
	<path d="M71.9,30.6c0,0.5,0,0.9,0,1.3h-0.8l0-0.8h0c-0.2,0.4-0.7,0.9-1.6,0.9c-0.8,0-1.7-0.4-1.7-2.1v-2.8h0.9v2.7
		c0,0.9,0.3,1.5,1.1,1.5c0.6,0,1-0.4,1.2-0.8c0-0.1,0.1-0.3,0.1-0.5v-3h0.9V30.6z"/>
	<path d="M75.2,25L74,26.4h-0.6l0.9-1.4H75.2z M73.4,31.9v-4.8h0.9v4.8H73.4z"/>
</g>
</svg>
