<?xml version="1.0" encoding="utf-8"?>
<!-- Generator: Adobe Illustrator 24.0.0, SVG Export Plug-In . SVG Version: 6.00 Build 0)  -->
<svg version="1.1" id="Layer_1" xmlns="http://www.w3.org/2000/svg" xmlns:xlink="http://www.w3.org/1999/xlink" x="0px" y="0px"
	 viewBox="0 0 201.1 50.3" style="enable-background:new 0 0 201.1 50.3;" xml:space="preserve">
<style type="text/css">
	.st0{fill:#FFFFFF;stroke:#B2B2B2;stroke-width:0.5;stroke-miterlimit:10;}
	.st1{fill:none;}
</style>
<path class="st0" d="M190.8,1H10.3C5.2,1,1.1,4,1.1,7.6v24.5c0,3.6,4.2,6.6,9.3,6.6h161.1l13.9,10.2l-3.3-10.2h8.8
	c5.1,0,9.3-3,9.3-6.6V7.6C200,4,195.9,1,190.8,1z"/>
<rect x="8.7" y="14.6" class="st1" width="183.7" height="12.5"/>
<g>
	<path d="M6.4,12.9c0,0.4-0.2,0.7-0.6,0.7c-0.4,0-0.6-0.3-0.6-0.7c0-0.4,0.3-0.7,0.7-0.7C6.2,12.2,6.4,12.5,6.4,12.9z M5.3,19.6
		l0.2-5.2h0.7l0.2,5.2H5.3z"/>
	<path d="M8.8,10.2v3.1h3.5v-3.1h1v7.3h-1v-3.4H8.8v3.4H7.9v-7.3H8.8z"/>
	<path d="M19.6,14.8c0,1.9-1.3,2.8-2.6,2.8c-1.4,0-2.5-1-2.5-2.7c0-1.8,1.1-2.8,2.6-2.8C18.6,12.1,19.6,13.2,19.6,14.8z M15.5,14.9
		c0,1.1,0.7,2,1.6,2c0.9,0,1.6-0.9,1.6-2c0-0.9-0.4-2-1.6-2C16,12.9,15.5,13.9,15.5,14.9z"/>
	<path d="M20.8,9.8h1v7.7h-1V9.8z"/>
	<path d="M26.3,17.5l-0.1-0.7h0c-0.3,0.4-0.9,0.8-1.6,0.8c-1.1,0-1.6-0.7-1.6-1.5c0-1.3,1.1-2,3.2-2v-0.1c0-0.4-0.1-1.2-1.2-1.2
		c-0.5,0-1,0.2-1.4,0.4l-0.2-0.6c0.4-0.3,1.1-0.5,1.7-0.5c1.6,0,2,1.1,2,2.1v2c0,0.5,0,0.9,0.1,1.3H26.3z M26.2,14.8
		c-1,0-2.2,0.2-2.2,1.2c0,0.6,0.4,0.9,0.9,0.9c0.7,0,1.1-0.4,1.3-0.9c0-0.1,0.1-0.2,0.1-0.3V14.8z"/>
	<path d="M28.4,16.9c0-0.4,0.3-0.7,0.6-0.7c0.4,0,0.6,0.3,0.6,0.7c0,0.4-0.2,0.7-0.6,0.7C28.7,17.6,28.4,17.3,28.4,16.9z M28.7,15.4
		l-0.2-5.2h1l-0.2,5.2H28.7z"/>
	<path d="M35.6,14.4l0,0.3c0.1,0.6-0.1,1.2-0.7,1.9c-0.5,0.6-0.7,1-0.7,1.5c0,0.6,0.3,0.9,1,0.9c0.4,0,0.8-0.1,1.1-0.3l0.3,0.7
		c-0.4,0.2-1,0.4-1.6,0.4c-1.2,0-1.8-0.8-1.8-1.6c0-0.7,0.4-1.3,0.9-1.9c0.5-0.6,0.6-1,0.6-1.6l0-0.3H35.6z M35.8,12.9
		c0,0.4-0.2,0.7-0.6,0.7c-0.4,0-0.6-0.3-0.6-0.7c0-0.4,0.3-0.7,0.6-0.7C35.6,12.2,35.8,12.5,35.8,12.9z"/>
	<path d="M39,10.7v1.5h1.4V13H39v2.8c0,0.7,0.2,1,0.7,1c0.2,0,0.4,0,0.6-0.1l0,0.7c-0.2,0.1-0.5,0.1-0.8,0.1c-0.4,0-0.8-0.1-1-0.4
		c-0.3-0.3-0.4-0.7-0.4-1.4V13h-0.8v-0.7H38V11L39,10.7z"/>
	<path d="M42.5,10.8c0,0.3-0.2,0.6-0.6,0.6c-0.3,0-0.6-0.3-0.6-0.6c0-0.3,0.2-0.6,0.6-0.6C42.3,10.2,42.5,10.4,42.5,10.8z
		 M41.4,17.5v-5.2h1v5.2H41.4z"/>
	<path d="M44.5,15.1c0,1.3,0.8,1.8,1.8,1.8c0.7,0,1.1-0.1,1.5-0.3l0.2,0.7c-0.3,0.2-0.9,0.3-1.7,0.3c-1.6,0-2.6-1.1-2.6-2.6
		c0-1.6,0.9-2.8,2.5-2.8c1.7,0,2.2,1.5,2.2,2.5c0,0.2,0,0.3,0,0.4H44.5z M47.3,14.4c0-0.6-0.2-1.5-1.3-1.5c-1,0-1.4,0.9-1.5,1.5
		H47.3z"/>
	<path d="M49.4,13.7c0-0.5,0-1,0-1.4h0.8l0.1,0.9h0c0.3-0.5,0.9-1,1.7-1c0.7,0,1.9,0.4,1.9,2.2v3.1h-1v-3c0-0.8-0.3-1.6-1.2-1.6
		c-0.6,0-1.1,0.4-1.3,1c0,0.1-0.1,0.3-0.1,0.4v3.2h-1V13.7z"/>
	<path d="M55.9,15.1c0,1.3,0.8,1.8,1.8,1.8c0.7,0,1.1-0.1,1.5-0.3l0.2,0.7c-0.3,0.2-0.9,0.3-1.7,0.3C56,17.6,55,16.5,55,15
		c0-1.6,0.9-2.8,2.5-2.8c1.7,0,2.2,1.5,2.2,2.5c0,0.2,0,0.3,0,0.4H55.9z M58.7,14.4c0-0.6-0.2-1.5-1.3-1.5c-1,0-1.4,0.9-1.5,1.5
		H58.7z"/>
	<path d="M60.7,16.5c0.3,0.2,0.8,0.4,1.3,0.4c0.7,0,1-0.3,1-0.8c0-0.5-0.3-0.7-1-1c-0.9-0.3-1.4-0.9-1.4-1.5c0-0.8,0.7-1.5,1.8-1.5
		c0.5,0,1,0.2,1.3,0.3l-0.2,0.7c-0.2-0.1-0.6-0.3-1.1-0.3c-0.6,0-0.9,0.3-0.9,0.7c0,0.4,0.3,0.6,1,0.9c0.9,0.3,1.4,0.8,1.4,1.6
		c0,0.9-0.7,1.6-2,1.6c-0.6,0-1.1-0.1-1.5-0.4L60.7,16.5z"/>
	<path d="M70.3,17.5l-0.1-0.7h0c-0.3,0.4-0.9,0.8-1.6,0.8c-1.1,0-1.6-0.7-1.6-1.5c0-1.3,1.1-2,3.2-2v-0.1c0-0.4-0.1-1.2-1.2-1.2
		c-0.5,0-1,0.2-1.4,0.4l-0.2-0.6c0.4-0.3,1.1-0.5,1.7-0.5c1.6,0,2,1.1,2,2.1v2c0,0.5,0,0.9,0.1,1.3H70.3z M70.2,14.8
		c-1,0-2.2,0.2-2.2,1.2c0,0.6,0.4,0.9,0.9,0.9c0.7,0,1.1-0.4,1.3-0.9c0-0.1,0.1-0.2,0.1-0.3V14.8z"/>
	<path d="M72.7,9.8h1v7.7h-1V9.8z"/>
	<path d="M79.8,12.3c0,0.4,0,0.8,0,1.4v3c0,1.2-0.2,1.9-0.7,2.4c-0.5,0.5-1.2,0.6-1.9,0.6c-0.6,0-1.3-0.2-1.7-0.4l0.2-0.7
		c0.3,0.2,0.9,0.4,1.5,0.4c1,0,1.7-0.5,1.7-1.8v-0.6h0c-0.3,0.5-0.9,0.9-1.7,0.9c-1.3,0-2.2-1.1-2.2-2.6c0-1.8,1.2-2.8,2.4-2.8
		c0.9,0,1.4,0.5,1.6,0.9h0l0-0.8H79.8z M78.8,14.3c0-0.2,0-0.3-0.1-0.4c-0.2-0.6-0.6-1-1.3-1c-0.9,0-1.6,0.8-1.6,2
		c0,1,0.5,1.9,1.6,1.9c0.6,0,1.1-0.4,1.3-1c0.1-0.2,0.1-0.3,0.1-0.5V14.3z"/>
	<path d="M85.7,16.1c0,0.5,0,1,0,1.4h-0.8l-0.1-0.9h0c-0.2,0.4-0.8,1-1.7,1c-0.8,0-1.8-0.5-1.8-2.3v-3.1h1v2.9c0,1,0.3,1.7,1.2,1.7
		c0.6,0,1.1-0.4,1.3-0.9c0.1-0.1,0.1-0.3,0.1-0.5v-3.2h1V16.1z"/>
	<path d="M87.3,13.7c0-0.5,0-1,0-1.4h0.8l0.1,0.9h0c0.3-0.5,0.9-1,1.7-1c0.7,0,1.9,0.4,1.9,2.2v3.1h-1v-3c0-0.8-0.3-1.6-1.2-1.6
		c-0.6,0-1.1,0.4-1.3,1c0,0.1-0.1,0.3-0.1,0.4v3.2h-1V13.7z"/>
	<path d="M96.2,17.5l-0.1-0.7h0c-0.3,0.4-0.9,0.8-1.6,0.8c-1.1,0-1.6-0.7-1.6-1.5c0-1.3,1.1-2,3.2-2v-0.1c0-0.4-0.1-1.2-1.2-1.2
		c-0.5,0-1,0.2-1.4,0.4l-0.2-0.6c0.4-0.3,1.1-0.5,1.7-0.5c1.6,0,2,1.1,2,2.1v2c0,0.5,0,0.9,0.1,1.3H96.2z M96.1,14.8
		c-1,0-2.2,0.2-2.2,1.2c0,0.6,0.4,0.9,0.9,0.9c0.7,0,1.1-0.4,1.3-0.9c0-0.1,0.1-0.2,0.1-0.3V14.8z"/>
	<path d="M100.8,14c0-0.7,0-1.2,0-1.7h0.9l0,0.9h0c0.4-0.6,1-1,1.9-1c1.3,0,2.2,1.1,2.2,2.7c0,1.9-1.1,2.8-2.4,2.8
		c-0.7,0-1.3-0.3-1.6-0.8h0v2.9h-0.9V14z M101.8,15.4c0,0.1,0,0.3,0,0.4c0.2,0.7,0.7,1.1,1.4,1.1c1,0,1.6-0.8,1.6-2
		c0-1.1-0.6-2-1.6-2c-0.7,0-1.3,0.5-1.4,1.2c0,0.1-0.1,0.3-0.1,0.4V15.4z"/>
	<path d="M107,13.9c0-0.6,0-1.1,0-1.6h0.8l0,1h0c0.2-0.7,0.8-1.1,1.5-1.1c0.1,0,0.2,0,0.3,0v0.9c-0.1,0-0.2,0-0.3,0
		c-0.7,0-1.1,0.5-1.3,1.2c0,0.1,0,0.3,0,0.4v2.8H107V13.9z"/>
	<path d="M111,15.1c0,1.3,0.8,1.8,1.8,1.8c0.7,0,1.1-0.1,1.5-0.3l0.2,0.7c-0.3,0.2-0.9,0.3-1.7,0.3c-1.6,0-2.6-1.1-2.6-2.6
		c0-1.6,0.9-2.8,2.5-2.8c1.7,0,2.2,1.5,2.2,2.5c0,0.2,0,0.3,0,0.4H111z M113.8,14.4c0-0.6-0.2-1.5-1.3-1.5c-1,0-1.4,0.9-1.5,1.5
		H113.8z"/>
	<path d="M120.4,12.3c0,0.4,0,0.8,0,1.4v3c0,1.2-0.2,1.9-0.7,2.4c-0.5,0.5-1.2,0.6-1.9,0.6c-0.6,0-1.3-0.2-1.7-0.4l0.2-0.7
		c0.3,0.2,0.9,0.4,1.5,0.4c1,0,1.7-0.5,1.7-1.8v-0.6h0c-0.3,0.5-0.9,0.9-1.7,0.9c-1.3,0-2.2-1.1-2.2-2.6c0-1.8,1.2-2.8,2.4-2.8
		c0.9,0,1.4,0.5,1.6,0.9h0l0-0.8H120.4z M119.4,14.3c0-0.2,0-0.3-0.1-0.4c-0.2-0.6-0.6-1-1.3-1c-0.9,0-1.6,0.8-1.6,2
		c0,1,0.5,1.9,1.5,1.9c0.6,0,1.1-0.4,1.3-1c0.1-0.2,0.1-0.3,0.1-0.5V14.3z"/>
	<path d="M126.3,16.1c0,0.5,0,1,0,1.4h-0.8l-0.1-0.9h0c-0.2,0.4-0.8,1-1.7,1c-0.8,0-1.8-0.5-1.8-2.3v-3.1h1v2.9c0,1,0.3,1.7,1.2,1.7
		c0.6,0,1.1-0.4,1.3-0.9c0.1-0.1,0.1-0.3,0.1-0.5v-3.2h1V16.1z"/>
	<path d="M127.9,13.7c0-0.5,0-1,0-1.4h0.8l0.1,0.9h0c0.3-0.5,0.9-1,1.7-1c0.7,0,1.9,0.4,1.9,2.2v3.1h-1v-3c0-0.8-0.3-1.6-1.2-1.6
		c-0.6,0-1.1,0.4-1.3,1c0,0.1-0.1,0.3-0.1,0.4v3.2h-1V13.7z"/>
	<path d="M135,10.7v1.5h1.4V13H135v2.8c0,0.7,0.2,1,0.7,1c0.2,0,0.4,0,0.6-0.1l0,0.7c-0.2,0.1-0.5,0.1-0.8,0.1c-0.4,0-0.8-0.1-1-0.4
		c-0.3-0.3-0.4-0.7-0.4-1.4V13h-0.8v-0.7h0.8V11L135,10.7z"/>
	<path d="M140.4,17.5l-0.1-0.7h0c-0.3,0.4-0.9,0.8-1.6,0.8c-1.1,0-1.6-0.7-1.6-1.5c0-1.3,1.1-2,3.2-2v-0.1c0-0.4-0.1-1.2-1.2-1.2
		c-0.5,0-1,0.2-1.4,0.4l-0.2-0.6c0.4-0.3,1.1-0.5,1.7-0.5c1.6,0,2,1.1,2,2.1v2c0,0.5,0,0.9,0.1,1.3H140.4z M140.2,14.8
		c-1,0-2.2,0.2-2.2,1.2c0,0.6,0.4,0.9,0.9,0.9c0.7,0,1.1-0.4,1.3-0.9c0-0.1,0.1-0.2,0.1-0.3V14.8z"/>
	<path d="M149.5,9.8v6.3c0,0.5,0,1,0,1.4h-0.9l0-0.9h0c-0.3,0.6-0.9,1-1.8,1c-1.3,0-2.2-1.1-2.2-2.7c0-1.7,1.1-2.8,2.4-2.8
		c0.8,0,1.3,0.4,1.6,0.8h0V9.8H149.5z M148.6,14.4c0-0.1,0-0.3,0-0.4c-0.1-0.6-0.7-1.1-1.4-1.1c-1,0-1.6,0.9-1.6,2
		c0,1.1,0.5,1.9,1.5,1.9c0.6,0,1.2-0.4,1.4-1.1c0-0.1,0-0.3,0-0.4V14.4z"/>
	<path d="M151.6,15.1c0,1.3,0.8,1.8,1.8,1.8c0.7,0,1.1-0.1,1.5-0.3l0.2,0.7c-0.3,0.2-0.9,0.3-1.7,0.3c-1.6,0-2.6-1.1-2.6-2.6
		c0-1.6,0.9-2.8,2.5-2.8c1.7,0,2.2,1.5,2.2,2.5c0,0.2,0,0.3,0,0.4H151.6z M154.4,14.4c0-0.6-0.2-1.5-1.3-1.5c-1,0-1.4,0.9-1.5,1.5
		H154.4z"/>
	<path d="M156.5,9.8h1v7.7h-1V9.8z"/>
	<path d="M161.9,15.1c0,1.3,0.8,1.8,1.8,1.8c0.7,0,1.1-0.1,1.5-0.3l0.2,0.7c-0.3,0.2-0.9,0.3-1.7,0.3c-1.6,0-2.6-1.1-2.6-2.6
		c0-1.6,0.9-2.8,2.5-2.8c1.7,0,2.2,1.5,2.2,2.5c0,0.2,0,0.3,0,0.4H161.9z M164.7,14.4c0-0.6-0.2-1.5-1.3-1.5c-1,0-1.4,0.9-1.5,1.5
		H164.7z"/>
	<path d="M167.2,12.3l1,2.9c0.2,0.5,0.3,0.9,0.4,1.3h0c0.1-0.4,0.3-0.9,0.4-1.3l1-2.9h1l-2.1,5.2h-0.9l-2-5.2H167.2z"/>
	<path d="M172.5,15.1c0,1.3,0.8,1.8,1.8,1.8c0.7,0,1.1-0.1,1.5-0.3l0.2,0.7c-0.3,0.2-0.9,0.3-1.7,0.3c-1.6,0-2.6-1.1-2.6-2.6
		c0-1.6,0.9-2.8,2.5-2.8c1.7,0,2.2,1.5,2.2,2.5c0,0.2,0,0.3,0,0.4H172.5z M175.3,14.4c0-0.6-0.2-1.5-1.3-1.5c-1,0-1.4,0.9-1.5,1.5
		H175.3z"/>
	<path d="M177.4,13.7c0-0.5,0-1,0-1.4h0.8l0.1,0.9h0c0.3-0.5,0.9-1,1.7-1c0.7,0,1.9,0.4,1.9,2.2v3.1h-1v-3c0-0.8-0.3-1.6-1.2-1.6
		c-0.6,0-1.1,0.4-1.3,1c0,0.1-0.1,0.3-0.1,0.4v3.2h-1V13.7z"/>
	<path d="M184.5,10.7v1.5h1.4V13h-1.4v2.8c0,0.7,0.2,1,0.7,1c0.2,0,0.4,0,0.6-0.1l0,0.7c-0.2,0.1-0.5,0.1-0.8,0.1
		c-0.4,0-0.8-0.1-1-0.4c-0.3-0.3-0.4-0.7-0.4-1.4V13h-0.8v-0.7h0.8V11L184.5,10.7z"/>
	<path d="M191.6,14.8c0,1.9-1.3,2.8-2.6,2.8c-1.4,0-2.5-1-2.5-2.7c0-1.8,1.1-2.8,2.6-2.8C190.6,12.1,191.6,13.2,191.6,14.8z
		 M187.5,14.9c0,1.1,0.7,2,1.6,2c0.9,0,1.6-0.9,1.6-2c0-0.9-0.4-2-1.6-2C188,12.9,187.5,13.9,187.5,14.9z"/>
	<path d="M193.6,15.4l0-0.3c-0.1-0.6,0.1-1.2,0.7-1.9c0.5-0.6,0.8-1,0.8-1.5c0-0.6-0.3-0.9-1-0.9c-0.4,0-0.8,0.1-1.1,0.3l-0.3-0.7
		c0.4-0.3,1-0.4,1.5-0.4c1.2,0,1.8,0.8,1.8,1.6c0,0.7-0.4,1.3-0.9,1.9c-0.5,0.6-0.7,1-0.6,1.6l0,0.3H193.6z M193.3,16.9
		c0-0.4,0.3-0.7,0.7-0.7s0.6,0.3,0.6,0.7c0,0.4-0.2,0.7-0.7,0.7C193.6,17.6,193.3,17.3,193.3,16.9z"/>
	<path d="M71.6,21v3.1h3.5V21h1v7.3h-1v-3.4h-3.5v3.4h-0.9V21H71.6z"/>
	<path d="M80.6,28.3l-0.1-0.7h0c-0.3,0.4-0.9,0.8-1.6,0.8c-1.1,0-1.6-0.7-1.6-1.5c0-1.3,1.1-2,3.2-2v-0.1c0-0.4-0.1-1.2-1.2-1.2
		c-0.5,0-1,0.2-1.4,0.4l-0.2-0.6c0.4-0.3,1.1-0.5,1.7-0.5c1.6,0,2,1.1,2,2.1v2c0,0.5,0,0.9,0.1,1.3H80.6z M80.5,25.7
		c-1,0-2.2,0.2-2.2,1.2c0,0.6,0.4,0.9,0.9,0.9c0.7,0,1.1-0.4,1.3-0.9c0-0.1,0.1-0.2,0.1-0.3V25.7z"/>
	<path d="M82.3,27.8l2.4-3.1c0.2-0.3,0.4-0.5,0.7-0.8v0h-2.8v-0.8h4l0,0.6l-2.3,3c-0.2,0.3-0.4,0.6-0.7,0.8v0h3.1v0.8h-4.3V27.8z"/>
	<path d="M93.6,28.2c-0.2,0.1-0.8,0.3-1.5,0.3c-1.6,0-2.6-1.1-2.6-2.7c0-1.6,1.1-2.8,2.8-2.8c0.6,0,1.1,0.1,1.3,0.3L93.4,24
		c-0.2-0.1-0.6-0.2-1.1-0.2c-1.2,0-1.9,0.9-1.9,2c0,1.2,0.8,2,1.8,2c0.5,0,0.9-0.1,1.2-0.3L93.6,28.2z"/>
	<path d="M94.7,20.7h1v7.7h-1V20.7z"/>
	<path d="M98.4,21.6c0,0.3-0.2,0.6-0.6,0.6c-0.3,0-0.6-0.3-0.6-0.6c0-0.3,0.2-0.6,0.6-0.6C98.1,21,98.4,21.3,98.4,21.6z M97.3,28.3
		v-5.2h1v5.2H97.3z"/>
	<path d="M103.6,28.2c-0.2,0.1-0.8,0.3-1.5,0.3c-1.6,0-2.6-1.1-2.6-2.7c0-1.6,1.1-2.8,2.8-2.8c0.6,0,1.1,0.1,1.3,0.3l-0.2,0.7
		c-0.2-0.1-0.6-0.2-1.1-0.2c-1.2,0-1.9,0.9-1.9,2c0,1.2,0.8,2,1.8,2c0.5,0,0.9-0.1,1.2-0.3L103.6,28.2z"/>
	<path d="M105.6,25.5L105.6,25.5c0.2-0.2,0.3-0.4,0.5-0.6l1.5-1.8h1.1l-2,2.2l2.3,3.1h-1.2l-1.8-2.5l-0.5,0.5v2h-0.9v-7.7h0.9V25.5z
		"/>
	<path d="M115,28.3l-0.1-0.7h0c-0.3,0.4-0.9,0.8-1.6,0.8c-1.1,0-1.6-0.7-1.6-1.5c0-1.3,1.1-2,3.2-2v-0.1c0-0.4-0.1-1.2-1.2-1.2
		c-0.5,0-1,0.2-1.4,0.4l-0.2-0.6c0.4-0.3,1.1-0.5,1.7-0.5c1.6,0,2,1.1,2,2.1v2c0,0.5,0,0.9,0.1,1.3H115z M114.8,25.7
		c-1,0-2.2,0.2-2.2,1.2c0,0.6,0.4,0.9,0.9,0.9c0.7,0,1.1-0.4,1.3-0.9c0-0.1,0.1-0.2,0.1-0.3V25.7z"/>
	<path d="M120.9,27.5L120.9,27.5c-0.3,0.5-0.9,0.9-1.7,0.9c-1.2,0-2.2-1.1-2.2-2.7c0-2,1.3-2.8,2.4-2.8c0.8,0,1.4,0.4,1.6,0.9h0
		l0-0.8h0.9c0,0.4,0,0.9,0,1.4v6h-1V27.5z M120.9,25.2c0-0.1,0-0.3,0-0.4c-0.1-0.6-0.7-1.1-1.4-1.1c-1,0-1.6,0.8-1.6,2
		c0,1,0.5,2,1.5,2c0.6,0,1.1-0.4,1.4-1c0-0.1,0.1-0.3,0.1-0.5V25.2z"/>
	<path d="M127.8,26.9c0,0.5,0,1,0,1.4H127l-0.1-0.9h0c-0.2,0.4-0.8,1-1.7,1c-0.8,0-1.8-0.5-1.8-2.3v-3.1h1V26c0,1,0.3,1.7,1.2,1.7
		c0.6,0,1.1-0.4,1.3-0.9c0.1-0.1,0.1-0.3,0.1-0.5v-3.2h1V26.9z"/>
	<path d="M131.3,20.8l-1.3,1.5h-0.7l1-1.5H131.3z M129.4,28.3v-5.2h1v5.2H129.4z"/>
</g>
</svg>
