<?xml version="1.0" encoding="utf-8"?>
<!-- Generator: Adobe Illustrator 24.0.0, SVG Export Plug-In . SVG Version: 6.00 Build 0)  -->
<svg version="1.1" id="Layer_1" xmlns="http://www.w3.org/2000/svg" xmlns:xlink="http://www.w3.org/1999/xlink" x="0px" y="0px"
	 viewBox="0 0 156.79 63.85" style="enable-background:new 0 0 156.79 63.85;" xml:space="preserve">
<style type="text/css">
	.st0{fill:#3A404C;}
</style>
<g>
	<polygon class="st0" points="76.33,19.3 75.31,19.3 73.78,23.87 73.77,24.09 73.74,23.86 72.2,19.3 71.18,19.3 73.28,25.09 
		74.15,25.09 	"/>
	<path class="st0" d="M81.87,22.04v-0.55c0-1.4-0.86-2.34-2.18-2.34c-1.6,0-2.65,1.18-2.65,2.98c0,1.78,1.05,2.97,2.62,2.97
		c0.73,0,1.2-0.16,2.03-0.68l-0.37-0.73c-0.62,0.42-0.97,0.55-1.47,0.55c-1.14,0-1.84-0.83-1.84-2.2H81.87z M80.84,21.33h-2.75
		C78.3,20.46,78.85,20,79.63,20C80.4,20,80.83,20.46,80.84,21.33"/>
	<path class="st0" d="M86.49,19.53c-0.24-0.26-0.51-0.39-0.72-0.39c-0.42,0-0.77,0.27-1.46,1.17v-1.02h-0.93v5.64h0.93v-3.36
		c0.53-0.97,0.98-1.48,1.33-1.48c0.11,0,0.21,0.06,0.4,0.22L86.49,19.53z"/>
	<path class="st0" d="M91.29,23.47c0-0.88-0.33-1.27-1.52-1.77c-1.02-0.42-1.16-0.5-1.39-0.73c-0.08-0.09-0.14-0.21-0.14-0.35
		c0-0.42,0.41-0.71,1.05-0.71c0.21,0,0.42,0.04,0.64,0.1c0.28,0.08,0.44,0.15,0.8,0.37l0.46-0.75c-0.48-0.27-0.68-0.34-1.09-0.42
		c-0.24-0.03-0.48-0.06-0.72-0.06c-1.31,0-2.14,0.61-2.14,1.6c0,0.68,0.37,1.06,1.47,1.52c1,0.42,1.26,0.57,1.49,0.89
		c0.06,0.1,0.11,0.26,0.11,0.39c0,0.44-0.42,0.75-0.99,0.75c-0.4,0-0.89-0.13-1.29-0.31c-0.1-0.05-0.24-0.13-0.43-0.23l-0.39,0.79
		c0.56,0.28,0.8,0.37,1.33,0.47c0.28,0.05,0.54,0.07,0.78,0.07C90.56,25.09,91.29,24.48,91.29,23.47"/>
	<path class="st0" d="M94.17,17.33c0-0.34-0.27-0.61-0.61-0.61c-0.34,0-0.61,0.27-0.61,0.61c0,0.34,0.27,0.61,0.61,0.61
		C93.9,17.94,94.17,17.67,94.17,17.33 M94.03,19.3H93.1v5.64h0.93V19.3z"/>
	<path class="st0" d="M100.77,24.93v-8.3h-0.94v2.9c-0.36-0.27-0.75-0.39-1.34-0.39c-1.66,0-2.87,1.3-2.87,3.12
		c0,1.67,0.96,2.83,2.35,2.83c0.7,0,1.36-0.31,1.86-0.88v0.72H100.77z M99.83,23.21c-0.26,0.33-0.4,0.45-0.61,0.62
		c-0.34,0.23-0.76,0.38-1.09,0.38c-0.87,0-1.5-0.82-1.5-1.95c0-1.36,0.77-2.21,1.96-2.21c0.57,0,0.95,0.16,1.12,0.47
		c0.09,0.19,0.12,0.31,0.12,0.74V23.21z"/>
	<path class="st0" d="M107.04,24.31c-0.29-0.05-0.44-0.15-0.47-0.3V23.6v-3.05c0-0.87-0.71-1.41-1.83-1.41
		c-1.2,0-2.03,0.52-2.03,1.26c0,0.13,0.02,0.19,0.11,0.34l0.95-0.2c-0.04-0.1-0.06-0.15-0.06-0.21c0-0.32,0.28-0.48,0.86-0.48
		c0.73,0,1.07,0.25,1.07,0.7v1.02l-1.95,0.46c-0.82,0.19-1.25,0.74-1.25,1.57c0,0.89,0.6,1.48,1.5,1.48c0.4,0,0.85-0.13,1.19-0.33
		c0.19-0.11,0.32-0.2,0.6-0.45c0.05,0.53,0.32,0.73,1.1,0.78L107.04,24.31z M105.64,23.52c-0.81,0.59-1.1,0.72-1.52,0.72
		c-0.46,0-0.76-0.29-0.76-0.73c0-0.23,0.03-0.36,0.16-0.61l2.12-0.55V23.52z"/>
	<path class="st0" d="M113.35,24.93v-8.3h-0.95v2.9c-0.36-0.27-0.74-0.39-1.34-0.39c-1.67,0-2.87,1.3-2.87,3.12
		c0,1.67,0.96,2.83,2.34,2.83c0.71,0,1.37-0.31,1.86-0.88v0.72H113.35z M112.4,23.21c-0.26,0.33-0.4,0.45-0.6,0.62
		c-0.35,0.23-0.76,0.38-1.1,0.38c-0.86,0-1.49-0.82-1.49-1.95c0-1.36,0.77-2.21,1.95-2.21c0.57,0,0.95,0.16,1.13,0.47
		c0.09,0.19,0.11,0.31,0.11,0.74V23.21z"/>
	<path class="st0" d="M123.12,24.93v-8.3h-0.94v2.9c-0.36-0.27-0.74-0.39-1.33-0.39c-1.66,0-2.87,1.3-2.87,3.12
		c0,1.67,0.97,2.83,2.34,2.83c0.71,0,1.36-0.31,1.86-0.88v0.72H123.12z M122.18,23.21c-0.25,0.33-0.4,0.45-0.61,0.62
		c-0.35,0.23-0.75,0.38-1.09,0.38c-0.87,0-1.5-0.82-1.5-1.95c0-1.36,0.77-2.21,1.96-2.21c0.57,0,0.96,0.16,1.13,0.47
		c0.09,0.19,0.11,0.31,0.11,0.74V23.21z"/>
	<path class="st0" d="M129.47,22.04v-0.55c0-1.4-0.85-2.34-2.16-2.34c-1.6,0-2.66,1.18-2.66,2.98c0,1.78,1.06,2.97,2.62,2.97
		c0.73,0,1.2-0.16,2.03-0.68l-0.37-0.73c-0.6,0.42-0.96,0.55-1.46,0.55c-1.15,0-1.84-0.83-1.84-2.2H129.47z M128.46,21.33h-2.75
		c0.21-0.87,0.75-1.34,1.53-1.34C128.02,20,128.45,20.46,128.46,21.33"/>
	<path class="st0" d="M5.69,20.7c-1.08,3.46-1.69,7.28-1.69,11.28v0.12c0,16.32,9.69,29.14,21.21,29.14S46.42,48.41,46.42,32.1
		v-0.12c0-4.03-0.61-7.86-1.7-11.34C41.43,10.12,33.85,2.96,25.21,2.96C16.56,2.96,8.97,10.15,5.69,20.7 M3.28,31.98
		c0-4.08,0.61-7.97,1.72-11.5C8.33,9.76,16.12,2.23,25.21,2.23c9.07,0,16.85,7.5,20.19,18.19c1.12,3.55,1.74,7.46,1.74,11.56v0.12
		c0,16.5-9.82,29.87-21.93,29.87C13.1,61.97,3.28,48.6,3.28,32.1V31.98z"/>
	<path class="st0" d="M23.72,6.21c-0.27-1.08-1.08-1.54-2.3-1.24c-0.97,0.24-1.24,0.39-1.33,0.48c-0.05,0.05-0.04,0.11,0,0.17
		l0.45-0.06l0.71,2.84l-0.28,0.15c-0.12,0.06-0.15,0.16-0.09,0.26c0.11-0.04,0.49-0.13,0.74-0.2c0.28-0.07,0.65-0.14,0.8-0.18
		C23.58,8.15,23.98,7.25,23.72,6.21 M22.41,8.14c-0.32,0.08-0.49,0.1-0.68,0.11l-0.71-2.9c1.27-0.32,1.98,0.08,2.25,1.17
		C23.47,7.37,23.03,7.99,22.41,8.14"/>
	<path class="st0" d="M30.23,7.09c0.34-1.03,0-1.73-0.92-2.03c-1.07-0.35-1.99,0.23-2.36,1.39c-0.31,0.96-0.04,1.73,0.87,2.03
		C28.89,8.82,29.83,8.32,30.23,7.09 M29.66,7.15c-0.3,0.94-0.9,1.26-1.54,1.05c-0.64-0.21-0.94-0.81-0.6-1.84
		c0.26-0.82,0.81-1.23,1.5-1.01C29.81,5.6,29.93,6.33,29.66,7.15"/>
	<path class="st0" d="M32.81,10.86c-0.15-0.22-0.23-0.44-0.27-0.81l-0.15-1.38c0.48,0.08,0.91-0.14,1.15-0.51
		c0.31-0.5,0.12-1.06-0.53-1.46c-0.79-0.5-1.13-0.66-1.22-0.51c-0.01,0.02-0.02,0.04-0.03,0.06l0.35,0.28l-1.56,2.5l-0.33-0.09
		c-0.1-0.03-0.2,0.01-0.23,0.11c0.2,0.12,0.34,0.21,0.54,0.32c0.19,0.13,0.37,0.25,0.56,0.36c0.09,0.06,0.23,0.04,0.31-0.06
		l-0.43-0.37l0.62-0.99l0.32,0.2L32,9.98c0.05,0.54,0.17,0.69,0.43,0.86C32.58,10.92,32.7,10.93,32.81,10.86 M33.04,7.99
		c-0.27,0.44-0.69,0.54-1.14,0.25c-0.06-0.04-0.12-0.08-0.18-0.13l0.85-1.37c0.08,0.03,0.15,0.09,0.22,0.13
		C33.27,7.18,33.27,7.63,33.04,7.99"/>
	<path class="st0" d="M14.42,12.61c-0.45-0.39-0.83-0.28-1.41,0.06c-0.44,0.26-0.76,0.35-1.03,0.13c-0.23-0.19-0.2-0.58,0.01-0.84
		c0.17-0.2,0.32-0.34,0.48-0.43l0.38,0.34c0.13-0.11,0.19-0.26,0.03-0.41l-0.41-0.41c-0.17,0.13-0.44,0.38-0.65,0.62
		c-0.4,0.48-0.48,1.2,0.02,1.63c0.3,0.25,0.68,0.24,1.2-0.05c0.7-0.4,0.98-0.36,1.22-0.16c0.2,0.16,0.28,0.59,0.02,0.91
		c-0.34,0.41-0.66,0.47-1.05,0.14c-0.15,0.18-0.17,0.43,0.01,0.59c0.35,0.3,0.8,0.08,1.19-0.38C14.88,13.81,14.89,13,14.42,12.61"/>
	<path class="st0" d="M15.99,9l-0.76-0.67c-0.2,0.28-0.67,0.72-0.99,1.03c-0.33,0.32-0.69,0.61-1.09,1.01l0.59,0.79
		c0.15-0.09,0.18-0.17,0.04-0.51l-0.14-0.3c0.16-0.18,0.39-0.38,0.58-0.56l2.04,2.11l-0.21,0.32c-0.07,0.1-0.04,0.2,0.06,0.26
		c0.1-0.12,0.32-0.33,0.52-0.52c0.18-0.17,0.35-0.33,0.46-0.43c0.1-0.09,0.11-0.2,0.02-0.31l-0.48,0.33L14.6,9.45
		c0.26-0.25,0.45-0.4,0.59-0.59l0.42,0.23C15.76,9.19,15.87,9.18,15.99,9"/>
	<path class="st0" d="M18.91,5.89l-0.89,0.52c-0.16,0.09-0.18,0.23-0.1,0.32l0.41-0.15l0.6,2.64l-2.07-1.79l0.24-0.17
		c0.16-0.12,0.16-0.27,0.1-0.38l-1.01,0.59c-0.15,0.09-0.22,0.25-0.11,0.37l0.32-0.13l2.68,2.34c0.22-0.17,0.3-0.38,0.24-0.71
		l-0.62-2.93C19,6.28,19.06,6.11,18.91,5.89"/>
	<path class="st0" d="M25.92,7.81l-0.52-0.1l0.05-2.98l0.26-0.02c0.17-0.01,0.24-0.07,0.22-0.25c-1.03-0.02-1.12-0.02-1.12-0.02
		c-0.2,0-0.31,0.07-0.28,0.24l0.42,0.05L24.91,7.7l-0.33,0.06c-0.17,0.03-0.21,0.13-0.17,0.23c0.16-0.01,0.41-0.01,0.66,0
		c0.24,0,0.45,0.01,0.6,0.02C25.82,8.02,25.92,7.94,25.92,7.81"/>
	<path class="st0" d="M37.33,10.29l-0.74-0.72c-0.14-0.13-0.28-0.11-0.34-0.01l0.26,0.35l-2.37,1.31l1.14-2.49l0.24,0.19
		c0.15,0.12,0.3,0.08,0.39-0.01l-0.84-0.82c-0.13-0.12-0.3-0.14-0.38-0.01l0.21,0.27l-1.5,3.23c0.22,0.16,0.45,0.18,0.74,0.04
		l2.64-1.4C36.98,10.48,37.16,10.49,37.33,10.29"/>
	<path class="st0" d="M37.43,16.22l-0.15-0.4l2.26-1.89c0.28,0.31,0.41,0.36,0.53,0.22l-0.55-0.83l-2.89,0.71l1.72-2.45l-0.38-0.57
		c-0.12-0.19-0.27-0.18-0.35-0.08l0.16,0.44l-2.56,1.35l-0.26-0.22c-0.1-0.09-0.2-0.06-0.25,0.02c0.1,0.13,0.22,0.31,0.34,0.48
		c0.11,0.17,0.21,0.34,0.3,0.46c0.07,0.12,0.17,0.15,0.3,0.08l-0.21-0.48l2.07-1.17l-1.68,2.4c0.13,0.11,0.33,0.18,0.54,0.12
		l2.55-0.65L37,15.4l-0.26-0.23c-0.09-0.08-0.21-0.06-0.25,0.01c0.1,0.13,0.22,0.31,0.34,0.48c0.12,0.18,0.22,0.34,0.3,0.46
		C37.17,16.23,37.28,16.3,37.43,16.22"/>
	<path class="st0" d="M8.74,47.58l0.54,0.89c0.09,0.17,0.23,0.18,0.31,0.09l-0.15-0.41l2.63-0.64l-1.75,2.1l-0.17-0.24
		c-0.13-0.17-0.28-0.16-0.38-0.09l0.61,1c0.09,0.15,0.25,0.21,0.36,0.11l-0.13-0.31l2.28-2.74c-0.18-0.21-0.39-0.3-0.7-0.23
		l-2.9,0.67C9.12,47.49,8.95,47.43,8.74,47.58"/>
	<path class="st0" d="M7.2,43.34l0.33,0.91c0.07,0.19,0.2,0.26,0.35,0.17L7.77,44l2.32-0.84L8.2,46.09l0.18,0.49
		c0.08,0.22,0.24,0.23,0.33,0.15L8.62,46.3l2.74-1l0.19,0.27c0.07,0.11,0.17,0.11,0.25,0.05c-0.06-0.14-0.13-0.33-0.2-0.53
		c-0.08-0.21-0.14-0.42-0.19-0.56c-0.04-0.13-0.16-0.16-0.27-0.13l0.09,0.53l-2.17,0.8l1.65-2.54c0.15-0.23,0.17-0.35,0.12-0.46
		c-0.03-0.07-0.07-0.16-0.12-0.21l-3.07,1.12l-0.1-0.19C7.45,43.29,7.36,43.26,7.2,43.34"/>
	<path class="st0" d="M9.64,40.32l0.05,0.53l-2.86,0.77l-0.1-0.25c-0.06-0.16-0.13-0.21-0.29-0.14c0.27,1.01,0.28,1.08,0.28,1.08
		c0.05,0.21,0.15,0.28,0.31,0.21l-0.08-0.42l2.87-0.77l0.15,0.3c0.09,0.15,0.18,0.16,0.27,0.1c-0.05-0.15-0.11-0.4-0.18-0.63
		c-0.06-0.23-0.11-0.44-0.14-0.58C9.89,40.36,9.78,40.28,9.64,40.32"/>
	<path class="st0" d="M5.8,37.37l0.18,1.02c0.04,0.19,0.16,0.24,0.27,0.2l0-0.43l2.68,0.33l-2.38,1.35l-0.07-0.3
		c-0.06-0.19-0.21-0.24-0.32-0.22l0.2,1.16c0.03,0.18,0.16,0.29,0.31,0.23l-0.01-0.34l3.1-1.73c-0.09-0.26-0.26-0.41-0.58-0.46
		l-2.95-0.42C6.2,37.42,6.06,37.3,5.8,37.37"/>
	<path class="st0" d="M8.15,33.9c-0.05,0.15,0,0.29,0.23,0.34l0.42,0.12l0.06,1.32l-1.29,0.13l-0.1-0.97l0.36-0.02
		c0.03-0.14-0.06-0.31-0.26-0.29c-0.24,0.03-0.45,0.04-0.78,0.06c-0.02,0.05-0.02,0.18,0.05,0.23c0.08,0.07,0.14,0.07,0.32,0.04
		l0.1,0.99l-1.29,0.14l-0.08-1.2l0.51-0.14c0.03-0.14-0.05-0.28-0.22-0.25L5.52,34.5l0.2,1.87c0.05,0.53,0.15,0.56,0.31,0.51l0-0.4
		l2.93-0.31l0.11,0.29c0.05,0.11,0.16,0.14,0.24,0.1l-0.27-2.54L8.15,33.9z"/>
	<path class="st0" d="M9,30.32c-0.1,0.25-0.24,0.44-0.53,0.67L7.4,31.86c-0.2-0.46-0.62-0.7-1.05-0.69
		c-0.58,0.01-0.95,0.47-0.93,1.24c0.02,0.94,0.07,1.31,0.24,1.31c0.03,0,0.05-0.01,0.07-0.01l0.05-0.45l2.94-0.05l0.1,0.33
		c0.03,0.11,0.12,0.17,0.22,0.13c-0.01-0.24-0.01-0.4-0.02-0.63c-0.01-0.23,0-0.44,0-0.66C9,32.26,8.9,32.16,8.78,32.14l-0.08,0.57
		l-1.16,0.02l-0.01-0.39l1.16-0.87c0.43-0.33,0.5-0.51,0.49-0.83C9.18,30.48,9.12,30.37,9,30.32 M6.47,31.68
		c0.52-0.01,0.83,0.29,0.84,0.83c0,0.07,0,0.15-0.01,0.23l-1.61,0.03c-0.01-0.08-0.01-0.17-0.01-0.24
		C5.67,31.93,6.05,31.69,6.47,31.68"/>
	<path class="st0" d="M8.24,27.76c-0.6-0.01-0.82,0.3-1.06,0.94C7,29.18,6.8,29.46,6.45,29.45c-0.3,0-0.52-0.32-0.52-0.65
		c0.01-0.26,0.04-0.46,0.1-0.64l0.52,0.03c0.03-0.17-0.02-0.31-0.24-0.34l-0.57-0.06c-0.06,0.21-0.11,0.57-0.11,0.9
		C5.62,29.31,6,29.93,6.66,29.94c0.39,0.01,0.69-0.25,0.9-0.8c0.29-0.75,0.53-0.9,0.85-0.9c0.25,0.01,0.58,0.3,0.57,0.7
		c-0.01,0.55-0.21,0.78-0.73,0.78c0,0.24,0.14,0.44,0.38,0.45c0.46,0.01,0.67-0.45,0.68-1.04C9.33,28.4,8.85,27.77,8.24,27.76"/>
	<path class="st0" d="M9.39,26.07L9.2,26.56l-2.92-0.52l0.02-0.26c0.01-0.17-0.02-0.25-0.2-0.25c-0.19,1.03-0.2,1.11-0.2,1.11
		c-0.03,0.2,0.02,0.32,0.19,0.32l0.11-0.42l2.93,0.51l0,0.35c0.02,0.17,0.1,0.22,0.21,0.2c0.02-0.16,0.07-0.41,0.11-0.65
		c0.04-0.24,0.08-0.45,0.11-0.59C9.59,26.2,9.52,26.09,9.39,26.07"/>
	<path class="st0" d="M7.78,22.1l-1-0.16c-0.02,0.34-0.19,0.95-0.3,1.4c-0.11,0.44-0.25,0.88-0.39,1.44l0.93,0.35
		c0.08-0.15,0.05-0.24-0.25-0.45L6.51,24.5c0.05-0.24,0.13-0.52,0.2-0.78l2.84,0.71l-0.01,0.39c0,0.11,0.07,0.19,0.19,0.18
		c0.03-0.16,0.1-0.45,0.17-0.72c0.07-0.24,0.13-0.47,0.16-0.61c0.04-0.14-0.01-0.23-0.15-0.28l-0.24,0.54l-2.84-0.72
		c0.08-0.35,0.17-0.58,0.19-0.82l0.47-0.02C7.7,22.37,7.78,22.3,7.78,22.1"/>
	<path class="st0" d="M11.35,19.44l-0.24,0.36l-3.54-0.03c-0.04,0.08-0.07,0.13-0.1,0.21c-0.07,0.18-0.02,0.3,0.12,0.41l2.47,2.13
		l-0.03,0.29c-0.01,0.09,0.07,0.16,0.17,0.16c0.04-0.14,0.11-0.32,0.18-0.49c0.08-0.2,0.16-0.4,0.22-0.55
		c0.06-0.13,0-0.24-0.09-0.29l-0.29,0.47l-0.87-0.71l0.43-1.12l1.12,0.04l-0.06,0.42c-0.02,0.11,0.07,0.17,0.15,0.17
		c0.04-0.14,0.13-0.37,0.21-0.59c0.09-0.24,0.19-0.46,0.24-0.61C11.5,19.61,11.45,19.49,11.35,19.44 M9.46,20.29L9.1,21.22
		l-1.22-0.99L9.46,20.29z"/>
	<path class="st0" d="M11.73,16.76c-0.52-0.28-0.87-0.1-1.36,0.36c-0.38,0.35-0.68,0.5-0.98,0.34c-0.26-0.14-0.33-0.52-0.17-0.81
		c0.12-0.23,0.24-0.39,0.38-0.52l0.45,0.26c0.1-0.14,0.12-0.29-0.06-0.41l-0.48-0.31c-0.14,0.16-0.36,0.46-0.51,0.74
		c-0.29,0.55-0.22,1.28,0.35,1.59c0.35,0.18,0.73,0.09,1.18-0.3c0.6-0.54,0.88-0.56,1.16-0.41c0.22,0.12,0.4,0.52,0.19,0.89
		c-0.25,0.47-0.54,0.6-0.99,0.36c-0.11,0.21-0.08,0.46,0.13,0.57c0.41,0.22,0.8-0.09,1.08-0.62C12.42,17.84,12.27,17.05,11.73,16.76
		"/>
	<path class="st0" d="M39.86,21.61l-0.09-0.42l2.57-2.44c-0.02-0.09-0.03-0.15-0.07-0.22c-0.07-0.17-0.19-0.22-0.37-0.22l-3.26,0.19
		l-0.18-0.23c-0.06-0.07-0.18-0.07-0.24,0c0.06,0.13,0.15,0.31,0.22,0.48c0.08,0.2,0.16,0.41,0.22,0.55
		c0.04,0.13,0.16,0.17,0.25,0.14l-0.12-0.54l1.12-0.1l0.47,1.11l-0.83,0.75l-0.25-0.34c-0.07-0.1-0.18-0.07-0.23-0.03
		c0.07,0.14,0.16,0.35,0.25,0.57c0.1,0.24,0.19,0.47,0.25,0.61C39.63,21.59,39.75,21.65,39.86,21.61 M40.63,19.69l-0.39-0.93
		l1.58-0.13L40.63,19.69z"/>
	<path class="st0" d="M44.12,24.55l-0.25-0.94c-0.06-0.2-0.18-0.28-0.33-0.2l0.07,0.43l-2.38,0.64l2.13-2.76l-0.13-0.51
		c-0.07-0.23-0.22-0.25-0.32-0.18l0.04,0.46l-2.81,0.75l-0.17-0.29c-0.07-0.1-0.17-0.12-0.24-0.07c0.05,0.14,0.1,0.34,0.16,0.55
		c0.06,0.22,0.1,0.42,0.15,0.57c0.03,0.13,0.14,0.18,0.26,0.16l-0.05-0.54l2.24-0.6l-1.87,2.39c-0.17,0.21-0.19,0.33-0.17,0.44
		c0.02,0.08,0.05,0.17,0.1,0.22l3.16-0.84l0.09,0.2C43.87,24.58,43.95,24.62,44.12,24.55"/>
	<path class="st0" d="M43.09,28.81c1.11-0.16,1.65-0.93,1.48-2.16c-0.14-1-0.25-1.28-0.33-1.38c-0.05-0.06-0.11-0.05-0.17-0.01
		l0.01,0.45l-2.9,0.4l-0.12-0.3c-0.05-0.12-0.13-0.17-0.25-0.12c0.02,0.11,0.09,0.49,0.12,0.76c0.04,0.29,0.08,0.66,0.09,0.82
		C41.18,28.46,42.04,28.96,43.09,28.81 M41.32,27.29c-0.05-0.33-0.05-0.5-0.04-0.7l2.95-0.41c0.18,1.31-0.29,1.97-1.39,2.13
		C41.98,28.43,41.41,27.93,41.32,27.29"/>
	<path class="st0" d="M41.58,31.23l0.07-0.52l2.96-0.16l0.04,0.26c0.02,0.18,0.09,0.23,0.27,0.2c-0.06-1.03-0.06-1.12-0.06-1.12
		c-0.02-0.21-0.1-0.31-0.26-0.27l-0.01,0.43l-2.96,0.15l-0.09-0.33c-0.05-0.16-0.14-0.19-0.24-0.15c0.02,0.16,0.04,0.41,0.05,0.66
		c0.01,0.24,0.02,0.45,0.02,0.6C41.35,31.14,41.44,31.24,41.58,31.23"/>
	<path class="st0" d="M44.77,35.7l0.05-0.97c0.01-0.21-0.08-0.32-0.25-0.29l-0.06,0.43l-2.47-0.13l2.89-1.97l0.02-0.52
		c0.01-0.24-0.13-0.31-0.24-0.27l-0.1,0.45l-2.91-0.16l-0.07-0.32c-0.03-0.13-0.12-0.17-0.21-0.14c0,0.15-0.01,0.35-0.02,0.56
		c-0.01,0.23-0.03,0.43-0.04,0.59c-0.02,0.14,0.08,0.22,0.2,0.23l0.12-0.52l2.31,0.12l-2.51,1.69c-0.22,0.15-0.29,0.25-0.3,0.37
		c-0.01,0.08,0,0.18,0.03,0.24l3.27,0.18l0.03,0.21C44.53,35.65,44.59,35.71,44.77,35.7"/>
	<path class="st0" d="M41.59,38.68c0.09-0.13,0.07-0.27-0.13-0.39l-0.37-0.22l0.26-1.29l1.28,0.2l-0.15,0.98l-0.36-0.08
		c-0.06,0.13-0.01,0.32,0.19,0.35c0.24,0.03,0.44,0.08,0.77,0.14c0.03-0.05,0.06-0.17,0.01-0.23c-0.06-0.09-0.13-0.1-0.29-0.13
		l0.15-0.97l1.28,0.2L44,38.42h-0.53c-0.06,0.13-0.02,0.28,0.14,0.3l0.67,0.06l0.29-1.86c0.08-0.53,0-0.58-0.17-0.57l-0.1,0.39
		l-2.91-0.46l-0.02-0.3c-0.02-0.12-0.11-0.18-0.21-0.16l-0.39,2.53L41.59,38.68z"/>
	<path class="st0" d="M43.17,43.52l0.25-0.93c0.05-0.2-0.01-0.33-0.18-0.34l-0.15,0.41l-2.39-0.64l3.23-1.32l0.13-0.5
		c0.06-0.24-0.06-0.34-0.18-0.32l-0.19,0.41l-2.81-0.76V39.2c0-0.13-0.09-0.19-0.18-0.18c-0.03,0.14-0.07,0.35-0.13,0.55
		c-0.07,0.21-0.12,0.41-0.17,0.57c-0.03,0.13,0.04,0.23,0.15,0.27l0.23-0.48l2.24,0.59l-2.8,1.14c-0.26,0.1-0.34,0.18-0.37,0.3
		c-0.02,0.08-0.03,0.17-0.02,0.24l3.16,0.85l-0.02,0.22C42.94,43.43,42.99,43.5,43.17,43.52"/>
	<path class="st0" d="M39.77,45.32c0.54,0.22,0.87,0,1.32-0.51c0.33-0.39,0.63-0.57,0.94-0.44c0.28,0.12,0.37,0.49,0.25,0.79
		c-0.1,0.24-0.21,0.42-0.32,0.56l-0.47-0.21c-0.09,0.14-0.1,0.3,0.09,0.4l0.52,0.26c0.12-0.17,0.31-0.49,0.42-0.79
		c0.23-0.58,0.09-1.29-0.52-1.55c-0.36-0.14-0.73-0.02-1.13,0.42c-0.54,0.6-0.82,0.65-1.12,0.53c-0.22-0.09-0.44-0.47-0.29-0.86
		c0.2-0.5,0.48-0.65,0.95-0.46c0.09-0.22,0.03-0.47-0.19-0.56c-0.43-0.17-0.79,0.17-1.01,0.72C38.97,44.32,39.19,45.08,39.77,45.32"
		/>
	<path class="st0" d="M38.29,46.56l0.32-0.41l2.62,1.4l-0.09,0.24c-0.07,0.16-0.06,0.24,0.11,0.31c0.49-0.92,0.53-0.99,0.53-0.99
		c0.1-0.19,0.08-0.31-0.08-0.36l-0.23,0.35l-2.62-1.4l0.09-0.32c0.05-0.17-0.02-0.25-0.12-0.26c-0.07,0.15-0.19,0.37-0.3,0.59
		c-0.11,0.22-0.22,0.4-0.3,0.53C38.13,46.37,38.16,46.5,38.29,46.56"/>
	<path class="st0" d="M37.66,49.29c0.51,0.32,0.86,0.15,1.39-0.27c0.4-0.32,0.71-0.45,1.01-0.26c0.26,0.16,0.28,0.54,0.11,0.82
		c-0.14,0.21-0.28,0.38-0.41,0.49l-0.44-0.29c-0.11,0.13-0.14,0.29,0.04,0.41l0.46,0.34c0.15-0.14,0.38-0.43,0.56-0.7
		c0.33-0.53,0.31-1.26-0.25-1.61c-0.32-0.21-0.71-0.14-1.18,0.22c-0.63,0.49-0.92,0.5-1.19,0.32c-0.21-0.13-0.35-0.54-0.14-0.89
		c0.29-0.46,0.59-0.56,1.02-0.29c0.12-0.21,0.11-0.45-0.09-0.58c-0.39-0.25-0.81,0.03-1.13,0.54
		C37.04,48.16,37.13,48.96,37.66,49.29"/>
	<path class="st0" d="M19.42,57.5c-0.13-0.15-0.25-0.1-0.35-0.02l-0.31,0.28c-0.18,0-0.45-0.09-0.72-0.23
		c-0.63-0.34-0.89-1.01-0.33-2.06c0.43-0.81,1.13-0.95,1.83-0.58c0.22,0.12,0.41,0.26,0.51,0.38l-0.28,0.44
		c0.11,0.13,0.25,0.13,0.4-0.07l0.33-0.44c-0.13-0.17-0.39-0.39-0.72-0.56c-1.01-0.54-2.09-0.27-2.64,0.78
		c-0.55,1.03-0.3,1.85,0.59,2.33c0.45,0.25,0.85,0.31,1.2,0.32L19.42,57.5z"/>
	<path class="st0" d="M23.69,59.64l-0.48-0.23l0.72-2.89l0.24,0.03c0.17,0.02,0.27,0,0.29-0.18c-1.01-0.25-1.07-0.28-1.07-0.28
		c-0.2-0.04-0.32,0-0.33,0.17l0.39,0.13l-0.32,1.26l-1.87-0.47l0.31-1.25l0.28,0.04c0.17,0.03,0.26,0,0.29-0.18
		c-1.01-0.25-1.13-0.28-1.13-0.28c-0.2-0.04-0.32,0-0.32,0.16l0.4,0.14l-0.72,2.9L20,58.7c-0.11,0-0.18,0.09-0.16,0.19
		c0.15,0.04,0.42,0.1,0.68,0.16c0.23,0.06,0.4,0.11,0.53,0.15c0.14,0.04,0.29,0.01,0.33-0.14l-0.52-0.22l0.33-1.34l1.88,0.47
		l-0.33,1.34h-0.36c-0.13,0-0.19,0.08-0.18,0.17c0.17,0.04,0.44,0.11,0.7,0.17c0.2,0.05,0.39,0.1,0.52,0.14
		C23.53,59.82,23.64,59.78,23.69,59.64"/>
	<path class="st0" d="M26.63,59.63l-0.53-0.07l-0.15-2.98l0.26-0.04c0.17-0.02,0.23-0.08,0.2-0.26c-1.04,0.05-1.12,0.06-1.12,0.06
		c-0.2,0.01-0.3,0.1-0.26,0.25l0.42,0.02l0.16,2.97l-0.33,0.09c-0.16,0.05-0.19,0.14-0.15,0.24c0.16-0.03,0.41-0.03,0.66-0.04
		c0.24-0.02,0.45-0.03,0.6-0.02C26.54,59.85,26.64,59.76,26.63,59.63"/>
	<path class="st0" d="M30.47,57.88c-0.14-0.02-0.27,0.07-0.28,0.25l-0.03,0.47l-1.28,0.33l-0.86-2.8l0.3-0.12
		c0.16-0.06,0.22-0.15,0.16-0.31c-1.07,0.33-1.13,0.35-1.13,0.35c-0.2,0.07-0.28,0.17-0.2,0.31l0.39-0.07l0.87,2.84l-0.27,0.17
		c-0.1,0.07-0.1,0.17-0.03,0.24l2.44-0.75L30.47,57.88z"/>
	<path class="st0" d="M33.39,56.25c-0.16,0.02-0.26,0.12-0.22,0.35l0.07,0.42l-1.17,0.61l-0.65-1.13L32.27,56l0.16,0.33
		c0.14-0.04,0.26-0.19,0.16-0.36c-0.13-0.21-0.22-0.39-0.38-0.69c-0.06,0-0.17,0.06-0.19,0.14c-0.03,0.1,0,0.16,0.09,0.31
		l-0.85,0.49l-0.65-1.13l1.06-0.56l0.33,0.41c0.14-0.04,0.23-0.17,0.14-0.3l-0.36-0.56l-1.62,0.94c-0.47,0.27-0.46,0.36-0.34,0.49
		l0.36-0.17l1.48,2.57l-0.22,0.22c-0.09,0.08-0.07,0.19,0,0.26l2.21-1.27L33.39,56.25z"/>
	<path class="st0" d="M13.36,52.38c0-0.41,0.32-0.74,0.74-0.74c0.41,0,0.74,0.33,0.74,0.74c0,0.41-0.33,0.74-0.74,0.74
		C13.68,53.11,13.36,52.78,13.36,52.38"/>
	<path class="st0" d="M35.59,52.38c0-0.41,0.33-0.74,0.74-0.74c0.41,0,0.74,0.33,0.74,0.74c0,0.41-0.33,0.74-0.74,0.74
		C35.93,53.11,35.59,52.78,35.59,52.38"/>
	<path class="st0" d="M39.88,31.98c0-3.37-0.51-6.54-1.4-9.37c-2.8-8.98-8.56-13.09-13.27-13.09c-4.72,0-10.49,4.14-13.28,13.14
		c-0.88,2.82-1.4,6.09-1.4,9.44c0,14.67,8.46,22.58,14.67,22.58C31.43,54.68,39.88,46.65,39.88,31.98 M24.96,31.85H11.05
		c0.03-3.21,0.52-6.34,1.36-9.03c2.7-8.71,8.17-12.64,12.54-12.78V31.85z M24.96,54.17c-5.77-0.22-13.81-7.67-13.91-21.81h13.91
		V54.17z M25.47,32.36h13.9c-0.14,14.08-8.16,21.59-13.9,21.81V32.36z M39.37,31.85h-13.9V10.03c4.36,0.15,9.81,4.06,12.52,12.74
		C38.85,25.5,39.36,28.58,39.37,31.85"/>
	<path class="st0" d="M31.56,41.73h3.88c0.08-0.01,0.22-0.06,0.24-0.25v-4.3c0-0.11,0-0.2,0.22-0.2c0.19,0,0.21,0.1,0.21,0.2v4.59
		c0,0.43-0.38,0.38-0.38,0.38h-4.17h-4.16c0,0-0.38,0.05-0.38-0.38v-4.59c0-0.1,0.01-0.2,0.21-0.2c0.22,0,0.22,0.09,0.22,0.2v4.3
		c0.02,0.2,0.16,0.24,0.25,0.25H31.56z"/>
	<path class="st0" d="M31.56,40.99h3c0.46,0,0.43-0.21,0.25-0.29c-0.85-0.33-2.14-0.39-2.87,0c-0.3,0.16-0.25-0.14-0.25-0.26V36.6
		c0-0.21,0.25-0.81,2.4-0.73c1.16,0.05,1.18,0.27,1.18,0.43v4.73c0,0.37-0.35,0.36-0.35,0.36h-3.35H28.2c0,0-0.35,0.01-0.35-0.36
		V36.3c0-0.16,0.01-0.39,1.18-0.43c2.16-0.07,2.4,0.52,2.4,0.73v3.84c0,0.12,0.05,0.42-0.25,0.26c-0.73-0.39-2.03-0.33-2.87,0
		c-0.18,0.08-0.21,0.29,0.26,0.29H31.56z"/>
	<path class="st0" d="M36.11,23.7c-0.07-0.11-0.27,0.01-0.45,0c-0.52-0.03-0.82-0.27-1.33-0.35c-0.14-0.03-0.3-0.09-0.38-0.11
		c0.65-0.23,1.04-1.04,0.69-1.22c-0.12-0.06-0.2,0.16-0.34,0.24c-0.38,0.23-0.71-0.04-1.09,0.2c0.18-0.18,0.23-0.37,0.35-0.65
		c0.22-0.48,0.56-1.34,0.2-1.35c-0.12,0-0.15,0.22-0.26,0.35c-0.35,0.39-0.72,0.49-1.08,0.82c-0.11,0.1-0.22,0.19-0.28,0.25
		c0.19-0.67-0.25-1.46-0.59-1.29c-0.12,0.06,0.01,0.25,0,0.42c-0.04,0.44-0.44,0.54-0.48,0.96c-0.04-0.25-0.16-0.41-0.31-0.67
		c-0.26-0.47-0.75-1.24-0.97-0.96c-0.08,0.11,0.09,0.26,0.12,0.43c0.12,0.5-0.04,0.87,0.03,1.33c0.01,0.09,0.03,0.2,0.04,0.31
		c-0.39-0.54-1.23-0.71-1.31-0.34c-0.03,0.12,0.2,0.15,0.32,0.27c0.3,0.3,0.14,0.67,0.43,0.99C29.19,23.2,29,23.2,28.7,23.15
		c-0.52-0.1-1.43-0.23-1.35,0.13c0.03,0.13,0.25,0.1,0.4,0.18c0.46,0.24,0.65,0.58,1.03,0.83c0.09,0.05,0.17,0.12,0.26,0.17
		c-0.67-0.01-1.32,0.54-1.08,0.83c0.09,0.1,0.25-0.07,0.41-0.09c0.43-0.05,0.62,0.31,1.04,0.27c-0.25,0.09-0.37,0.24-0.59,0.45
		c-0.4,0.36-1.06,1-0.73,1.16c0.11,0.05,0.23-0.14,0.39-0.21c0.47-0.21,0.86-0.15,1.28-0.3c0.1-0.03,0.2-0.06,0.29-0.11
		c-0.45,0.51-0.44,1.36-0.05,1.36c0.13,0,0.11-0.23,0.19-0.36c0.24-0.37,0.64-0.28,0.88-0.63c-0.09,0.24-0.05,0.44-0.04,0.74
		c0.02,0.54,0.08,1.45,0.42,1.3c0.12-0.05,0.04-0.27,0.08-0.44c0.14-0.5,0.44-0.75,0.6-1.18c0.04-0.1,0.08-0.2,0.11-0.3
		c0.09,0.69,0.8,1.24,1.04,0.94c0.08-0.1-0.12-0.23-0.17-0.38c-0.14-0.41,0.17-0.68,0.05-1.08c0.14,0.22,0.32,0.31,0.56,0.48
		c0.43,0.32,1.19,0.83,1.27,0.48c0.03-0.13-0.19-0.2-0.28-0.34c-0.31-0.41-0.33-0.81-0.56-1.19c-0.07-0.11-0.13-0.24-0.14-0.3
		c0.6,0.37,1.5,0.19,1.42-0.21c-0.03-0.13-0.26-0.06-0.41-0.12c-0.4-0.15-0.41-0.55-0.77-0.73c0.25,0.02,0.42-0.05,0.71-0.12
		C35.44,24.24,36.32,23.99,36.11,23.7 M33.91,24.44c0,1.22-0.99,2.2-2.19,2.2c-1.22,0-2.21-0.99-2.21-2.2
		c0-1.22,0.99-2.21,2.21-2.21C32.93,22.23,33.91,23.22,33.91,24.44"/>
	<path class="st0" d="M29.94,24.44c0-0.99,0.8-1.78,1.77-1.78c0.98,0,1.78,0.79,1.78,1.78c0,0.98-0.8,1.77-1.78,1.77
		C30.74,26.21,29.94,25.42,29.94,24.44"/>
	<path class="st0" d="M17.04,36.5l0.51-0.5h-0.39c-0.14,0-0.26,0.12-0.26,0.26C16.9,36.37,16.97,36.46,17.04,36.5 M19.94,36.5
		c0.08-0.04,0.14-0.13,0.14-0.24c0-0.15-0.13-0.26-0.27-0.26h-0.38L19.94,36.5z M18.48,35.34c0.17,0,0.3,0.01,0.42,0.09
		c0.19,0.1,0.29,0.23,0.29,0.23h0.79c0,0,0.36,0.01,0.49,0.38c0.13,0.4-0.27,0.75-0.27,0.75c0.17,0.15,1.64,1.6,1.81,1.77
		c0.25,0.25,0.38,0.65,0.26,1.12c-0.07,0.26-0.25,0.35-0.4,0.24c-0.12-0.1-2.05-2.54-2.05-2.54s-0.06-0.08-0.12-0.05
		c-0.05,0.03-0.02,0.08,0.01,0.13c0.02,0.06,2.01,2.73,2.01,2.73s0.23,0.32,0.15,0.65c-0.07,0.25-0.43,0.81-0.74,0.89
		c-0.18,0.05-0.46-0.01-0.56-0.28c-0.35-0.94-1.28-3.74-1.28-3.74s-0.07-0.2-0.16-0.18c-0.09,0.03-0.03,0.21-0.03,0.21
		s1.11,3.58,1.23,3.98c0.07,0.24,0.05,0.47-0.13,0.66c-0.15,0.17-0.36,0.32-1.01,0.45c-0.07,0-0.48-0.02-0.52-0.39
		c-0.04-0.5-0.08-4.66-0.08-4.66s-0.01-0.18-0.11-0.18c-0.1,0-0.12,0.18-0.12,0.18s-0.04,4.15-0.08,4.65
		c-0.03,0.37-0.44,0.39-0.51,0.39c-0.66-0.13-0.86-0.28-1.02-0.44c-0.18-0.19-0.2-0.42-0.13-0.66c0.11-0.4,1.23-3.99,1.23-3.99
		s0.06-0.18-0.03-0.21c-0.09-0.02-0.16,0.18-0.16,0.18s-0.93,2.81-1.28,3.74c-0.1,0.27-0.38,0.33-0.55,0.28
		c-0.3-0.08-0.68-0.64-0.74-0.89c-0.08-0.32,0.16-0.64,0.16-0.64s1.97-2.68,2.01-2.73c0.03-0.05,0.05-0.1,0.01-0.13
		c-0.05-0.03-0.11,0.05-0.11,0.05s-1.93,2.44-2.06,2.54c-0.15,0.11-0.33,0.02-0.4-0.24c-0.12-0.47,0.01-0.87,0.26-1.12
		c0.17-0.17,1.64-1.61,1.81-1.77c0,0-0.39-0.34-0.27-0.75c0.13-0.37,0.48-0.38,0.48-0.38h0.8c0,0,0.1-0.13,0.28-0.23
		C18.2,35.36,18.32,35.34,18.48,35.34"/>
	<path class="st0" d="M20.29,22.11c0,0-0.34,0.59-0.54,0.81c-0.23,0.25,0.36,0.31,0.51,0.11c0.13-0.18,0.42-0.67,0.42-0.67
		s0.01-0.4-0.12-0.49C20.45,21.78,20.29,22.11,20.29,22.11 M22.05,27.5c0,0,0.11,0.15-0.04,0.27c-0.16,0.13-0.27-0.03-0.27-0.03
		l-0.48-0.6c-0.49,0.12-1.33-0.7-1.6-0.83c-0.29-0.15-0.77,0.72-1.03,0.12c-0.54-1.25-2.02,0.81-2.52,0.76
		c-0.52-0.04,0.09-0.65-0.02-1.07c-0.12-0.41-0.6,0-1.01,0.11c-0.13,0.03-0.33,0.07-0.52,0.09L13.4,27.8c0,0-0.11,0.15-0.26,0.02
		c-0.16-0.12-0.04-0.27-0.04-0.27l3.87-5.07c0,0,0.11-0.16,0.23-0.3c0.33-0.34,0.65-0.45,1.1,0.05c0.14,0.16,0.42,0.54,0.7,0.96
		c0.29-0.47,1-1.37,1.2-1.68c0.23-0.37,0.57-0.26,0.75-0.1c0.32,0.27,1.17,1.49,1.69,1.97c0.04,0.03,0.06,0.06,0.08,0.08l0.54,0.54
		c0,0,0.13,0.13-0.01,0.28c-0.14,0.15-0.26,0-0.26,0l-0.54-0.55c-0.19,0.04-0.42,0.03-0.53,0.01c-0.25-0.06-0.65-0.43-0.5,0.3
		c0.05,0.24,0.12,0.35-0.2,0.38c-0.31,0.02-1.27-0.86-1.48-0.56c-0.05,0.07-0.11,0.14-0.17,0.2C19.86,24.56,22.05,27.5,22.05,27.5
		 M17.22,24.51c-0.02-0.41-0.04-0.38,0.18-0.72c0.17-0.27,0.19-0.67,0.24-0.99c0.04-0.19-0.18-0.23-0.24-0.02
		c-0.07,0.15-0.24,0.31-0.33,0.47c-0.3,0.36-0.79,1.07-0.96,1.35c-0.11,0.17-0.65,0.57-0.57,0.84c0.04,0.15,0.32,0.14,0.64-0.19
		c0.17-0.2,0.21-0.25,0.35-0.26c0.24,0.03,0,0.25,0.28,0.31C17.11,25.4,17.22,24.77,17.22,24.51"/>
	<path class="st0" d="M70.8,41.83c0-3.51-2.54-6.2-5.89-6.2c-3.35,0-5.89,2.68-5.89,6.2c0,3.54,2.54,6.22,5.89,6.22
		C68.26,48.05,70.8,45.37,70.8,41.83 M67.68,41.83c0,2.1-1.26,3.82-2.77,3.82c-1.51,0-2.76-1.71-2.76-3.82
		c0-2.07,1.25-3.78,2.76-3.78C66.42,38.04,67.68,39.76,67.68,41.83"/>
	<path class="st0" d="M81.75,36.77c-1.06-0.61-1.46-0.75-2.56-0.99c-0.73-0.15-1.39-0.23-1.95-0.23c-2.84,0-4.77,1.49-4.77,3.7
		c0,1.56,0.96,2.68,3.04,3.46l2.01,0.78c0.8,0.31,1.18,0.71,1.18,1.24c0,0.63-0.68,1.02-1.84,1.02c-0.43,0-0.85-0.08-1.31-0.23
		c-0.86-0.28-1.33-0.51-2.51-1.23l-0.96,2.45c1.29,0.66,1.82,0.86,2.9,1.09c0.71,0.15,1.34,0.23,1.92,0.23
		c2.82,0,4.69-1.42,4.69-3.57c0-1.03-0.48-2.1-1.21-2.6c-0.53-0.4-2.22-1.15-3.53-1.62c-1.06-0.38-1.46-0.71-1.46-1.24
		c0-0.66,0.75-1.11,1.92-1.11c0.85,0,1.86,0.31,2.7,0.81c0.23,0.13,0.49,0.3,0.8,0.51L81.75,36.77z"/>
	<rect x="53.7" y="31.03" class="st0" width="3.18" height="16.69"/>
	<path class="st0" d="M103.9,47.72l-6.02-16.69h-2.85l-6.02,16.69h3.32l1.36-4.12h5.57l1.31,4.12H103.9z M98.4,40.89h-3.85
		l1.91-6.04L98.4,40.89z"/>
	<path class="st0" d="M115.98,47.72v-8.64c0-2.22-1.05-3.34-3.17-3.34c-1.49,0-2.65,0.64-4.07,2.17v-1.95h-3.02v11.76h3.02v-7.07
		l0.41-0.44c1.31-1.42,2.09-1.47,2.73-1.45c0.6,0.03,1.08-0.07,1.08,1.4v7.55H115.98z"/>
	<path class="st0" d="M129.47,47.72V30.16l-3.01,0.86v5.43c-0.65-0.46-0.93-0.58-1.56-0.71c-0.35-0.1-0.71-0.12-1.03-0.12
		c-3.1,0-5.59,2.93-5.59,6.57c0,3.38,2.04,5.86,4.81,5.86c0.78,0,1.51-0.23,2.19-0.66c0.56-0.35,0.75-0.58,1.18-1.27v1.59H129.47z
		 M126.46,43.8c-0.73,1.13-1.66,1.76-2.59,1.76c-1.44,0-2.42-1.48-2.42-3.61c0-2.23,1.23-3.87,2.9-3.87c0.93,0,1.76,0.45,1.97,1.09
		c0.08,0.25,0.15,0.85,0.15,1.51V43.8z"/>
	<path class="st0" d="M142.4,46.58l-1.11-2.29c-1.08,0.68-1.54,0.9-2.24,1.11c-0.47,0.15-0.93,0.21-1.38,0.21
		c-1.12,0-2.11-0.56-2.62-1.42c-0.28-0.48-0.35-0.88-0.4-1.87h7.76v-1.29c0-3.18-2.01-5.38-4.91-5.38c-3.36,0-5.87,2.81-5.87,6.53
		c0,3.59,2.19,5.89,5.67,5.89c1.36,0,2.62-0.28,3.85-0.84C141.42,47.09,141.85,46.89,142.4,46.58 M139.38,40.41h-4.58
		c0.25-1.59,1.16-2.51,2.5-2.51C138.7,37.91,139.3,38.62,139.38,40.41"/>
	<path class="st0" d="M153.18,36.77c-1.06-0.61-1.46-0.75-2.57-0.99c-0.73-0.15-1.39-0.23-1.95-0.23c-2.85,0-4.76,1.49-4.76,3.7
		c0,1.56,0.96,2.68,3.03,3.46l2.01,0.78c0.81,0.31,1.19,0.71,1.19,1.24c0,0.63-0.68,1.02-1.84,1.02c-0.43,0-0.86-0.08-1.31-0.23
		c-0.85-0.28-1.33-0.51-2.52-1.23l-0.96,2.45c1.29,0.66,1.82,0.86,2.9,1.09c0.71,0.15,1.34,0.23,1.92,0.23
		c2.82,0,4.68-1.42,4.68-3.57c0-1.03-0.48-2.1-1.21-2.6c-0.53-0.4-2.22-1.15-3.53-1.62c-1.06-0.38-1.46-0.71-1.46-1.24
		c0-0.66,0.76-1.11,1.92-1.11c0.86,0,1.87,0.31,2.7,0.81c0.23,0.13,0.5,0.3,0.8,0.51L153.18,36.77z"/>
	<path class="st0" d="M60.01,22.12v-5.49h-1.02v5.18c0,1.02-0.07,1.31-0.47,1.75c-0.41,0.46-1,0.71-1.72,0.71
		c-0.7,0-1.3-0.25-1.7-0.71c-0.4-0.44-0.49-0.73-0.49-1.75v-5.18h-1.01v5.49c0,1.07,0.27,1.73,0.96,2.29
		c0.61,0.5,1.38,0.76,2.26,0.76c0.88,0,1.64-0.26,2.25-0.76C59.75,23.85,60.01,23.21,60.01,22.12"/>
	<path class="st0" d="M66.89,24.93v-4.21c0-1.06-0.49-1.57-1.47-1.57c-0.52,0-1.08,0.2-1.5,0.56c-0.28,0.22-0.39,0.33-0.77,0.77
		V19.3h-0.93v5.64h0.93v-3.44c0.98-1.08,1.59-1.5,2.16-1.5c0.26,0,0.49,0.11,0.57,0.3c0.06,0.16,0.09,0.29,0.09,0.66v3.99H66.89z"/>
	<path class="st0" d="M70.05,17.33c0-0.34-0.27-0.61-0.61-0.61c-0.34,0-0.61,0.27-0.61,0.61c0,0.34,0.27,0.61,0.61,0.61
		C69.78,17.94,70.05,17.67,70.05,17.33 M69.9,19.3h-0.93v5.64h0.93V19.3z"/>
</g>
</svg>
