<?xml version="1.0" encoding="utf-8"?>
<!-- Generator: Adobe Illustrator 24.0.0, SVG Export Plug-In . SVG Version: 6.00 Build 0)  -->
<svg version="1.1" id="Layer_1" xmlns="http://www.w3.org/2000/svg" xmlns:xlink="http://www.w3.org/1999/xlink" x="0px" y="0px"
	 viewBox="0 0 324.06 130" style="enable-background:new 0 0 324.06 130;" xml:space="preserve">
<style type="text/css">
	.st0{fill:#3A404C;}
</style>
<g>
	<polygon class="st0" points="157.94,37.47 155.75,37.47 152.47,47.3 152.43,47.78 152.37,47.29 149.06,37.47 146.86,37.47 
		151.4,49.93 153.25,49.93 	"/>
	<path class="st0" d="M169.85,43.36v-1.18c0-3.02-1.86-5.04-4.69-5.04c-3.44,0-5.7,2.55-5.7,6.4c0,3.82,2.27,6.39,5.63,6.39
		c1.57,0,2.57-0.35,4.37-1.47l-0.8-1.57c-1.33,0.91-2.08,1.18-3.15,1.18c-2.45,0-3.95-1.78-3.95-4.72H169.85z M167.65,41.85h-5.92
		c0.46-1.88,1.64-2.88,3.31-2.88C166.7,38.97,167.62,39.97,167.65,41.85"/>
	<path class="st0" d="M179.79,37.98c-0.52-0.56-1.09-0.84-1.55-0.84c-0.9,0-1.65,0.59-3.14,2.51v-2.2h-2v12.12h2v-7.22
		c1.15-2.09,2.1-3.18,2.86-3.18c0.24,0,0.45,0.13,0.86,0.47L179.79,37.98z"/>
	<path class="st0" d="M190.1,46.45c0-1.89-0.7-2.73-3.27-3.8c-2.19-0.9-2.5-1.08-2.99-1.57c-0.18-0.19-0.29-0.45-0.29-0.75
		c0-0.91,0.88-1.53,2.25-1.53c0.45,0,0.91,0.09,1.39,0.21c0.61,0.17,0.95,0.33,1.72,0.8l1-1.62c-1.03-0.57-1.45-0.73-2.35-0.91
		c-0.51-0.07-1.04-0.14-1.55-0.14c-2.83,0-4.6,1.31-4.6,3.43c0,1.47,0.8,2.29,3.15,3.28c2.16,0.9,2.71,1.24,3.21,1.92
		c0.13,0.21,0.24,0.56,0.24,0.84c0,0.94-0.91,1.6-2.12,1.6c-0.86,0-1.92-0.27-2.77-0.67c-0.22-0.1-0.52-0.27-0.92-0.49l-0.83,1.7
		c1.21,0.6,1.71,0.79,2.86,1c0.6,0.1,1.16,0.16,1.68,0.16C188.54,49.93,190.1,48.62,190.1,46.45"/>
	<path class="st0" d="M196.31,33.23c0-0.73-0.58-1.31-1.31-1.31c-0.72,0-1.31,0.58-1.31,1.31c0,0.73,0.58,1.32,1.31,1.32
		C195.73,34.55,196.31,33.97,196.31,33.23 M196,37.47h-2v12.12h2V37.47z"/>
	<path class="st0" d="M210.49,49.58V31.74h-2.02v6.24c-0.77-0.59-1.62-0.84-2.87-0.84c-3.57,0-6.17,2.8-6.17,6.71
		c0,3.6,2.07,6.08,5.05,6.08c1.51,0,2.91-0.67,3.99-1.89v1.54H210.49z M208.46,45.88c-0.55,0.7-0.86,0.97-1.31,1.32
		c-0.74,0.5-1.63,0.82-2.35,0.82c-1.86,0-3.22-1.76-3.22-4.19c0-2.93,1.65-4.76,4.21-4.76c1.22,0,2.05,0.34,2.41,1.02
		c0.2,0.4,0.26,0.66,0.26,1.59V45.88z"/>
	<path class="st0" d="M223.98,48.25c-0.63-0.11-0.95-0.33-1-0.64v-0.87v-6.56c0-1.86-1.53-3.02-3.93-3.02
		c-2.59,0-4.36,1.11-4.36,2.71c0,0.29,0.04,0.42,0.23,0.74l2.03-0.43c-0.09-0.22-0.13-0.31-0.13-0.46c0-0.7,0.59-1.04,1.84-1.04
		c1.57,0,2.31,0.53,2.31,1.5v2.2l-4.19,1c-1.77,0.42-2.7,1.6-2.7,3.37c0,1.91,1.28,3.19,3.22,3.19c0.86,0,1.82-0.28,2.55-0.71
		c0.42-0.23,0.68-0.42,1.29-0.97c0.11,1.14,0.69,1.58,2.36,1.69L223.98,48.25z M220.97,46.56c-1.75,1.28-2.36,1.56-3.26,1.56
		c-0.99,0-1.63-0.63-1.63-1.57c0-0.49,0.06-0.77,0.33-1.32l4.55-1.18V46.56z"/>
	<path class="st0" d="M237.53,49.58V31.74h-2.03v6.24c-0.77-0.59-1.6-0.84-2.88-0.84c-3.59,0-6.16,2.8-6.16,6.71
		c0,3.6,2.07,6.08,5.03,6.08c1.53,0,2.95-0.67,4.01-1.89v1.54H237.53z M235.5,45.88c-0.56,0.7-0.85,0.97-1.3,1.32
		c-0.76,0.5-1.63,0.82-2.36,0.82c-1.84,0-3.21-1.76-3.21-4.19c0-2.93,1.65-4.76,4.2-4.76c1.23,0,2.05,0.34,2.42,1.02
		c0.19,0.4,0.25,0.66,0.25,1.59V45.88z"/>
	<path class="st0" d="M258.55,49.58V31.74h-2.03v6.24c-0.77-0.59-1.6-0.84-2.87-0.84c-3.58,0-6.16,2.8-6.16,6.71
		c0,3.6,2.08,6.08,5.04,6.08c1.52,0,2.92-0.67,3.99-1.89v1.54H258.55z M256.52,45.88c-0.55,0.7-0.85,0.97-1.31,1.32
		c-0.75,0.5-1.62,0.82-2.34,0.82c-1.86,0-3.23-1.76-3.23-4.19c0-2.93,1.65-4.76,4.22-4.76c1.22,0,2.06,0.34,2.43,1.02
		c0.19,0.4,0.23,0.66,0.23,1.59V45.88z"/>
	<path class="st0" d="M272.21,43.36v-1.18c0-3.02-1.84-5.04-4.65-5.04c-3.44,0-5.73,2.55-5.73,6.4c0,3.82,2.28,6.39,5.64,6.39
		c1.57,0,2.58-0.35,4.37-1.47l-0.8-1.57c-1.29,0.91-2.07,1.18-3.13,1.18c-2.47,0-3.95-1.78-3.95-4.72H272.21z M270.03,41.85h-5.91
		c0.44-1.88,1.61-2.88,3.3-2.88C269.08,38.97,270.01,39.97,270.03,41.85"/>
	<path class="st0" d="M6.07,40.49c-2.33,7.45-3.63,15.65-3.63,24.26V65c0,35.08,20.83,62.66,45.6,62.66
		c24.77,0,45.59-27.58,45.59-62.66v-0.25c0-8.67-1.3-16.91-3.66-24.39C82.91,17.73,66.6,2.35,48.03,2.35
		C29.43,2.35,13.11,17.79,6.07,40.49 M0.88,64.74c0-8.77,1.32-17.14,3.69-24.73C11.73,16.95,28.49,0.77,48.03,0.77
		c19.51,0,36.24,16.12,43.41,39.12c2.41,7.64,3.74,16.04,3.74,24.85V65c0,35.47-21.12,64.23-47.16,64.23
		C22,129.23,0.88,100.47,0.88,65V64.74z"/>
	<path class="st0" d="M44.83,9.33C44.25,7,42.5,6.01,39.89,6.67c-2.08,0.52-2.67,0.83-2.85,1.03c-0.11,0.11-0.09,0.24,0,0.36
		L38,7.93l1.52,6.12l-0.61,0.33c-0.26,0.14-0.33,0.34-0.2,0.57c0.24-0.08,1.05-0.29,1.6-0.43c0.61-0.16,1.39-0.3,1.73-0.38
		C44.52,13.51,45.39,11.57,44.83,9.33 M42,13.49c-0.69,0.17-1.05,0.23-1.47,0.23L39,7.49c2.74-0.68,4.27,0.17,4.84,2.51
		C44.29,11.82,43.34,13.15,42,13.49"/>
	<path class="st0" d="M58.81,11.22C59.54,9,58.8,7.49,56.83,6.85c-2.3-0.75-4.27,0.5-5.08,2.98c-0.66,2.06-0.09,3.72,1.88,4.36
		C55.95,14.95,57.97,13.86,58.81,11.22 M57.59,11.34c-0.65,2.02-1.93,2.7-3.31,2.25c-1.37-0.45-2.01-1.75-1.28-3.97
		c0.56-1.75,1.75-2.64,3.22-2.17C57.92,8.01,58.17,9.6,57.59,11.34"/>
	<path class="st0" d="M64.37,19.32c-0.33-0.47-0.5-0.96-0.58-1.75l-0.32-2.96c1.04,0.17,1.97-0.3,2.48-1.09
		c0.67-1.07,0.25-2.28-1.14-3.15c-1.7-1.08-2.43-1.42-2.63-1.09c-0.03,0.04-0.04,0.08-0.06,0.14l0.75,0.61l-3.35,5.37l-0.71-0.2
		c-0.22-0.07-0.43,0.02-0.49,0.24c0.44,0.25,0.74,0.44,1.15,0.69c0.41,0.27,0.79,0.53,1.2,0.78c0.2,0.14,0.5,0.09,0.66-0.12
		L60.41,16l1.33-2.12l0.69,0.43l0.2,3.12c0.1,1.17,0.36,1.49,0.93,1.86C63.86,19.46,64.13,19.49,64.37,19.32 M64.87,13.15
		c-0.58,0.94-1.48,1.16-2.46,0.55c-0.12-0.08-0.26-0.18-0.4-0.28l1.83-2.94c0.17,0.08,0.33,0.19,0.46,0.27
		C65.36,11.41,65.36,12.38,64.87,13.15"/>
	<path class="st0" d="M24.83,23.09c-0.97-0.83-1.78-0.6-3.03,0.13c-0.95,0.57-1.64,0.75-2.22,0.29c-0.49-0.42-0.43-1.25,0.02-1.8
		c0.35-0.42,0.69-0.72,1.02-0.92l0.82,0.74c0.28-0.24,0.4-0.56,0.06-0.88l-0.87-0.88c-0.37,0.28-0.95,0.81-1.4,1.34
		c-0.86,1.02-1.04,2.59,0.04,3.5c0.64,0.53,1.46,0.52,2.58-0.11c1.5-0.86,2.11-0.78,2.63-0.33c0.42,0.33,0.59,1.28,0.04,1.96
		c-0.74,0.88-1.41,1.01-2.26,0.3c-0.33,0.39-0.37,0.92,0.02,1.26c0.76,0.64,1.73,0.17,2.56-0.82
		C25.81,25.66,25.84,23.94,24.83,23.09"/>
	<path class="st0" d="M28.2,15.33l-1.63-1.43c-0.43,0.61-1.43,1.54-2.13,2.23c-0.71,0.68-1.48,1.32-2.35,2.18L23.37,20
		c0.32-0.19,0.38-0.37,0.08-1.09l-0.3-0.64c0.35-0.39,0.83-0.81,1.25-1.21l4.38,4.54l-0.45,0.7c-0.15,0.21-0.09,0.43,0.13,0.56
		c0.22-0.26,0.68-0.71,1.12-1.13c0.39-0.37,0.75-0.71,0.99-0.93c0.22-0.2,0.24-0.44,0.05-0.67l-1.03,0.7L25.2,16.3
		c0.55-0.53,0.96-0.86,1.26-1.28l0.9,0.5C27.72,15.74,27.95,15.71,28.2,15.33"/>
	<path class="st0" d="M34.48,8.63l-1.92,1.12c-0.35,0.2-0.39,0.5-0.22,0.68l0.87-0.31l1.28,5.68l-4.45-3.84l0.52-0.37
		c0.35-0.25,0.33-0.58,0.21-0.81l-2.18,1.26c-0.32,0.19-0.46,0.54-0.24,0.79l0.68-0.27l5.77,5.03c0.47-0.37,0.64-0.82,0.52-1.52
		L34,9.77C34.67,9.48,34.8,9.11,34.48,8.63"/>
	<path class="st0" d="M49.56,12.76l-1.11-0.22l0.1-6.4l0.57-0.05c0.37-0.02,0.52-0.15,0.47-0.53c-2.23-0.03-2.41-0.04-2.41-0.04
		c-0.44-0.01-0.67,0.16-0.6,0.51l0.91,0.1l-0.12,6.4l-0.71,0.14c-0.35,0.07-0.45,0.27-0.37,0.5c0.34-0.02,0.89-0.01,1.42,0
		c0.51,0.01,0.97,0.01,1.3,0.04C49.33,13.23,49.55,13.06,49.56,12.76"/>
	<path class="st0" d="M74.09,18.1l-1.59-1.55c-0.31-0.29-0.59-0.24-0.73-0.02l0.56,0.75l-5.1,2.81l2.45-5.35l0.51,0.4
		c0.32,0.27,0.66,0.17,0.84-0.01l-1.81-1.76c-0.27-0.26-0.64-0.3-0.82-0.01l0.46,0.58l-3.23,6.95c0.48,0.34,0.96,0.39,1.58,0.08
		l5.67-3C73.34,18.51,73.73,18.54,74.09,18.1"/>
	<path class="st0" d="M74.3,30.85l-0.32-0.86l4.85-4.06c0.61,0.67,0.89,0.76,1.15,0.48l-1.19-1.77l-6.22,1.53l3.7-5.26l-0.82-1.23
		c-0.25-0.4-0.59-0.39-0.75-0.17l0.34,0.95l-5.5,2.9l-0.55-0.47c-0.21-0.19-0.44-0.12-0.55,0.04c0.21,0.27,0.47,0.66,0.72,1.03
		c0.24,0.37,0.46,0.72,0.64,1c0.15,0.25,0.36,0.33,0.64,0.17L70,24.08l4.46-2.52l-3.6,5.17c0.28,0.23,0.7,0.38,1.16,0.26l5.48-1.4
		l-4.11,3.5l-0.57-0.5c-0.19-0.16-0.45-0.12-0.55,0.02c0.22,0.28,0.48,0.67,0.73,1.04c0.25,0.38,0.47,0.72,0.64,0.99
		C73.75,30.87,73.98,31.03,74.3,30.85"/>
	<path class="st0" d="M12.61,98.28l1.15,1.92c0.2,0.35,0.5,0.38,0.68,0.2l-0.33-0.88l5.65-1.37l-3.77,4.52l-0.37-0.51
		c-0.27-0.36-0.6-0.34-0.82-0.19l1.32,2.16c0.19,0.33,0.53,0.45,0.77,0.23l-0.28-0.67l4.91-5.88c-0.38-0.46-0.84-0.65-1.51-0.49
		l-6.24,1.43C13.44,98.09,13.07,97.96,12.61,98.28"/>
	<path class="st0" d="M9.31,89.17l0.71,1.96c0.15,0.41,0.43,0.57,0.75,0.36l-0.23-0.91l4.98-1.81l-4.06,6.31l0.38,1.05
		c0.17,0.48,0.52,0.5,0.72,0.33l-0.18-0.94l5.89-2.16l0.41,0.58c0.15,0.23,0.37,0.24,0.53,0.1c-0.13-0.3-0.29-0.71-0.43-1.14
		c-0.18-0.46-0.31-0.89-0.41-1.2c-0.09-0.29-0.35-0.35-0.59-0.29l0.2,1.14l-4.68,1.71l3.56-5.45c0.32-0.5,0.36-0.75,0.27-0.99
		c-0.06-0.16-0.15-0.35-0.25-0.45l-6.61,2.42l-0.22-0.41C9.84,89.06,9.66,88.99,9.31,89.17"/>
	<path class="st0" d="M14.55,82.67l0.1,1.13L8.5,85.46l-0.21-0.53c-0.13-0.35-0.28-0.45-0.63-0.31c0.57,2.17,0.61,2.33,0.61,2.33
		c0.12,0.45,0.33,0.61,0.66,0.45l-0.16-0.9l6.17-1.66l0.31,0.65c0.18,0.33,0.39,0.35,0.58,0.21c-0.11-0.32-0.24-0.85-0.39-1.36
		c-0.12-0.5-0.24-0.95-0.31-1.25C15.08,82.76,14.84,82.58,14.55,82.67"/>
	<path class="st0" d="M6.3,76.33l0.38,2.2c0.08,0.41,0.34,0.52,0.57,0.43l-0.01-0.92l5.77,0.72L7.9,81.65l-0.16-0.64
		c-0.12-0.42-0.45-0.52-0.69-0.47l0.42,2.49c0.07,0.38,0.35,0.62,0.66,0.5l-0.01-0.74l6.68-3.72c-0.2-0.56-0.56-0.89-1.24-0.99
		l-6.35-0.9C7.15,76.44,6.85,76.18,6.3,76.33"/>
	<path class="st0" d="M11.35,68.87c-0.11,0.32,0,0.62,0.48,0.74l0.9,0.25l0.14,2.83l-2.76,0.29l-0.22-2.09l0.77-0.05
		c0.05-0.3-0.13-0.67-0.57-0.63c-0.53,0.06-0.97,0.09-1.69,0.13c-0.04,0.11-0.03,0.38,0.11,0.49c0.17,0.15,0.31,0.15,0.7,0.09
		l0.21,2.12l-2.77,0.29l-0.17-2.58l1.09-0.31c0.06-0.3-0.11-0.59-0.46-0.54l-1.42,0.24l0.42,4.03c0.12,1.14,0.32,1.2,0.66,1.09
		l-0.01-0.86l6.31-0.67l0.23,0.63c0.11,0.24,0.33,0.3,0.52,0.21l-0.58-5.46L11.35,68.87z"/>
	<path class="st0" d="M13.16,61.17c-0.21,0.54-0.51,0.95-1.13,1.44l-2.31,1.88c-0.44-0.98-1.33-1.5-2.27-1.48
		c-1.25,0.02-2.05,1.02-2.01,2.67c0.04,2.02,0.14,2.82,0.52,2.81c0.06,0,0.1-0.01,0.14-0.03l0.1-0.96l6.32-0.12l0.21,0.71
		c0.07,0.24,0.25,0.37,0.47,0.29c-0.03-0.51-0.03-0.86-0.04-1.35c-0.01-0.49,0.01-0.95,0-1.43c-0.01-0.24-0.21-0.47-0.47-0.5
		l-0.16,1.22l-2.5,0.05l-0.02-0.83l2.48-1.88c0.92-0.71,1.06-1.1,1.05-1.79C13.56,61.52,13.43,61.28,13.16,61.17 M7.73,64.1
		c1.11-0.01,1.78,0.62,1.8,1.77c0,0.16-0.01,0.32-0.02,0.49l-3.46,0.05c-0.02-0.18-0.03-0.37-0.03-0.52
		C6.01,64.63,6.84,64.12,7.73,64.1"/>
	<path class="st0" d="M11.53,55.67c-1.28-0.03-1.77,0.65-2.28,2.02c-0.38,1.04-0.8,1.62-1.55,1.61c-0.64,0-1.12-0.69-1.11-1.39
		c0.02-0.55,0.09-1,0.22-1.37l1.11,0.06c0.06-0.37-0.05-0.68-0.52-0.73l-1.24-0.13c-0.12,0.45-0.24,1.23-0.25,1.93
		C5.9,59,6.73,60.33,8.14,60.35c0.83,0.01,1.48-0.53,1.94-1.72c0.62-1.62,1.14-1.93,1.83-1.93c0.53,0.03,1.25,0.63,1.24,1.5
		c-0.01,1.18-0.46,1.68-1.57,1.68c0,0.51,0.3,0.95,0.82,0.96c0.99,0.02,1.45-0.96,1.47-2.24C13.88,57.05,12.85,55.69,11.53,55.67"/>
	<path class="st0" d="M14,52.02l-0.39,1.06l-6.28-1.11l0.04-0.57c0.03-0.36-0.05-0.54-0.44-0.55c-0.4,2.21-0.42,2.38-0.42,2.38
		c-0.07,0.43,0.05,0.69,0.41,0.69l0.23-0.9l6.29,1.1l0.01,0.74c0.03,0.36,0.21,0.48,0.44,0.44c0.05-0.34,0.14-0.89,0.23-1.41
		c0.09-0.52,0.17-0.96,0.23-1.27C14.43,52.32,14.3,52.07,14,52.02"/>
	<path class="st0" d="M10.56,43.49l-2.14-0.34c-0.05,0.73-0.4,2.05-0.65,3.02c-0.23,0.94-0.55,1.9-0.84,3.1l2.01,0.76
		C9.1,49.7,9.05,49.5,8.4,49.06l-0.58-0.39c0.1-0.51,0.29-1.13,0.42-1.68l6.12,1.53l-0.02,0.83c0,0.24,0.15,0.41,0.4,0.4
		c0.07-0.35,0.22-0.96,0.36-1.56c0.14-0.51,0.27-1.01,0.35-1.31c0.09-0.29-0.03-0.5-0.32-0.59l-0.51,1.17l-6.11-1.54
		c0.18-0.75,0.36-1.24,0.41-1.77l1.01-0.05C10.37,44.09,10.56,43.93,10.56,43.49"/>
	<path class="st0" d="M18.23,37.77l-0.51,0.77l-7.61-0.07c-0.09,0.16-0.15,0.29-0.22,0.44c-0.15,0.38-0.04,0.64,0.26,0.89l5.31,4.59
		l-0.05,0.63c-0.02,0.19,0.15,0.35,0.36,0.35c0.09-0.31,0.23-0.69,0.38-1.06c0.16-0.43,0.34-0.85,0.47-1.18
		c0.14-0.28,0-0.51-0.19-0.62l-0.61,1.02l-1.88-1.52l0.93-2.41l2.4,0.08l-0.12,0.91c-0.04,0.24,0.15,0.37,0.32,0.37
		c0.09-0.3,0.28-0.79,0.46-1.26c0.19-0.51,0.4-1,0.52-1.31C18.55,38.13,18.45,37.88,18.23,37.77 M14.17,39.59l-0.78,2l-2.62-2.14
		L14.17,39.59z"/>
	<path class="st0" d="M19.03,32.01c-1.12-0.6-1.86-0.22-2.93,0.77c-0.81,0.75-1.46,1.08-2.11,0.74c-0.56-0.31-0.71-1.13-0.37-1.75
		c0.26-0.49,0.53-0.84,0.81-1.12l0.96,0.55c0.22-0.3,0.26-0.62-0.13-0.88l-1.04-0.68c-0.3,0.35-0.77,0.99-1.09,1.6
		c-0.63,1.19-0.48,2.75,0.74,3.43c0.75,0.38,1.57,0.19,2.53-0.65c1.28-1.16,1.89-1.21,2.49-0.89c0.48,0.25,0.85,1.12,0.42,1.9
		c-0.53,1.02-1.16,1.29-2.13,0.78c-0.24,0.45-0.17,0.98,0.28,1.23c0.88,0.46,1.72-0.19,2.33-1.33
		C20.52,34.33,20.2,32.63,19.03,32.01"/>
	<path class="st0" d="M79.53,42.44l-0.18-0.91l5.52-5.26c-0.05-0.18-0.08-0.31-0.15-0.47c-0.15-0.37-0.4-0.48-0.79-0.47l-7,0.41
		l-0.39-0.5c-0.13-0.16-0.38-0.15-0.52-0.01c0.14,0.28,0.31,0.66,0.48,1.02c0.16,0.42,0.34,0.87,0.47,1.18
		c0.09,0.29,0.33,0.37,0.55,0.31l-0.26-1.17l2.41-0.21l1.01,2.38l-1.78,1.61l-0.54-0.73c-0.15-0.21-0.38-0.16-0.49-0.06
		c0.16,0.31,0.34,0.75,0.54,1.23c0.23,0.52,0.41,1.01,0.54,1.31C79.04,42.4,79.29,42.52,79.53,42.44 M81.18,38.32l-0.85-2l3.39-0.28
		L81.18,38.32z"/>
	<path class="st0" d="M88.69,48.77l-0.54-2.01c-0.12-0.43-0.39-0.61-0.71-0.44l0.15,0.93l-5.13,1.37l4.59-5.93l-0.27-1.09
		c-0.15-0.49-0.48-0.54-0.68-0.4l0.08,0.98l-6.04,1.62l-0.36-0.62c-0.14-0.23-0.36-0.26-0.53-0.14c0.1,0.3,0.22,0.73,0.33,1.18
		c0.13,0.46,0.23,0.9,0.31,1.23c0.06,0.28,0.3,0.38,0.55,0.34l-0.1-1.16l4.81-1.29l-4.02,5.14c-0.35,0.46-0.41,0.7-0.35,0.95
		c0.05,0.18,0.12,0.36,0.22,0.47l6.8-1.82l0.2,0.44C88.15,48.84,88.33,48.92,88.69,48.77"/>
	<path class="st0" d="M86.46,57.92c2.39-0.34,3.55-1.99,3.17-4.65c-0.3-2.15-0.53-2.76-0.71-2.97c-0.1-0.13-0.23-0.11-0.36-0.03
		l0.03,0.97l-6.24,0.87l-0.26-0.64c-0.1-0.26-0.29-0.37-0.54-0.25c0.05,0.24,0.18,1.06,0.26,1.63c0.08,0.62,0.17,1.41,0.2,1.76
		C82.37,57.17,84.21,58.24,86.46,57.92 M82.67,54.66c-0.1-0.71-0.11-1.08-0.08-1.5l6.34-0.88c0.4,2.81-0.61,4.23-2.99,4.57
		C84.09,57.11,82.86,56.03,82.67,54.66"/>
	<path class="st0" d="M83.22,63.13l0.15-1.11l6.36-0.34l0.09,0.57c0.05,0.38,0.18,0.5,0.57,0.43c-0.12-2.22-0.13-2.4-0.13-2.4
		c-0.04-0.45-0.21-0.66-0.56-0.57l-0.03,0.92l-6.37,0.33l-0.19-0.71c-0.11-0.35-0.3-0.41-0.52-0.33c0.04,0.34,0.08,0.89,0.1,1.43
		c0.03,0.51,0.04,0.97,0.04,1.28C82.73,62.94,82.92,63.14,83.22,63.13"/>
	<path class="st0" d="M90.09,72.74l0.12-2.08c0.02-0.45-0.17-0.69-0.54-0.63l-0.13,0.93l-5.31-0.27l6.21-4.23l0.05-1.12
		c0.03-0.51-0.28-0.67-0.52-0.59l-0.22,0.96l-6.26-0.34l-0.15-0.69c-0.06-0.28-0.25-0.37-0.45-0.3c0,0.32-0.01,0.76-0.04,1.21
		c-0.03,0.49-0.06,0.93-0.09,1.26c-0.03,0.29,0.17,0.47,0.43,0.5l0.26-1.13l4.97,0.26l-5.39,3.64c-0.48,0.32-0.62,0.53-0.64,0.79
		c-0.01,0.17,0,0.38,0.06,0.52l7.02,0.38l0.06,0.45C89.56,72.64,89.7,72.76,90.09,72.74"/>
	<path class="st0" d="M83.24,79.14c0.2-0.29,0.16-0.58-0.28-0.84l-0.79-0.47l0.57-2.78l2.76,0.43l-0.32,2.1l-0.78-0.17
		c-0.13,0.28-0.03,0.68,0.4,0.76c0.51,0.07,0.95,0.16,1.67,0.31c0.07-0.1,0.13-0.36,0.02-0.5c-0.13-0.19-0.27-0.23-0.63-0.29
		l0.32-2.09l2.75,0.44l-0.49,2.55h-1.14c-0.12,0.29-0.04,0.61,0.3,0.65l1.45,0.13l0.63-3.99c0.18-1.15,0-1.25-0.36-1.24l-0.22,0.83
		l-6.26-1l-0.05-0.65c-0.03-0.27-0.24-0.38-0.45-0.35l-0.84,5.44L83.24,79.14z"/>
	<path class="st0" d="M86.64,89.56l0.54-2.01c0.11-0.43-0.03-0.71-0.4-0.74l-0.32,0.88l-5.13-1.38l6.94-2.83l0.29-1.07
		c0.13-0.51-0.14-0.73-0.39-0.69l-0.41,0.89l-6.04-1.62v-0.71c0-0.28-0.18-0.41-0.39-0.39c-0.06,0.31-0.16,0.75-0.28,1.18
		c-0.14,0.46-0.26,0.89-0.36,1.22c-0.06,0.28,0.08,0.49,0.32,0.57l0.48-1.04l4.81,1.27l-6.03,2.45c-0.55,0.21-0.73,0.39-0.8,0.64
		c-0.04,0.17-0.07,0.37-0.04,0.52l6.79,1.83l-0.05,0.46C86.14,89.35,86.26,89.5,86.64,89.56"/>
	<path class="st0" d="M79.33,93.42c1.17,0.47,1.87,0.01,2.84-1.09c0.72-0.84,1.35-1.22,2.02-0.95c0.6,0.25,0.8,1.04,0.54,1.7
		c-0.21,0.52-0.44,0.91-0.69,1.21l-1-0.44c-0.2,0.31-0.21,0.65,0.2,0.86l1.13,0.56c0.26-0.37,0.66-1.06,0.91-1.7
		c0.5-1.24,0.2-2.78-1.11-3.32c-0.77-0.3-1.57-0.04-2.42,0.9c-1.16,1.29-1.77,1.41-2.41,1.14c-0.48-0.19-0.95-1.02-0.62-1.85
		c0.44-1.07,1.04-1.4,2.05-0.99c0.2-0.48,0.06-1.01-0.4-1.19c-0.93-0.36-1.7,0.36-2.17,1.55C77.6,91.27,78.09,92.92,79.33,93.42"/>
	<path class="st0" d="M76.14,96.08l0.69-0.89l5.63,3.02l-0.2,0.52c-0.16,0.34-0.12,0.52,0.24,0.66c1.05-1.98,1.13-2.13,1.13-2.13
		c0.21-0.4,0.18-0.68-0.18-0.77l-0.5,0.76l-5.63-3.01l0.19-0.69c0.1-0.36-0.03-0.53-0.26-0.56c-0.15,0.32-0.4,0.79-0.64,1.26
		c-0.24,0.47-0.46,0.87-0.63,1.14C75.81,95.67,75.88,95.96,76.14,96.08"/>
	<path class="st0" d="M74.79,101.95c1.09,0.69,1.85,0.33,2.99-0.58c0.86-0.68,1.53-0.97,2.16-0.57c0.56,0.33,0.6,1.17,0.24,1.77
		c-0.3,0.46-0.6,0.82-0.88,1.06l-0.94-0.62c-0.24,0.28-0.3,0.62,0.08,0.89l0.99,0.74c0.32-0.3,0.82-0.92,1.2-1.5
		c0.7-1.14,0.67-2.71-0.53-3.46c-0.7-0.45-1.52-0.3-2.55,0.48c-1.36,1.05-1.98,1.07-2.56,0.69c-0.46-0.28-0.75-1.17-0.3-1.92
		c0.62-0.99,1.26-1.2,2.2-0.62c0.26-0.45,0.24-0.97-0.2-1.25c-0.84-0.53-1.73,0.07-2.42,1.17C73.46,99.52,73.67,101.25,74.79,101.95
		"/>
	<path class="st0" d="M35.58,119.62c-0.27-0.32-0.54-0.22-0.76-0.03l-0.66,0.61c-0.38,0-0.96-0.19-1.55-0.49
		c-1.35-0.73-1.9-2.17-0.7-4.43c0.92-1.75,2.43-2.04,3.93-1.25c0.47,0.26,0.89,0.57,1.11,0.82l-0.61,0.95
		c0.24,0.28,0.55,0.27,0.87-0.14l0.72-0.94c-0.27-0.36-0.83-0.83-1.55-1.21c-2.18-1.16-4.49-0.58-5.68,1.69
		c-1.19,2.22-0.65,3.99,1.28,5.01c0.97,0.54,1.82,0.67,2.57,0.69L35.58,119.62z"/>
	<path class="st0" d="M44.76,124.21l-1.03-0.49l1.54-6.21l0.51,0.07c0.36,0.04,0.57,0,0.63-0.39c-2.17-0.55-2.31-0.59-2.31-0.59
		c-0.43-0.09-0.68-0.01-0.7,0.36l0.84,0.29l-0.68,2.7l-4.02-1.01l0.67-2.69l0.6,0.09c0.36,0.06,0.57,0,0.63-0.39
		c-2.18-0.53-2.42-0.61-2.42-0.61c-0.44-0.09-0.7-0.01-0.7,0.35l0.86,0.3l-1.55,6.23l-0.8-0.01c-0.24,0-0.38,0.2-0.34,0.4
		c0.31,0.08,0.91,0.21,1.46,0.34c0.5,0.13,0.86,0.23,1.14,0.32c0.29,0.08,0.62,0.02,0.7-0.3l-1.12-0.48l0.71-2.88l4.04,1.02
		l-0.71,2.87h-0.78c-0.28,0-0.42,0.18-0.38,0.38c0.37,0.09,0.94,0.23,1.51,0.36c0.43,0.11,0.83,0.22,1.13,0.31
		C44.42,124.61,44.66,124.51,44.76,124.21"/>
	<path class="st0" d="M51.08,124.18l-1.13-0.14l-0.33-6.4l0.56-0.09c0.37-0.05,0.5-0.17,0.44-0.55c-2.24,0.12-2.41,0.13-2.41,0.13
		c-0.44,0.01-0.65,0.21-0.56,0.55l0.91,0.04l0.34,6.39l-0.71,0.19c-0.35,0.1-0.42,0.3-0.33,0.52c0.34-0.05,0.89-0.07,1.41-0.09
		c0.52-0.04,0.97-0.06,1.29-0.05C50.88,124.67,51.09,124.48,51.08,124.18"/>
	<path class="st0" d="M59.34,120.42c-0.29-0.05-0.57,0.15-0.6,0.53l-0.07,1.01l-2.75,0.7l-1.85-6.03l0.65-0.26
		c0.34-0.14,0.48-0.31,0.34-0.68c-2.3,0.71-2.43,0.74-2.43,0.74c-0.43,0.14-0.59,0.36-0.42,0.67l0.84-0.16l1.88,6.11l-0.58,0.37
		c-0.21,0.14-0.21,0.36-0.07,0.52l5.25-1.61L59.34,120.42z"/>
	<path class="st0" d="M65.62,116.92c-0.34,0.03-0.55,0.25-0.47,0.75l0.16,0.9l-2.52,1.3l-1.41-2.44l1.83-1.06l0.35,0.7
		c0.3-0.08,0.56-0.4,0.35-0.78c-0.27-0.45-0.48-0.84-0.82-1.49c-0.13,0-0.36,0.12-0.41,0.3c-0.06,0.22,0,0.35,0.19,0.67l-1.84,1.06
		l-1.39-2.43l2.29-1.21l0.72,0.89c0.3-0.08,0.5-0.36,0.3-0.65l-0.78-1.2l-3.48,2.02c-1.01,0.58-0.99,0.78-0.73,1.06l0.78-0.37
		l3.17,5.52l-0.47,0.47c-0.19,0.18-0.15,0.42,0.01,0.55l4.75-2.74L65.62,116.92z"/>
	<path class="st0" d="M22.54,108.6c0-0.88,0.7-1.6,1.59-1.6c0.88,0,1.59,0.72,1.59,1.6c0,0.87-0.72,1.59-1.59,1.59
		C23.24,110.18,22.54,109.47,22.54,108.6"/>
	<path class="st0" d="M70.36,108.6c0-0.88,0.71-1.6,1.58-1.6c0.88,0,1.59,0.72,1.59,1.6c0,0.87-0.71,1.59-1.59,1.59
		C71.07,110.18,70.36,109.47,70.36,108.6"/>
	<path class="st0" d="M79.57,64.74c0-7.24-1.1-14.06-3.01-20.15c-6.03-19.3-18.41-28.15-28.52-28.15c-10.14,0-22.56,8.9-28.55,28.26
		c-1.9,6.05-3,13.1-3,20.3c0,31.55,18.19,48.56,31.55,48.56C61.39,113.56,79.57,96.29,79.57,64.74 M47.5,64.45h-29.9
		c0.06-6.9,1.12-13.64,2.93-19.42c5.8-18.73,17.57-27.17,26.97-27.48V64.45z M47.5,112.45c-12.4-0.47-29.7-16.48-29.9-46.9h29.9
		V112.45z M48.59,65.56h29.89c-0.29,30.27-17.55,46.43-29.89,46.9V65.56z M78.48,64.45H48.59V17.54c9.38,0.31,21.1,8.73,26.93,27.39
		C77.37,50.81,78.46,57.42,78.48,64.45"/>
	<path class="st0" d="M61.67,85.71h8.34c0.18-0.03,0.48-0.12,0.52-0.55v-9.25c0-0.24,0-0.43,0.48-0.43c0.42,0,0.44,0.22,0.44,0.43
		v9.88c0,0.92-0.82,0.81-0.82,0.81h-8.97h-8.95c0,0-0.81,0.1-0.81-0.81v-9.88c0-0.21,0.02-0.43,0.45-0.43c0.46,0,0.46,0.2,0.46,0.43
		v9.25c0.05,0.43,0.35,0.52,0.53,0.55H61.67z"/>
	<path class="st0" d="M61.69,84.12h6.45c0.98,0,0.93-0.45,0.54-0.63c-1.83-0.7-4.6-0.83-6.18,0c-0.64,0.34-0.54-0.3-0.54-0.56v-8.25
		c0-0.45,0.53-1.74,5.16-1.57c2.5,0.1,2.53,0.58,2.53,0.92v10.16c0,0.8-0.76,0.77-0.76,0.77h-7.21h-7.23c0,0-0.75,0.03-0.75-0.77
		V74.02c0-0.34,0.02-0.83,2.53-0.92c4.64-0.14,5.15,1.12,5.15,1.57v8.25c0,0.26,0.11,0.9-0.53,0.56c-1.57-0.83-4.35-0.7-6.17,0
		c-0.38,0.18-0.45,0.63,0.55,0.63H61.69z"/>
	<path class="st0" d="M71.47,46.94c-0.16-0.23-0.58,0.01-0.96,0c-1.11-0.06-1.76-0.58-2.87-0.74c-0.31-0.06-0.64-0.2-0.82-0.24
		c1.4-0.5,2.24-2.23,1.49-2.62c-0.26-0.12-0.42,0.35-0.73,0.52c-0.83,0.5-1.52-0.08-2.35,0.43c0.39-0.4,0.5-0.8,0.75-1.39
		c0.47-1.04,1.2-2.87,0.42-2.9c-0.27-0.01-0.33,0.48-0.57,0.75c-0.74,0.83-1.56,1.04-2.31,1.77c-0.23,0.21-0.47,0.41-0.61,0.54
		c0.4-1.44-0.53-3.15-1.26-2.76c-0.25,0.13,0.03,0.55,0,0.9c-0.08,0.94-0.94,1.16-1.04,2.07c-0.08-0.55-0.35-0.88-0.67-1.43
		c-0.57-1-1.61-2.67-2.09-2.06c-0.17,0.23,0.19,0.57,0.26,0.92c0.25,1.08-0.08,1.87,0.06,2.85c0.02,0.2,0.06,0.43,0.08,0.66
		c-0.85-1.16-2.64-1.52-2.81-0.73c-0.07,0.26,0.43,0.33,0.68,0.58c0.66,0.65,0.3,1.45,0.92,2.13c-0.48-0.3-0.89-0.3-1.54-0.4
		c-1.12-0.21-3.07-0.49-2.91,0.28c0.06,0.29,0.54,0.22,0.86,0.39c0.98,0.51,1.39,1.25,2.21,1.79c0.19,0.11,0.37,0.25,0.56,0.37
		c-1.43-0.03-2.83,1.16-2.32,1.78c0.19,0.21,0.53-0.14,0.88-0.19c0.92-0.11,1.33,0.66,2.24,0.58c-0.53,0.2-0.79,0.53-1.27,0.96
		c-0.85,0.77-2.27,2.14-1.57,2.5c0.24,0.12,0.49-0.31,0.83-0.46c1.01-0.46,1.84-0.32,2.76-0.65c0.21-0.07,0.43-0.14,0.63-0.23
		c-0.96,1.09-0.94,2.91-0.12,2.92c0.28,0.01,0.23-0.49,0.42-0.78c0.51-0.79,1.37-0.61,1.89-1.36c-0.19,0.52-0.11,0.94-0.08,1.59
		c0.04,1.15,0.17,3.12,0.9,2.8c0.25-0.11,0.09-0.58,0.17-0.94c0.3-1.06,0.95-1.61,1.29-2.54c0.08-0.22,0.17-0.42,0.23-0.65
		c0.2,1.48,1.71,2.66,2.23,2.02c0.17-0.22-0.26-0.49-0.36-0.83c-0.31-0.88,0.37-1.46,0.1-2.32c0.31,0.47,0.68,0.66,1.21,1.04
		c0.92,0.68,2.55,1.78,2.73,1.02c0.07-0.28-0.4-0.43-0.61-0.74c-0.66-0.87-0.7-1.73-1.21-2.56c-0.15-0.25-0.28-0.52-0.31-0.65
		c1.29,0.8,3.24,0.4,3.06-0.45c-0.06-0.28-0.55-0.13-0.89-0.26c-0.86-0.33-0.89-1.19-1.66-1.57c0.53,0.05,0.91-0.12,1.52-0.26
		C70.03,48.1,71.92,47.56,71.47,46.94 M66.74,48.53c0,2.62-2.12,4.74-4.72,4.74c-2.62,0-4.74-2.12-4.74-4.74
		c0-2.63,2.13-4.75,4.74-4.75C64.62,43.78,66.74,45.91,66.74,48.53"/>
	<path class="st0" d="M58.2,48.53c0-2.12,1.71-3.82,3.81-3.82c2.1,0,3.82,1.7,3.82,3.82c0,2.11-1.71,3.81-3.82,3.81
		C59.91,52.34,58.2,50.64,58.2,48.53"/>
	<path class="st0" d="M30.47,74.46l1.11-1.07h-0.84c-0.3,0-0.57,0.25-0.57,0.57C30.17,74.17,30.31,74.36,30.47,74.46 M36.7,74.46
		c0.17-0.1,0.3-0.29,0.3-0.51c0-0.31-0.27-0.57-0.58-0.57H35.6L36.7,74.46z M33.56,71.97c0.36,0,0.64,0.03,0.9,0.19
		c0.4,0.21,0.61,0.5,0.61,0.5h1.7c0,0,0.78,0.01,1.05,0.82c0.28,0.86-0.57,1.6-0.57,1.6c0.36,0.32,3.53,3.44,3.9,3.81
		c0.53,0.53,0.81,1.4,0.56,2.4c-0.15,0.56-0.54,0.76-0.86,0.51c-0.26-0.22-4.41-5.45-4.41-5.45s-0.14-0.18-0.25-0.1
		c-0.1,0.06-0.04,0.17,0.03,0.28c0.05,0.13,4.32,5.87,4.32,5.87s0.5,0.69,0.32,1.39c-0.14,0.54-0.93,1.75-1.59,1.91
		c-0.38,0.11-0.99-0.02-1.21-0.59c-0.76-2.01-2.75-8.05-2.75-8.05s-0.15-0.42-0.34-0.38c-0.19,0.06-0.07,0.45-0.07,0.45
		s2.39,7.71,2.65,8.57c0.15,0.51,0.11,1.01-0.28,1.42c-0.33,0.35-0.78,0.68-2.18,0.96c-0.15,0-1.04-0.04-1.11-0.84
		c-0.08-1.07-0.17-10.01-0.17-10.01s-0.01-0.38-0.23-0.38s-0.25,0.39-0.25,0.39s-0.08,8.93-0.17,10c-0.06,0.8-0.95,0.84-1.1,0.84
		c-1.41-0.28-1.84-0.59-2.18-0.96c-0.38-0.4-0.42-0.9-0.27-1.42c0.24-0.87,2.64-8.57,2.64-8.57s0.13-0.4-0.07-0.45
		c-0.2-0.04-0.33,0.39-0.33,0.39s-2,6.04-2.76,8.03c-0.22,0.58-0.82,0.71-1.19,0.6c-0.66-0.17-1.46-1.38-1.6-1.92
		c-0.16-0.7,0.34-1.38,0.34-1.38s4.24-5.76,4.31-5.87c0.06-0.12,0.12-0.21,0.01-0.29c-0.11-0.07-0.25,0.1-0.25,0.1
		s-4.15,5.25-4.42,5.45c-0.32,0.25-0.72,0.05-0.85-0.51c-0.25-1.01,0.03-1.86,0.56-2.4c0.37-0.36,3.53-3.47,3.9-3.81
		c0,0-0.85-0.74-0.57-1.6c0.28-0.8,1.04-0.82,1.04-0.82h1.71c0,0,0.21-0.29,0.61-0.5C32.96,72.01,33.21,71.97,33.56,71.97"/>
	<path class="st0" d="M37.45,43.52c0,0-0.72,1.26-1.17,1.75c-0.5,0.53,0.77,0.67,1.11,0.23c0.29-0.38,0.9-1.45,0.9-1.45
		s0.03-0.85-0.25-1.06C37.78,42.8,37.45,43.52,37.45,43.52 M41.22,55.1c0,0,0.24,0.32-0.08,0.59c-0.34,0.28-0.58-0.06-0.58-0.06
		l-1.03-1.29c-1.05,0.26-2.85-1.5-3.44-1.78c-0.63-0.33-1.66,1.54-2.21,0.26c-1.17-2.68-4.34,1.75-5.42,1.64
		c-1.12-0.09,0.19-1.41-0.05-2.29c-0.25-0.89-1.29,0-2.16,0.24c-0.29,0.06-0.72,0.15-1.12,0.2l-2.51,3.13c0,0-0.23,0.33-0.56,0.05
		c-0.34-0.26-0.08-0.58-0.08-0.58l8.31-10.9c0,0,0.23-0.34,0.49-0.64c0.71-0.72,1.39-0.96,2.36,0.11c0.31,0.34,0.89,1.15,1.51,2.06
		c0.62-1.02,2.16-2.95,2.57-3.61c0.5-0.79,1.22-0.56,1.62-0.22c0.7,0.57,2.52,3.21,3.63,4.24c0.08,0.06,0.13,0.12,0.17,0.18
		l1.16,1.16c0,0,0.28,0.29-0.03,0.6c-0.3,0.31-0.56,0-0.56,0l-1.17-1.19c-0.41,0.09-0.9,0.06-1.15,0.02
		c-0.53-0.14-1.39-0.93-1.06,0.64c0.1,0.51,0.25,0.74-0.42,0.81c-0.68,0.05-2.74-1.85-3.18-1.21c-0.11,0.16-0.24,0.3-0.37,0.43
		C36.53,48.77,41.22,55.1,41.22,55.1 M30.84,48.68c-0.03-0.88-0.09-0.82,0.39-1.54c0.37-0.58,0.4-1.43,0.52-2.13
		c0.08-0.4-0.38-0.49-0.52-0.05c-0.16,0.32-0.51,0.67-0.71,1.02c-0.64,0.78-1.7,2.31-2.06,2.9c-0.23,0.37-1.4,1.22-1.22,1.81
		c0.09,0.33,0.69,0.3,1.37-0.4c0.35-0.42,0.45-0.53,0.76-0.55c0.52,0.06,0.01,0.54,0.6,0.68C30.62,50.59,30.84,49.23,30.84,48.68"/>
	<path class="st0" d="M146.06,85.92c0-7.55-5.46-13.32-12.68-13.32c-7.2,0-12.67,5.77-12.67,13.32c0,7.61,5.47,13.38,12.67,13.38
		C140.6,99.3,146.06,93.52,146.06,85.92 M139.34,85.92c0,4.53-2.7,8.21-5.96,8.21c-3.25,0-5.94-3.68-5.94-8.21
		c0-4.45,2.69-8.14,5.94-8.14C136.64,77.78,139.34,81.46,139.34,85.92"/>
	<path class="st0" d="M169.6,75.04c-2.27-1.3-3.13-1.62-5.51-2.12c-1.57-0.33-2.98-0.49-4.18-0.49c-6.11,0-10.25,3.21-10.25,7.95
		c0,3.36,2.07,5.76,6.53,7.44l4.33,1.68c1.72,0.66,2.54,1.53,2.54,2.66c0,1.36-1.45,2.19-3.96,2.19c-0.92,0-1.84-0.17-2.82-0.49
		c-1.84-0.61-2.86-1.09-5.41-2.66l-2.07,5.26c2.78,1.41,3.91,1.85,6.23,2.34c1.53,0.32,2.88,0.49,4.13,0.49
		c6.07,0,10.08-3.05,10.08-7.68c0-2.21-1.03-4.51-2.61-5.6c-1.13-0.86-4.77-2.48-7.58-3.48c-2.27-0.81-3.14-1.52-3.14-2.66
		c0-1.41,1.62-2.4,4.12-2.4c1.83,0,4,0.66,5.8,1.75c0.5,0.27,1.06,0.64,1.72,1.09L169.6,75.04z"/>
	<rect x="109.28" y="62.69" class="st0" width="6.83" height="35.88"/>
	<path class="st0" d="M217.22,98.57l-12.95-35.88h-6.12l-12.94,35.88h7.14l2.92-8.86h11.98l2.82,8.86H217.22z M205.4,83.9h-8.28
		l4.11-12.99L205.4,83.9z"/>
	<path class="st0" d="M243.2,98.57V79.99c0-4.78-2.26-7.19-6.81-7.19c-3.21,0-5.7,1.37-8.74,4.68V73.3h-6.49v25.28h6.49v-15.2
		l0.88-0.94c2.81-3.05,4.49-3.17,5.86-3.11c1.28,0.06,2.32-0.15,2.32,3v16.24H243.2z"/>
	<path class="st0" d="M272.19,98.57V60.82l-6.46,1.85v11.67c-1.4-0.99-1.99-1.25-3.36-1.52c-0.76-0.22-1.52-0.27-2.22-0.27
		c-6.66,0-12.02,6.29-12.02,14.14c0,7.27,4.38,12.61,10.34,12.61c1.68,0,3.26-0.49,4.72-1.42c1.2-0.75,1.62-1.26,2.54-2.73v3.42
		H272.19z M265.73,90.16c-1.57,2.43-3.57,3.79-5.57,3.79c-3.09,0-5.2-3.19-5.2-7.76c0-4.79,2.65-8.32,6.23-8.32
		c2,0,3.79,0.97,4.23,2.33c0.17,0.54,0.32,1.84,0.32,3.25V90.16z"/>
	<path class="st0" d="M300.01,96.14l-2.38-4.93c-2.32,1.46-3.31,1.94-4.83,2.38c-1.01,0.32-2,0.45-2.98,0.45
		c-2.4,0-4.53-1.21-5.64-3.06c-0.6-1.02-0.76-1.89-0.86-4.03h16.68v-2.77c0-6.83-4.33-11.58-10.56-11.58
		c-7.22,0-12.63,6.03-12.63,14.03c0,7.72,4.71,12.67,12.2,12.67c2.93,0,5.63-0.6,8.29-1.81C297.9,97.22,298.82,96.79,300.01,96.14
		 M293.51,82.87h-9.85c0.54-3.42,2.49-5.39,5.36-5.39C292.05,77.48,293.34,79.01,293.51,82.87"/>
	<path class="st0" d="M323.18,75.04c-2.28-1.3-3.15-1.62-5.52-2.12c-1.57-0.33-2.99-0.49-4.19-0.49c-6.12,0-10.24,3.21-10.24,7.95
		c0,3.36,2.06,5.76,6.52,7.44l4.33,1.68c1.75,0.66,2.55,1.53,2.55,2.66c0,1.36-1.47,2.19-3.95,2.19c-0.93,0-1.84-0.17-2.83-0.49
		c-1.83-0.61-2.87-1.09-5.41-2.66l-2.05,5.26c2.76,1.41,3.9,1.85,6.23,2.34c1.52,0.32,2.88,0.49,4.12,0.49
		c6.07,0,10.06-3.05,10.06-7.68c0-2.21-1.02-4.51-2.59-5.6c-1.13-0.86-4.77-2.48-7.59-3.48c-2.27-0.81-3.15-1.52-3.15-2.66
		c0-1.41,1.63-2.4,4.12-2.4c1.84,0,4.02,0.66,5.8,1.75c0.49,0.27,1.08,0.64,1.72,1.09L323.18,75.04z"/>
	<path class="st0" d="M122.86,43.54V31.74h-2.18v11.13c0,2.19-0.16,2.82-1.01,3.75c-0.88,0.99-2.16,1.52-3.69,1.52
		c-1.5,0-2.79-0.53-3.66-1.52c-0.86-0.94-1.04-1.56-1.04-3.75V31.74h-2.17v11.81c0,2.3,0.58,3.71,2.06,4.92
		c1.31,1.08,2.96,1.63,4.85,1.63s3.52-0.55,4.83-1.63C122.3,47.25,122.86,45.88,122.86,43.54"/>
	<path class="st0" d="M137.64,49.58v-9.06c0-2.27-1.04-3.38-3.17-3.38c-1.12,0-2.33,0.43-3.22,1.21c-0.6,0.47-0.84,0.72-1.66,1.65
		v-2.54h-2v12.12h2v-7.4c2.11-2.33,3.42-3.24,4.64-3.24c0.56,0,1.05,0.24,1.22,0.64c0.14,0.34,0.2,0.62,0.2,1.42v8.58H137.64z"/>
	<path class="st0" d="M144.44,33.23c0-0.73-0.58-1.31-1.3-1.31c-0.73,0-1.31,0.58-1.31,1.31c0,0.73,0.58,1.32,1.31,1.32
		C143.86,34.55,144.44,33.97,144.44,33.23 M144.12,37.47h-2v12.12h2V37.47z"/>
</g>
</svg>
