<?xml version="1.0" encoding="utf-8"?>
<!-- Generator: Adobe Illustrator 24.0.0, SVG Export Plug-In . SVG Version: 6.00 Build 0)  -->
<svg version="1.1" id="Layer_1" xmlns="http://www.w3.org/2000/svg" xmlns:xlink="http://www.w3.org/1999/xlink" x="0px" y="0px"
	 viewBox="0 0 59.19 59.19" style="enable-background:new 0 0 59.19 59.19;" xml:space="preserve">
<style type="text/css">
	.st0{fill:#FFFFFF;}
</style>
<g>
	<g>
		<path class="st0" d="M29.29,57.04c-15.05,0-27.29-12.24-27.29-27.29S14.24,2.45,29.29,2.45c15.05,0,27.29,12.24,27.29,27.29
			S44.34,57.04,29.29,57.04z M29.29,5.39c-13.43,0-24.36,10.93-24.36,24.36c0,13.43,10.93,24.36,24.36,24.36
			c13.43,0,24.36-10.93,24.36-24.36C53.65,16.31,42.72,5.39,29.29,5.39z"/>
	</g>
	<g>
		<g>
			<path class="st0" d="M30.57,11.98c-9.09,0-16.48,7.39-16.48,16.48c0,3.2,0.91,6.27,2.63,8.93l-2.5,5.51
				c-0.23,0.51-0.15,1.1,0.22,1.53c0.28,0.33,0.68,0.51,1.09,0.51c0.13,0,0.25-0.02,0.38-0.05l6.9-1.89
				c2.38,1.27,5.05,1.94,7.76,1.94c9.09,0,16.48-7.39,16.48-16.48C47.05,19.37,39.66,11.98,30.57,11.98z M30.57,42.06
				c-2.41,0-4.77-0.64-6.85-1.85c-0.22-0.13-0.47-0.2-0.73-0.2c-0.13,0-0.26,0.02-0.38,0.05l-4.51,1.24l1.57-3.46
				c0.21-0.47,0.16-1.02-0.14-1.44c-1.68-2.33-2.57-5.07-2.57-7.95c0-7.5,6.1-13.6,13.6-13.6s13.6,6.1,13.6,13.6
				C44.17,35.96,38.07,42.06,30.57,42.06z"/>
		</g>
		<g>
			<path class="st0" d="M36.91,30.93c-0.69-0.41-1.59-0.87-2.4-0.54c-0.62,0.26-1.02,1.23-1.43,1.73c-0.21,0.26-0.46,0.3-0.77,0.17
				c-2.34-0.93-4.14-2.5-5.43-4.65c-0.22-0.33-0.18-0.6,0.08-0.91c0.39-0.46,0.88-0.98,0.99-1.6c0.11-0.62-0.18-1.34-0.44-1.89
				c-0.33-0.7-0.69-1.71-1.4-2.11c-0.65-0.37-1.5-0.16-2.08,0.31c-1,0.81-1.48,2.09-1.46,3.35c0,0.36,0.05,0.72,0.13,1.06
				c0.2,0.83,0.59,1.61,1.02,2.35c0.33,0.56,0.68,1.1,1.06,1.62c1.25,1.7,2.81,3.18,4.61,4.28c0.9,0.55,1.87,1.04,2.88,1.37
				c1.13,0.37,2.13,0.76,3.35,0.53c1.27-0.24,2.53-1.03,3.04-2.26c0.15-0.36,0.22-0.77,0.14-1.15
				C38.63,31.78,37.55,31.31,36.91,30.93z"/>
		</g>
	</g>
</g>
</svg>
